<svg width="100" height="100" viewBox="0 0 100 100" fill="none" xmlns="http://www.w3.org/2000/svg">
<rect width="100" height="100" rx="5" fill="#E2E6EC"/>
<path fill-rule="evenodd" clip-rule="evenodd" d="M28.667 37C28.667 34.6068 30.6071 32.6667 33.0003 32.6667H67.0003C69.3936 32.6667 71.3337 34.6068 71.3337 37V63.6667C71.3337 66.0599 69.3936 68 67.0003 68H33.0003C30.6071 68 28.667 66.0599 28.667 63.6667V37ZM33.0003 34.6667C31.7117 34.6667 30.667 35.7113 30.667 37V63.6667C30.667 64.9553 31.7117 66 33.0003 66H67.0003C68.289 66 69.3337 64.9553 69.3337 63.6667V37C69.3337 35.7113 68.289 34.6667 67.0003 34.6667H33.0003Z" fill="#CCCCCC"/>
<ellipse cx="38.6673" cy="42" rx="4.33333" ry="4.33333" fill="#CCCCCC"/>
<path d="M34.334 60.3333V58.357C34.334 57.915 34.5096 57.4911 34.8221 57.1785L40.2103 51.7904C40.8393 51.1613 41.8516 51.1372 42.5099 51.7357L43.8412 52.946C44.4928 53.5383 45.4928 53.5216 46.1241 52.9077L55.8224 43.4789C56.4758 42.8436 57.5183 42.851 58.1627 43.4954L65.8458 51.1785C66.1584 51.4911 66.334 51.915 66.334 52.357V60.3333C66.334 61.2538 65.5878 62 64.6673 62H36.0007C35.0802 62 34.334 61.2538 34.334 60.3333Z" fill="#CCCCCC"/>
</svg>
