<svg width="688" height="4" viewBox="0 0 688 4" fill="none" xmlns="http://www.w3.org/2000/svg">
<path d="M0.00292969 0H157.996C159.101 0 159.996 0.895431 159.996 2V2C159.996 3.10457 159.101 4 157.996 4H0.00292969V0Z" fill="#B1B1B1" fill-opacity="0.7"/>
<path d="M0.00292969 2C0.00292969 0.895431 0.89836 0 2.00293 0H104.663C105.767 0 106.663 0.895431 106.663 2V2C106.663 3.10457 105.768 4 104.663 4H2.00293C0.898364 4 0.00292969 3.10457 0.00292969 2V2Z" fill="#B54653"/>
<rect x="175.996" width="160" height="4" rx="2" fill="#B1B1B1" fill-opacity="0.7"/>
<rect x="351.996" width="160" height="4" rx="2" fill="#B1B1B1" fill-opacity="0.7"/>
<rect x="527.996" width="160" height="4" rx="2" fill="#B1B1B1" fill-opacity="0.7"/>
</svg>
