<svg width="24" height="25" viewBox="0 0 24 25" fill="none" xmlns="http://www.w3.org/2000/svg">
<path d="M18 8.5L18.9487 8.81623C19.9387 9.14624 20.4337 9.31124 20.7169 9.70407C21 10.0969 21 10.6187 21 11.6623V17.329C21 18.6199 21 19.2653 20.6603 19.68C20.5449 19.8208 20.4048 19.9394 20.247 20.0301C19.7821 20.297 19.1455 20.1909 17.8721 19.9787C16.6157 19.7693 15.9875 19.6646 15.3648 19.7167C15.1463 19.735 14.9292 19.7676 14.715 19.8144C14.1046 19.9477 13.5299 20.235 12.3806 20.8097C10.8809 21.5596 10.131 21.9345 9.33284 22.0501C9.09242 22.0849 8.8498 22.1021 8.60688 22.1016C7.80035 22.1001 7.01186 21.8373 5.43488 21.3116L5.05132 21.1838C4.06129 20.8538 3.56627 20.6888 3.28314 20.2959C3 19.9031 3 19.3813 3 18.3377V13.408C3 11.7491 3 10.9197 3.48841 10.4736C3.57388 10.3955 3.66809 10.3276 3.76917 10.2712C4.34681 9.94894 5.13369 10.2112 6.70746 10.7358" stroke="#CCCCCC" stroke-width="1.5"/>
<path d="M6 8.20031C6 5.05211 8.68629 2.5 12 2.5C15.3137 2.5 18 5.05211 18 8.20031C18 11.3238 16.085 14.9687 13.0972 16.2721C12.4007 16.576 11.5993 16.576 10.9028 16.2721C7.91499 14.9687 6 11.3238 6 8.20031Z" stroke="#CCCCCC" stroke-width="1.5"/>
<circle cx="12" cy="8.5" r="2" stroke="#CCCCCC" stroke-width="1.5"/>
</svg>
