<svg width="24" height="22" viewBox="0 0 24 22" fill="none" xmlns="http://www.w3.org/2000/svg">
<path d="M6.08334 2.75C6.08334 3.16421 6.41913 3.5 6.83334 3.5C7.24756 3.5 7.58334 3.16421 7.58334 2.75H6.08334ZM7.58334 1.25C7.58334 0.835786 7.24756 0.5 6.83334 0.5C6.41913 0.5 6.08334 0.835786 6.08334 1.25H7.58334ZM16.0833 2.75C16.0833 3.16421 16.4191 3.5 16.8333 3.5C17.2476 3.5 17.5833 3.16421 17.5833 2.75H16.0833ZM17.5833 1.25C17.5833 0.835786 17.2476 0.5 16.8333 0.5C16.4191 0.5 16.0833 0.835786 16.0833 1.25H17.5833ZM2.33334 7C1.91913 7 1.58334 7.33579 1.58334 7.75C1.58334 8.16421 1.91913 8.5 2.33334 8.5V7ZM21.3333 8.5C21.7476 8.5 22.0833 8.16421 22.0833 7.75C22.0833 7.33579 21.7476 7 21.3333 7V8.5ZM9.83334 3.5H13.8333V2H9.83334V3.5ZM21.0833 10.75V12.75H22.5833V10.75H21.0833ZM13.8333 20H9.83334V21.5H13.8333V20ZM2.58334 12.75V10.75H1.08334V12.75H2.58334ZM9.83334 20C7.92652 20 6.57186 19.9984 5.54419 19.8602C4.5381 19.725 3.95846 19.4713 3.53525 19.0481L2.47459 20.1088C3.22295 20.8571 4.1719 21.1892 5.34432 21.3469C6.49517 21.5016 7.96893 21.5 9.83334 21.5V20ZM1.08334 12.75C1.08334 14.6144 1.08175 16.0882 1.23648 17.239C1.39411 18.4114 1.72622 19.3604 2.47459 20.1088L3.53525 19.0481C3.11204 18.6249 2.85837 18.0452 2.7231 17.0392C2.58494 16.0115 2.58334 14.6568 2.58334 12.75H1.08334ZM21.0833 12.75C21.0833 14.6568 21.0818 16.0115 20.9436 17.0392C20.8083 18.0452 20.5546 18.6249 20.1314 19.0481L21.1921 20.1088C21.9405 19.3604 22.2726 18.4114 22.4302 17.239C22.5849 16.0882 22.5833 14.6144 22.5833 12.75H21.0833ZM13.8333 21.5C15.6978 21.5 17.1715 21.5016 18.3224 21.3469C19.4948 21.1892 20.4437 20.8571 21.1921 20.1088L20.1314 19.0481C19.7082 19.4713 19.1286 19.725 18.1225 19.8602C17.0948 19.9984 15.7402 20 13.8333 20V21.5ZM13.8333 3.5C15.7402 3.5 17.0948 3.50159 18.1225 3.63976C19.1286 3.77502 19.7082 4.02869 20.1314 4.4519L21.1921 3.39124C20.4437 2.64288 19.4948 2.31076 18.3224 2.15313C17.1715 1.99841 15.6978 2 13.8333 2V3.5ZM22.5833 10.75C22.5833 8.88558 22.5849 7.41182 22.4302 6.26098C22.2726 5.08855 21.9405 4.13961 21.1921 3.39124L20.1314 4.4519C20.5546 4.87511 20.8083 5.45476 20.9436 6.46085C21.0818 7.48851 21.0833 8.84318 21.0833 10.75H22.5833ZM9.83334 2C7.96893 2 6.49517 1.99841 5.34432 2.15313C4.1719 2.31076 3.22295 2.64288 2.47459 3.39124L3.53525 4.4519C3.95846 4.02869 4.5381 3.77502 5.54419 3.63976C6.57186 3.50159 7.92652 3.5 9.83334 3.5V2ZM2.58334 10.75C2.58334 8.84318 2.58494 7.48851 2.7231 6.46085C2.85837 5.45476 3.11204 4.87511 3.53525 4.4519L2.47459 3.39124C1.72622 4.13961 1.39411 5.08856 1.23648 6.26098C1.08175 7.41182 1.08334 8.88558 1.08334 10.75H2.58334ZM7.58334 2.75V1.25H6.08334V2.75H7.58334ZM17.5833 2.75V1.25H16.0833V2.75H17.5833ZM2.33334 8.5H21.3333V7H2.33334V8.5Z" fill="#CCCCCC"/>
</svg>
