<svg width="22" height="22" viewBox="0 0 22 22" fill="none" xmlns="http://www.w3.org/2000/svg">
<path d="M1.85574 6.39057L2.58653 6.55922V6.55922L1.85574 6.39057ZM6.39057 1.85574L6.55921 2.58653L6.39057 1.85574ZM5.55812 16.9665L6.08845 16.4362V16.4362L5.55812 16.9665ZM11.2623 21V21.75V21ZM16.9665 5.55812L17.4969 5.02779L16.9665 5.55812ZM21 11.2623H21.75H21ZM15.1369 3.72848L14.6066 4.25881L15.1369 3.72848ZM7.61875 1.57231L7.45011 0.841519V0.84152L7.61875 1.57231ZM3.72848 15.1369L3.19815 15.6672L3.19815 15.6672L3.72848 15.1369ZM1.57231 7.61875L0.841519 7.45011L0.841519 7.45011L1.57231 7.61875ZM10.0114 16.9694C9.71852 17.2623 9.71853 17.7372 10.0114 18.0301C10.3043 18.323 10.7792 18.323 11.0721 18.0301L10.0114 16.9694ZM18.0511 11.0508C18.344 10.7579 18.344 10.2831 18.0511 9.99017C17.7582 9.69728 17.2833 9.69729 16.9904 9.99019L18.0511 11.0508ZM14.6066 4.25881L16.4362 6.08845L17.4969 5.02779L15.6672 3.19815L14.6066 4.25881ZM6.08845 16.4362L4.25881 14.6066L3.19815 15.6672L5.02779 17.4969L6.08845 16.4362ZM2.30311 7.7874L2.58653 6.55922L1.12495 6.22193L0.841519 7.45011L2.30311 7.7874ZM6.55921 2.58653L7.7874 2.30311L7.45011 0.84152L6.22192 1.12495L6.55921 2.58653ZM2.58653 6.55922C2.79677 5.6482 2.94251 5.02081 3.10698 4.54162C3.26575 4.07899 3.42228 3.81727 3.61977 3.61977L2.55911 2.55911C2.14313 2.9751 1.88955 3.46806 1.68821 4.05468C1.49256 4.62474 1.3282 5.34118 1.12495 6.22193L2.58653 6.55922ZM6.22192 1.12495C5.34118 1.3282 4.62474 1.49256 4.05468 1.68821C3.46806 1.88955 2.9751 2.14313 2.55911 2.55911L3.61977 3.61977C3.81727 3.42228 4.07899 3.26575 4.54162 3.10698C5.02081 2.94251 5.6482 2.79677 6.55921 2.58653L6.22192 1.12495ZM16.4362 16.4362C15.0767 17.7957 14.1093 18.7608 13.2776 19.3954C12.4633 20.0167 11.8678 20.25 11.2623 20.25V21.75C12.3276 21.75 13.2397 21.311 14.1875 20.5879C15.118 19.878 16.1674 18.8264 17.4969 17.4969L16.4362 16.4362ZM5.02779 17.4969C6.35729 18.8264 7.40664 19.878 8.33713 20.5879C9.28493 21.311 10.197 21.75 11.2623 21.75V20.25C10.6569 20.25 10.0614 20.0167 9.24701 19.3954C8.41533 18.7608 7.44794 17.7957 6.08845 16.4362L5.02779 17.4969ZM16.4362 6.08845C17.7957 7.44794 18.7608 8.41533 19.3954 9.24701C20.0167 10.0614 20.25 10.6569 20.25 11.2623H21.75C21.75 10.197 21.311 9.28493 20.5879 8.33713C19.878 7.40664 18.8264 6.35729 17.4969 5.02779L16.4362 6.08845ZM17.4969 17.4969C18.8264 16.1674 19.878 15.118 20.5879 14.1875C21.311 13.2397 21.75 12.3276 21.75 11.2623H20.25C20.25 11.8678 20.0167 12.4633 19.3954 13.2776C18.7608 14.1093 17.7957 15.0767 16.4362 16.4362L17.4969 17.4969ZM15.6672 3.19815C14.9044 2.43537 14.296 1.82577 13.7502 1.37538C13.1922 0.914814 12.6574 0.583719 12.0227 0.401702L11.6092 1.84358C11.9772 1.9491 12.3301 2.14816 12.7954 2.53225C13.2731 2.92651 13.8238 3.47607 14.6066 4.25881L15.6672 3.19815ZM7.7874 2.30311C8.86602 2.05419 9.62426 1.88003 10.2383 1.79888C10.8365 1.71982 11.2413 1.73805 11.6092 1.84358L12.0227 0.401702C11.3881 0.219685 10.7591 0.21701 10.0418 0.311807C9.3403 0.404511 8.50123 0.598953 7.45011 0.841519L7.7874 2.30311ZM4.25881 14.6066C3.47607 13.8238 2.92651 13.2731 2.53225 12.7954C2.14816 12.3301 1.9491 11.9772 1.84358 11.6092L0.401702 12.0227C0.583719 12.6574 0.914814 13.1922 1.37538 13.7502C1.82577 14.296 2.43537 14.9044 3.19815 15.6672L4.25881 14.6066ZM0.841519 7.45011C0.598953 8.50123 0.404511 9.3403 0.311807 10.0418C0.21701 10.7591 0.219685 11.3881 0.401702 12.0227L1.84358 11.6092C1.73805 11.2413 1.71982 10.8365 1.79888 10.2383C1.88003 9.62426 2.05419 8.86602 2.30311 7.7874L0.841519 7.45011ZM8.49094 6.99514C8.97909 7.4833 8.97909 8.27475 8.49094 8.76291L9.5516 9.82357C10.6255 8.74963 10.6255 7.00842 9.5516 5.93448L8.49094 6.99514ZM8.49094 8.76291C8.00278 9.25107 7.21132 9.25107 6.72317 8.76291L5.66251 9.82357C6.73645 10.8975 8.47765 10.8975 9.5516 9.82357L8.49094 8.76291ZM6.72317 8.76291C6.23501 8.27475 6.23501 7.4833 6.72317 6.99514L5.66251 5.93448C4.58857 7.00842 4.58857 8.74963 5.66251 9.82357L6.72317 8.76291ZM6.72317 6.99514C7.21132 6.50699 8.00278 6.50699 8.49094 6.99514L9.5516 5.93448C8.47765 4.86054 6.73645 4.86054 5.66251 5.93448L6.72317 6.99514ZM11.0721 18.0301L18.0511 11.0508L16.9904 9.99019L10.0114 16.9694L11.0721 18.0301Z" fill="#CCCCCC"/>
</svg>
