<svg width="19" height="22" viewBox="0 0 19 22" fill="none" xmlns="http://www.w3.org/2000/svg">
<path d="M11.1296 20.6744L10.812 19.995L11.1296 20.6744ZM8.20375 20.6744L8.52133 19.995L8.20375 20.6744ZM10.812 19.995C10.0846 20.335 9.24874 20.335 8.52133 19.995L7.88618 21.3539C9.01612 21.882 10.3173 21.882 11.4472 21.3539L10.812 19.995ZM0.916687 9.14329C0.916687 11.5084 1.59072 14.0479 2.78224 16.2419C3.97231 18.4331 5.71106 20.3372 7.88618 21.3539L8.52133 19.995C6.71271 19.1496 5.18293 17.5192 4.10039 15.526C3.01932 13.5354 2.41669 11.2404 2.41669 9.14329H0.916687ZM16.9167 9.14329C16.9167 11.2404 16.3141 13.5354 15.233 15.526C14.1504 17.5192 12.6207 19.1496 10.812 19.995L11.4472 21.3539C13.6223 20.3372 15.3611 18.4331 16.5511 16.2419C17.7427 14.0479 18.4167 11.5084 18.4167 9.14329H16.9167ZM9.66669 1.75C13.6583 1.75 16.9167 5.04748 16.9167 9.14329H18.4167C18.4167 4.24427 14.5117 0.25 9.66669 0.25V1.75ZM9.66669 0.25C4.8217 0.25 0.916687 4.24427 0.916687 9.14329H2.41669C2.41669 5.04748 5.67512 1.75 9.66669 1.75V0.25ZM11.9167 9C11.9167 10.2426 10.9093 11.25 9.66669 11.25V12.75C11.7378 12.75 13.4167 11.0711 13.4167 9H11.9167ZM9.66669 11.25C8.42405 11.25 7.41669 10.2426 7.41669 9H5.91669C5.91669 11.0711 7.59562 12.75 9.66669 12.75V11.25ZM7.41669 9C7.41669 7.75736 8.42405 6.75 9.66669 6.75V5.25C7.59562 5.25 5.91669 6.92893 5.91669 9H7.41669ZM9.66669 6.75C10.9093 6.75 11.9167 7.75736 11.9167 9H13.4167C13.4167 6.92893 11.7378 5.25 9.66669 5.25V6.75Z" fill="#CCCCCC"/>
</svg>
