<svg width="18" height="20" viewBox="0 0 18 20" fill="none" xmlns="http://www.w3.org/2000/svg">
<path d="M5.75 10C5.75 10.9665 4.9665 11.75 4 11.75V13.25C5.79493 13.25 7.25 11.7949 7.25 10H5.75ZM4 11.75C3.0335 11.75 2.25 10.9665 2.25 10H0.75C0.75 11.7949 2.20507 13.25 4 13.25V11.75ZM2.25 10C2.25 9.0335 3.0335 8.25 4 8.25V6.75C2.20507 6.75 0.75 8.20507 0.75 10H2.25ZM4 8.25C4.9665 8.25 5.75 9.0335 5.75 10H7.25C7.25 8.20507 5.79493 6.75 4 6.75V8.25ZM6.9301 8.61442L11.9301 5.11442L11.0699 3.88558L6.0699 7.38558L6.9301 8.61442ZM6.0699 12.6144L11.0699 16.1144L11.9301 14.8856L6.9301 11.3856L6.0699 12.6144ZM15.75 16.5C15.75 17.4665 14.9665 18.25 14 18.25V19.75C15.7949 19.75 17.25 18.2949 17.25 16.5H15.75ZM14 18.25C13.0335 18.25 12.25 17.4665 12.25 16.5H10.75C10.75 18.2949 12.2051 19.75 14 19.75V18.25ZM12.25 16.5C12.25 15.5335 13.0335 14.75 14 14.75V13.25C12.2051 13.25 10.75 14.7051 10.75 16.5H12.25ZM14 14.75C14.9665 14.75 15.75 15.5335 15.75 16.5H17.25C17.25 14.7051 15.7949 13.25 14 13.25V14.75ZM15.75 3.5C15.75 4.4665 14.9665 5.25 14 5.25V6.75C15.7949 6.75 17.25 5.29493 17.25 3.5H15.75ZM14 5.25C13.0335 5.25 12.25 4.4665 12.25 3.5H10.75C10.75 5.29493 12.2051 6.75 14 6.75V5.25ZM12.25 3.5C12.25 2.5335 13.0335 1.75 14 1.75V0.25C12.2051 0.25 10.75 1.70507 10.75 3.5H12.25ZM14 1.75C14.9665 1.75 15.75 2.5335 15.75 3.5H17.25C17.25 1.70507 15.7949 0.25 14 0.25V1.75Z" fill="#B54653"/>
</svg>
