<svg width="18" height="17" viewBox="0 0 18 17" fill="none" xmlns="http://www.w3.org/2000/svg">
<path d="M4.40461 14.9601L4.57063 14.4621L4.57063 14.4621L4.40461 14.9601ZM4.13612 14.8706L3.9701 15.3687L3.9701 15.3687L4.13612 14.8706ZM13.8643 6.21335L14.0303 5.71529V5.71529L13.8643 6.21335ZM9.26663 14.6088L9.03184 14.1392L9.03184 14.1392L9.26663 14.6088ZM7.13318 15.477L7.20841 15.9966H7.20841L7.13318 15.477ZM6.62501 15.5131L6.626 14.9881H6.626L6.62501 15.5131ZM13.1107 14.0271L13.0244 14.5449L13.1107 14.0271ZM11.3556 13.8437L11.3118 13.3205H11.3118L11.3556 13.8437ZM10.9007 13.9121L11.0127 14.425H11.0127L10.9007 13.9121ZM2.89839 14.2491L2.47249 14.5561L2.47249 14.5561L2.89839 14.2491ZM15.0624 13.818L15.4685 14.1507L15.4685 14.1507L15.0624 13.818ZM14.7731 14.0631L15.0345 14.5183L15.0345 14.5183L14.7731 14.0631ZM3.04209 7.3735L2.68803 6.98585H2.68803L3.04209 7.3735ZM3.23861 7.23185L2.98282 6.77338L2.98282 6.77338L3.23861 7.23185ZM9.76823 11.4325L9.97816 11.9137V11.9137L9.76823 11.4325ZM8.23216 11.4325L8.02223 11.9137V11.9137L8.23216 11.4325ZM14.7752 8.20559V12.1723H15.8252V8.20559H14.7752ZM3.2252 12.8784V9.42759H2.1752V12.8784H3.2252ZM4.57063 14.4621L4.30214 14.3726L3.9701 15.3687L4.23859 15.4582L4.57063 14.4621ZM13.0342 6.49005L13.6983 6.71141L14.0303 5.71529L13.3662 5.49393L13.0342 6.49005ZM9.03184 14.1392C7.95085 14.6797 7.51327 14.8915 7.05795 14.9574L7.20841 15.9966C7.87057 15.9007 8.4828 15.5877 9.50142 15.0783L9.03184 14.1392ZM4.23859 15.4582C5.30986 15.8153 5.95507 16.0369 6.62401 16.0381L6.626 14.9881C6.16582 14.9873 5.70713 14.8409 4.57063 14.4621L4.23859 15.4582ZM7.05795 14.9574C6.9149 14.9782 6.77054 14.9884 6.626 14.9881L6.62401 16.0381C6.81957 16.0385 7.01488 16.0246 7.20841 15.9966L7.05795 14.9574ZM13.197 13.5092C12.343 13.3669 11.8281 13.2773 11.3118 13.3205L11.3994 14.3668C11.7548 14.3371 12.1194 14.3941 13.0244 14.5449L13.197 13.5092ZM9.50142 15.0783C10.3294 14.6644 10.6644 14.5011 11.0127 14.425L10.7887 13.3992C10.2824 13.5097 9.81291 13.7487 9.03184 14.1392L9.50142 15.0783ZM11.3118 13.3205C11.1359 13.3352 10.9612 13.3615 10.7887 13.3992L11.0127 14.425C11.1402 14.3971 11.2693 14.3777 11.3994 14.3668L11.3118 13.3205ZM2.1752 12.8784C2.1752 13.2316 2.1744 13.5405 2.20336 13.7941C2.23385 14.0612 2.30175 14.3192 2.47249 14.5561L3.32429 13.9422C3.29683 13.9041 3.26564 13.842 3.24658 13.675C3.22599 13.4947 3.2252 13.2557 3.2252 12.8784H2.1752ZM4.30214 14.3726C3.94416 14.2532 3.71774 14.1769 3.55314 14.1004C3.40077 14.0295 3.35175 13.9803 3.32429 13.9422L2.47249 14.5561C2.64322 14.793 2.86656 14.939 3.11025 15.0524C3.34171 15.1601 3.63506 15.257 3.9701 15.3687L4.30214 14.3726ZM14.7752 12.1723C14.7752 12.6366 14.7744 12.9403 14.7488 13.166C14.7242 13.3833 14.6831 13.4525 14.6563 13.4852L15.4685 14.1507C15.6795 13.8932 15.7573 13.5914 15.7921 13.2843C15.826 12.9856 15.8252 12.6116 15.8252 12.1723H14.7752ZM13.0244 14.5449C13.4577 14.6172 13.8265 14.6794 14.1267 14.6951C14.4354 14.7113 14.7459 14.6841 15.0345 14.5183L14.5116 13.6078C14.4749 13.6289 14.3999 13.658 14.1815 13.6466C13.9547 13.6347 13.655 13.5855 13.197 13.5092L13.0244 14.5449ZM14.6563 13.4852C14.6159 13.5345 14.5669 13.5761 14.5116 13.6078L15.0345 14.5183C15.2003 14.4231 15.3473 14.2986 15.4685 14.1507L14.6563 13.4852ZM15.8252 8.20559C15.8252 7.85242 15.826 7.54347 15.797 7.28984C15.7665 7.0228 15.6986 6.76475 15.5279 6.52787L14.6761 7.14182C14.7036 7.17992 14.7347 7.24199 14.7538 7.40894C14.7744 7.58932 14.7752 7.82824 14.7752 8.20559H15.8252ZM13.6983 6.71141C14.0562 6.83074 14.2826 6.90704 14.4473 6.98362C14.5996 7.0545 14.6486 7.10372 14.6761 7.14182L15.5279 6.52787C15.3572 6.29099 15.1338 6.14496 14.8901 6.03159C14.6587 5.92392 14.3653 5.82697 14.0303 5.71529L13.6983 6.71141ZM3.2252 9.42759C3.2252 8.83224 3.22625 8.43734 3.26357 8.14974C3.29983 7.87027 3.35952 7.79459 3.39614 7.76114L2.68803 6.98585C2.38276 7.26467 2.2715 7.63542 2.2223 8.01463C2.17414 8.38571 2.1752 8.86173 2.1752 9.42759H3.2252ZM5.46143 7.05901C4.92461 6.88006 4.47335 6.72854 4.10608 6.65687C3.73078 6.58364 3.34386 6.57194 2.98282 6.77338L3.4944 7.69032C3.53771 7.66616 3.62838 7.63346 3.90499 7.68743C4.18962 7.74298 4.56459 7.86686 5.12939 8.05512L5.46143 7.05901ZM3.39614 7.76114C3.42605 7.73382 3.45903 7.71006 3.4944 7.69032L2.98282 6.77338C2.87669 6.83259 2.77777 6.90389 2.68803 6.98585L3.39614 7.76114ZM9.55831 10.9513C9.20461 11.1056 8.79578 11.1056 8.44208 10.9513L8.02223 11.9137C8.64364 12.1848 9.35675 12.1848 9.97816 11.9137L9.55831 10.9513ZM4.2752 5.78221C4.2752 6.97646 4.63924 8.25123 5.27811 9.34916C5.91683 10.4468 6.85138 11.4029 8.02223 11.9137L8.44208 10.9513C7.52146 10.5497 6.74004 9.77382 6.18565 8.82107C5.6314 7.86858 5.3252 6.77442 5.3252 5.78221H4.2752ZM12.6752 5.78221C12.6752 6.77442 12.369 7.86858 11.8147 8.82107C11.2604 9.77382 10.4789 10.5497 9.55831 10.9513L9.97816 11.9137C11.149 11.4029 12.0836 10.4468 12.7223 9.34916C13.3612 8.25123 13.7252 6.97646 13.7252 5.78221H12.6752ZM9.0002 2.31699C11.0555 2.31699 12.6752 3.89345 12.6752 5.78221H13.7252C13.7252 3.2635 11.5841 1.26699 9.0002 1.26699V2.31699ZM9.0002 1.26699C6.41632 1.26699 4.2752 3.2635 4.2752 5.78221H5.3252C5.3252 3.89345 6.94488 2.31699 9.0002 2.31699V1.26699ZM9.8752 5.99199C9.8752 6.47524 9.48344 6.86699 9.0002 6.86699V7.91699C10.0633 7.91699 10.9252 7.05514 10.9252 5.99199H9.8752ZM9.0002 6.86699C8.51695 6.86699 8.1252 6.47524 8.1252 5.99199H7.07519C7.07519 7.05514 7.93705 7.91699 9.0002 7.91699V6.86699ZM8.1252 5.99199C8.1252 5.50874 8.51695 5.11699 9.0002 5.11699V4.06699C7.93705 4.06699 7.07519 4.92884 7.07519 5.99199H8.1252ZM9.0002 5.11699C9.48344 5.11699 9.8752 5.50874 9.8752 5.99199H10.9252C10.9252 4.92884 10.0633 4.06699 9.0002 4.06699V5.11699Z" fill="#3C3E5F"/>
</svg>
