<svg width="18" height="16" viewBox="0 0 18 16" fill="none" xmlns="http://www.w3.org/2000/svg">
<path d="M4.975 2.4377C4.975 2.72764 5.21005 2.9627 5.5 2.9627C5.78995 2.9627 6.025 2.72764 6.025 2.4377H4.975ZM6.025 1.3877C6.025 1.09775 5.78995 0.862695 5.5 0.862695C5.21005 0.862695 4.975 1.09775 4.975 1.3877H6.025ZM11.975 2.4377C11.975 2.72764 12.2101 2.9627 12.5 2.9627C12.7899 2.9627 13.025 2.72764 13.025 2.4377H11.975ZM13.025 1.3877C13.025 1.09775 12.7899 0.862695 12.5 0.862695C12.2101 0.862695 11.975 1.09775 11.975 1.3877H13.025ZM2.35 5.4127C2.06005 5.4127 1.825 5.64775 1.825 5.9377C1.825 6.22764 2.06005 6.4627 2.35 6.4627V5.4127ZM15.65 6.4627C15.9399 6.4627 16.175 6.22764 16.175 5.9377C16.175 5.64775 15.9399 5.4127 15.65 5.4127V6.4627ZM7.6 2.9627H10.4V1.9127H7.6V2.9627ZM15.475 8.0377V9.4377H16.525V8.0377H15.475ZM10.4 14.5127H7.6V15.5627H10.4V14.5127ZM2.525 9.4377V8.0377H1.475V9.4377H2.525ZM7.6 14.5127C6.26523 14.5127 5.31696 14.5116 4.59759 14.4149C3.89333 14.3202 3.48758 14.1426 3.19133 13.8464L2.44887 14.5888C2.97272 15.1127 3.63699 15.3452 4.45768 15.4555C5.26328 15.5638 6.29491 15.5627 7.6 15.5627V14.5127ZM1.475 9.4377C1.475 10.7428 1.47389 11.7744 1.58219 12.58C1.69253 13.4007 1.92502 14.065 2.44887 14.5888L3.19133 13.8464C2.89509 13.5501 2.71752 13.1444 2.62283 12.4401C2.52611 11.7207 2.525 10.7725 2.525 9.4377H1.475ZM15.475 9.4377C15.475 10.7725 15.4739 11.7207 15.3772 12.4401C15.2825 13.1444 15.1049 13.5501 14.8087 13.8464L15.5511 14.5888C16.075 14.065 16.3075 13.4007 16.4178 12.58C16.5261 11.7744 16.525 10.7428 16.525 9.4377H15.475ZM10.4 15.5627C11.7051 15.5627 12.7367 15.5638 13.5423 15.4555C14.363 15.3452 15.0273 15.1127 15.5511 14.5888L14.8087 13.8464C14.5124 14.1426 14.1067 14.3202 13.4024 14.4149C12.683 14.5116 11.7348 14.5127 10.4 14.5127V15.5627ZM10.4 2.9627C11.7348 2.9627 12.683 2.96381 13.4024 3.06053C14.1067 3.15521 14.5124 3.33278 14.8087 3.62903L15.5511 2.88657C15.0273 2.36271 14.363 2.13023 13.5423 2.01989C12.7367 1.91158 11.7051 1.9127 10.4 1.9127V2.9627ZM16.525 8.0377C16.525 6.7326 16.5261 5.70097 16.4178 4.89538C16.3075 4.07468 16.075 3.41042 15.5511 2.88657L14.8087 3.62903C15.1049 3.92527 15.2825 4.33103 15.3772 5.03529C15.4739 5.75465 15.475 6.70292 15.475 8.0377H16.525ZM7.6 1.9127C6.29491 1.9127 5.26328 1.91158 4.45768 2.01989C3.63699 2.13023 2.97272 2.36271 2.44887 2.88657L3.19133 3.62903C3.48758 3.33278 3.89333 3.15521 4.59759 3.06053C5.31696 2.96381 6.26523 2.9627 7.6 2.9627V1.9127ZM2.525 8.0377C2.525 6.70292 2.52611 5.75465 2.62283 5.03529C2.71752 4.33103 2.89509 3.92527 3.19133 3.62903L2.44887 2.88657C1.92502 3.41042 1.69253 4.07468 1.58219 4.89538C1.47389 5.70097 1.475 6.7326 1.475 8.0377H2.525ZM6.025 2.4377V1.3877H4.975V2.4377H6.025ZM13.025 2.4377V1.3877H11.975V2.4377H13.025ZM2.35 6.4627H15.65V5.4127H2.35V6.4627Z" fill="#CCCCCC"/>
</svg>
