<svg width="54" height="64" viewBox="0 0 54 64" fill="none" xmlns="http://www.w3.org/2000/svg">
<g filter="url(#filter0_d_10284_162)">
<path d="M33.3569 47.1883L34.4231 50.4711L36.1121 49.8544L36.5121 48.9854L37.2689 49.3769L43.5099 47.1L37.8616 45.5447L33.3569 47.1883Z" fill="#1C274C"/>
<path d="M35.384 32.0953L39.712 45.4259L32.6736 47.996L28.3455 34.6653L19.2894 37.9669C18.8269 38.137 18.3373 38.2087 17.8487 38.178C17.36 38.1472 16.8818 38.0145 16.4416 37.7875C16.0014 37.5605 15.6077 37.2437 15.2832 36.8552C14.9586 36.4667 14.7096 36.0142 14.5502 35.5235C14.3909 35.0328 14.3245 34.5136 14.3548 33.9956C14.385 33.4777 14.5114 32.9712 14.7266 32.5051C14.9418 32.039 15.2417 31.6224 15.6089 31.2794C15.9762 30.9363 16.4038 30.6734 16.8671 30.5057L25.9232 27.2019C27.7899 26.5212 29.8352 26.6543 31.6094 27.5719C33.3836 28.4896 34.7413 30.1166 35.384 32.0953Z" fill="#8C5A5F"/>
<path d="M4.98335 49.6694L1.82715 50.5964L2.3037 52.4211L3.09796 52.8982L2.68286 53.675L4.44534 60.4173L6.2552 54.5363L4.98335 49.6694Z" fill="#1C274C"/>
<path d="M19.0705 52.7375L6.25407 56.5018L4.2666 48.8976L17.0831 45.1333L14.5258 35.3489C14.3929 34.8488 14.3545 34.3258 14.4127 33.8099C14.471 33.294 14.6248 32.7954 14.8653 32.3427C15.1058 31.89 15.4283 31.4922 15.8143 31.1719C16.2003 30.8517 16.6421 30.6155 17.1144 30.4767C17.5867 30.338 18.0803 30.2995 18.5666 30.3635C19.053 30.4276 19.5227 30.5928 19.9487 30.8497C20.3747 31.1066 20.7486 31.4502 21.049 31.8608C21.3494 32.2713 21.5703 32.7407 21.6991 33.242L24.2564 43.027C24.7833 45.0438 24.533 47.1998 23.5605 49.021C22.588 50.8421 20.9729 52.1792 19.0705 52.7381V52.7375Z" fill="#8C5A5F"/>
<path d="M18.9714 19.8424C20.0129 19.8424 20.8573 18.9473 20.8573 17.8432C20.8573 16.7391 20.0129 15.844 18.9714 15.844C17.9298 15.844 17.0854 16.7391 17.0854 17.8432C17.0854 18.9473 17.9298 19.8424 18.9714 19.8424Z" fill="#EAC4C7"/>
<path d="M26.7965 26.4124L12.9316 27.9031C12.9446 26.0719 13.5949 24.3102 14.758 22.9562C15.921 21.6021 17.5148 20.751 19.2334 20.5663C20.9521 20.3815 22.6746 20.876 24.0704 21.9549C25.4662 23.0339 26.437 24.6212 26.7965 26.4124Z" fill="#EAC4C7"/>
<path d="M5.31542 4.00116L12.8315 25.3518C12.936 25.653 13.0959 25.9292 13.3018 26.1645C13.5078 26.3998 13.7557 26.5894 14.0313 26.7224C14.3069 26.8554 14.6046 26.9291 14.9072 26.9393C15.2098 26.9494 15.5114 26.8958 15.7943 26.7816C16.0773 26.6674 16.3361 26.4948 16.5557 26.2738C16.7753 26.0528 16.9513 25.7879 17.0736 25.4943C17.1959 25.2006 17.2621 24.8842 17.2683 24.5633C17.2744 24.2424 17.2205 23.9234 17.1095 23.6248C17.1095 23.6248 11.444 7.97634 11.3002 7.78421V7.78145L12.5502 4.80613C12.5646 4.77254 12.5726 4.73626 12.5737 4.69939C12.5748 4.66252 12.5691 4.62577 12.5568 4.59125C12.5445 4.55674 12.5259 4.52513 12.5021 4.49824C12.4782 4.47136 12.4496 4.44972 12.4179 4.43456L12.3278 4.39205C12.2638 4.36185 12.191 4.35976 12.1256 4.38625C12.0601 4.41273 12.0071 4.46564 11.9783 4.53339L10.9825 6.89918L9.62838 2.34318C9.61283 2.27068 9.57086 2.20764 9.51163 2.16782C9.45241 2.128 9.38073 2.11462 9.31223 2.13061L9.2164 2.1527C9.14785 2.16893 9.08817 2.21333 9.05047 2.27617C9.01278 2.33901 9.00015 2.41513 9.01536 2.48783L9.48411 4.92649L8.93307 5.12691L7.96226 2.70867C7.93718 2.63932 7.88719 2.58335 7.82324 2.55302C7.75928 2.52269 7.6866 2.52049 7.62112 2.5469L7.52893 2.5839C7.46341 2.61037 7.41049 2.66332 7.38178 2.73112C7.35307 2.79893 7.35092 2.87604 7.37581 2.94553L8.25808 5.4002L7.6982 5.62546L6.81696 3.17189C6.79188 3.1024 6.74183 3.04629 6.67778 3.01586C6.61373 2.98543 6.54092 2.98317 6.4753 3.00957L6.38311 3.04656C6.31766 3.07326 6.26484 3.12636 6.23624 3.19424C6.20764 3.26213 6.20558 3.33926 6.23051 3.40875L7.11175 5.86287L6.71227 6.02409L5.90083 3.76541C5.87564 3.69601 5.82557 3.64 5.76156 3.60959C5.69755 3.57918 5.6248 3.57684 5.55917 3.60309L5.46698 3.64063C5.402 3.66743 5.34963 3.72034 5.32125 3.78785C5.29287 3.85536 5.29077 3.93202 5.31542 4.00116V4.00116Z" stroke="#1C274C" stroke-width="0.5" stroke-linecap="square" stroke-linejoin="round"/>
<path d="M8.00684 61.3569H52.1728" stroke="#1C274C" stroke-width="0.5" stroke-linecap="square" stroke-linejoin="round"/>
<path d="M41.7487 10.2308L39.3071 7.42798L36.0348 10.6312L38.4764 13.4341L41.7487 10.2308Z" fill="#B54653"/>
<path d="M48.7437 22.6464L47.3292 21.2921V18.3742H44.2808L43.7876 17.906L44.1844 17.4539C44.2755 17.3501 44.3464 17.2283 44.3931 17.0954C44.4397 16.9626 44.4613 16.8213 44.4564 16.6797C44.4516 16.538 44.4205 16.3988 44.3649 16.2699C44.3093 16.141 44.2303 16.0249 44.1324 15.9284L42.0392 13.864C41.8413 13.669 41.5786 13.5653 41.3086 13.5757C41.0386 13.586 40.7836 13.7096 40.5996 13.9193L39.2199 15.4917C39.1289 15.5954 39.058 15.7172 39.0113 15.8501C38.9646 15.9829 38.9431 16.1242 38.9479 16.2658C38.9528 16.4075 38.9839 16.5467 39.0395 16.6757C39.0951 16.8046 39.1741 16.9206 39.272 17.0171L41.3652 19.0815C41.563 19.2765 41.8258 19.3802 42.0958 19.3699C42.3657 19.3595 42.6208 19.2359 42.8048 19.0263L43.3027 18.4587L44.1521 19.2675V22.5725H45.35V61.3018H45.9229V22.5725H47.3292V22.3085L48.2667 23.2063L48.7437 22.6464Z" fill="#3C3E5F"/>
<path d="M19.7519 14.0411C19.9472 13.6721 20.0458 13.2544 20.0376 12.8313C20.0294 12.4083 19.9148 11.9952 19.7054 11.6349C19.4961 11.2746 19.1997 10.9802 18.847 10.7821C18.4943 10.584 18.098 10.4894 17.6992 10.5082C17.3005 10.527 16.9137 10.6584 16.5789 10.8888C16.2441 11.1193 15.9735 11.4404 15.7951 11.8189C15.6167 12.1974 15.537 12.6196 15.5642 13.0418C15.5914 13.4639 15.7246 13.8707 15.9499 14.22C15.6447 14.4261 15.3955 14.7128 15.2266 15.052C15.0578 15.3912 14.9752 15.7712 14.9869 16.1545C14.9987 16.5378 15.1045 16.9113 15.2937 17.2381C15.483 17.565 15.7494 17.8339 16.0665 18.0185C16.3837 18.2031 16.7407 18.2969 17.1024 18.2908C17.4642 18.2847 17.8182 18.1788 18.1296 17.9836C18.441 17.7883 18.6991 17.5105 18.8785 17.1774C19.0578 16.8443 19.1522 16.4675 19.1524 16.0839C19.1524 16.0784 19.1524 16.0723 19.1524 16.0668C19.2871 16.1609 19.4405 16.2206 19.6006 16.2412C19.7608 16.2618 19.9232 16.2426 20.0752 16.1853C20.2271 16.128 20.3644 16.034 20.4763 15.9109C20.5882 15.7877 20.6715 15.6387 20.7198 15.4755C20.7681 15.3124 20.78 15.1396 20.7545 14.9707C20.7291 14.8019 20.667 14.6416 20.5731 14.5026C20.4793 14.3635 20.3563 14.2495 20.2138 14.1694C20.0713 14.0893 19.9132 14.0454 19.7519 14.0411Z" fill="#1C274C"/>
<path d="M32.3013 25.2627C32.3013 25.2627 33.246 25.2158 33.6794 23.5876C33.6794 23.5876 34.383 25.2263 35.3283 25.1788C35.3283 25.1788 33.7825 25.9253 33.896 27.056C33.896 27.0577 33.3299 25.6801 32.3013 25.2627Z" stroke="#3C3E5F" stroke-width="0.5" stroke-linejoin="bevel"/>
<path d="M1.86084 14.8695C1.86084 14.8695 3.39259 14.7933 4.09414 12.1548C4.09414 12.1548 5.23475 14.8099 6.76649 14.7337C6.76649 14.7337 4.26184 15.9428 4.4457 17.778C4.44622 17.7775 3.52748 15.5453 1.86084 14.8695Z" stroke="#3C3E5F" stroke-width="0.5" stroke-linejoin="bevel"/>
<path d="M19.6211 20.4457C19.6211 20.4457 20.4388 21.0575 20.5023 22.4769C20.5049 22.5322 20.5065 22.5934 20.5065 22.6542L22.9544 22.1021C22.9544 22.1021 21.6002 19.728 19.6211 20.4457Z" fill="black"/>
<path d="M28.1107 25.6908C28.1114 24.5038 27.7199 23.354 27.0043 22.4411C26.2886 21.5282 25.294 20.9098 24.193 20.6934C23.0921 20.4769 21.9544 20.6759 20.9775 21.256C20.0006 21.8361 19.2462 22.7605 18.8452 23.8688C18.5496 23.832 18.2522 23.8135 17.9546 23.8136C16.4141 23.8151 14.9115 24.3198 13.6514 25.2591C12.3912 26.1984 11.4348 27.5266 10.9124 29.0629C10.3899 30.5991 10.3268 32.2687 10.7317 33.8443C11.1365 35.4199 11.9896 36.825 13.1749 37.8681C14.3601 38.9113 15.8198 39.5418 17.3552 39.6739C18.8907 39.806 20.4272 39.4333 21.7556 38.6064C23.084 37.7795 24.1397 36.5386 24.7789 35.0528C25.4182 33.567 25.6099 31.9085 25.3279 30.3031C26.1589 29.8963 26.8626 29.2458 27.3557 28.4284C27.8489 27.611 28.1109 26.661 28.1107 25.6908Z" fill="#B54653"/>
<path d="M14.4949 30.6711L13.9395 31.1719L17.2462 35.2935L17.8016 34.7928L14.4949 30.6711Z" fill="black"/>
<path d="M37.9645 12.8431L36.5515 11.2205L24.1371 23.3718C23.5872 23.1219 22.9729 23.0804 22.3975 23.2541C21.8221 23.4279 21.3207 23.8063 20.9776 24.3259C20.6345 24.8454 20.4706 25.4744 20.5135 26.107C20.5564 26.7395 20.8035 27.3372 21.2132 27.7994C21.6228 28.2616 22.1702 28.5601 22.7631 28.6448C23.356 28.7296 23.9583 28.5953 24.4688 28.2646C24.9793 27.9339 25.3669 27.427 25.5662 26.829C25.7656 26.231 25.7647 25.5785 25.5636 24.9812L37.9645 12.8431Z" fill="black"/>
<path d="M15.1421 32.2608L36.0272 12.6057" stroke="black" stroke-width="0.5" stroke-linecap="square" stroke-linejoin="round"/>
<path d="M15.3506 32.9234L36.2357 13.2683" stroke="black" stroke-width="0.5" stroke-linecap="square" stroke-linejoin="round"/>
<path d="M15.9756 33.1995L36.8607 13.5444" stroke="black" stroke-width="0.5" stroke-linecap="square" stroke-linejoin="round"/>
<path d="M30.5413 52.5272C30.6737 52.5272 30.7809 52.4135 30.7809 52.2733C30.7809 52.133 30.6737 52.0193 30.5413 52.0193C30.409 52.0193 30.3018 52.133 30.3018 52.2733C30.3018 52.4135 30.409 52.5272 30.5413 52.5272Z" fill="black"/>
<path d="M30.5413 54.153C30.6737 54.153 30.7809 54.0393 30.7809 53.899C30.7809 53.7587 30.6737 53.645 30.5413 53.645C30.409 53.645 30.3018 53.7587 30.3018 53.899C30.3018 54.0393 30.409 54.153 30.5413 54.153Z" fill="black"/>
<path d="M29.0076 54.153C29.14 54.153 29.2472 54.0393 29.2472 53.899C29.2472 53.7587 29.14 53.645 29.0076 53.645C28.8753 53.645 28.7681 53.7587 28.7681 53.899C28.7681 54.0393 28.8753 54.153 29.0076 54.153Z" fill="black"/>
<path d="M27.474 54.153C27.6063 54.153 27.7135 54.0393 27.7135 53.899C27.7135 53.7587 27.6063 53.645 27.474 53.645C27.3416 53.645 27.2344 53.7587 27.2344 53.899C27.2344 54.0393 27.3416 54.153 27.474 54.153Z" fill="black"/>
<path d="M25.9403 54.153C26.0726 54.153 26.1798 54.0393 26.1798 53.899C26.1798 53.7587 26.0726 53.645 25.9403 53.645C25.8079 53.645 25.7007 53.7587 25.7007 53.899C25.7007 54.0393 25.8079 54.153 25.9403 54.153Z" fill="black"/>
<path d="M29.7747 53.3405C29.9071 53.3405 30.0143 53.2268 30.0143 53.0865C30.0143 52.9462 29.9071 52.8325 29.7747 52.8325C29.6424 52.8325 29.5352 52.9462 29.5352 53.0865C29.5352 53.2268 29.6424 53.3405 29.7747 53.3405Z" fill="black"/>
<path d="M28.241 53.3405C28.3734 53.3405 28.4806 53.2268 28.4806 53.0865C28.4806 52.9462 28.3734 52.8325 28.241 52.8325C28.1087 52.8325 28.0015 52.9462 28.0015 53.0865C28.0015 53.2268 28.1087 53.3405 28.241 53.3405Z" fill="black"/>
<path d="M26.7069 53.3405C26.8392 53.3405 26.9464 53.2268 26.9464 53.0865C26.9464 52.9462 26.8392 52.8325 26.7069 52.8325C26.5745 52.8325 26.4673 52.9462 26.4673 53.0865C26.4673 53.2268 26.5745 53.3405 26.7069 53.3405Z" fill="black"/>
<path d="M25.1732 53.3405C25.3055 53.3405 25.4128 53.2268 25.4128 53.0865C25.4128 52.9462 25.3055 52.8325 25.1732 52.8325C25.0409 52.8325 24.9336 52.9462 24.9336 53.0865C24.9336 53.2268 25.0409 53.3405 25.1732 53.3405Z" fill="black"/>
<path d="M29.0076 52.5272C29.14 52.5272 29.2472 52.4135 29.2472 52.2733C29.2472 52.133 29.14 52.0193 29.0076 52.0193C28.8753 52.0193 28.7681 52.133 28.7681 52.2733C28.7681 52.4135 28.8753 52.5272 29.0076 52.5272Z" fill="black"/>
<path d="M27.474 52.5272C27.6063 52.5272 27.7135 52.4135 27.7135 52.2733C27.7135 52.133 27.6063 52.0193 27.474 52.0193C27.3416 52.0193 27.2344 52.133 27.2344 52.2733C27.2344 52.4135 27.3416 52.5272 27.474 52.5272Z" fill="black"/>
<path d="M25.9403 52.5272C26.0726 52.5272 26.1798 52.4135 26.1798 52.2733C26.1798 52.133 26.0726 52.0193 25.9403 52.0193C25.8079 52.0193 25.7007 52.133 25.7007 52.2733C25.7007 52.4135 25.8079 52.5272 25.9403 52.5272Z" fill="black"/>
<path d="M29.7747 51.7145C29.9071 51.7145 30.0143 51.6008 30.0143 51.4605C30.0143 51.3202 29.9071 51.2065 29.7747 51.2065C29.6424 51.2065 29.5352 51.3202 29.5352 51.4605C29.5352 51.6008 29.6424 51.7145 29.7747 51.7145Z" fill="black"/>
<path d="M28.241 51.7145C28.3734 51.7145 28.4806 51.6008 28.4806 51.4605C28.4806 51.3202 28.3734 51.2065 28.241 51.2065C28.1087 51.2065 28.0015 51.3202 28.0015 51.4605C28.0015 51.6008 28.1087 51.7145 28.241 51.7145Z" fill="black"/>
<path d="M26.7069 51.7145C26.8392 51.7145 26.9464 51.6008 26.9464 51.4605C26.9464 51.3202 26.8392 51.2065 26.7069 51.2065C26.5745 51.2065 26.4673 51.3202 26.4673 51.4605C26.4673 51.6008 26.5745 51.7145 26.7069 51.7145Z" fill="black"/>
<path d="M27.474 55.7789C27.6063 55.7789 27.7135 55.6652 27.7135 55.525C27.7135 55.3847 27.6063 55.271 27.474 55.271C27.3416 55.271 27.2344 55.3847 27.2344 55.525C27.2344 55.6652 27.3416 55.7789 27.474 55.7789Z" fill="black"/>
<path d="M29.7747 54.9657C29.9071 54.9657 30.0143 54.852 30.0143 54.7117C30.0143 54.5715 29.9071 54.4578 29.7747 54.4578C29.6424 54.4578 29.5352 54.5715 29.5352 54.7117C29.5352 54.852 29.6424 54.9657 29.7747 54.9657Z" fill="black"/>
<path d="M28.241 54.9657C28.3734 54.9657 28.4806 54.852 28.4806 54.7117C28.4806 54.5715 28.3734 54.4578 28.241 54.4578C28.1087 54.4578 28.0015 54.5715 28.0015 54.7117C28.0015 54.852 28.1087 54.9657 28.241 54.9657Z" fill="black"/>
<path d="M26.7069 54.9657C26.8392 54.9657 26.9464 54.852 26.9464 54.7117C26.9464 54.5715 26.8392 54.4578 26.7069 54.4578C26.5745 54.4578 26.4673 54.5715 26.4673 54.7117C26.4673 54.852 26.5745 54.9657 26.7069 54.9657Z" fill="black"/>
<path d="M31.3084 53.3405C31.4407 53.3405 31.548 53.2268 31.548 53.0865C31.548 52.9462 31.4407 52.8325 31.3084 52.8325C31.1761 52.8325 31.0688 52.9462 31.0688 53.0865C31.0688 53.2268 31.1761 53.3405 31.3084 53.3405Z" fill="black"/>
</g>
<defs>
<filter id="filter0_d_10284_162" x="0.76709" y="-0.374023" width="52.6558" height="63.481" filterUnits="userSpaceOnUse" color-interpolation-filters="sRGB">
<feFlood flood-opacity="0" result="BackgroundImageFix"/>
<feColorMatrix in="SourceAlpha" type="matrix" values="0 0 0 0 0 0 0 0 0 0 0 0 0 0 0 0 0 0 127 0" result="hardAlpha"/>
<feOffset dy="0.5"/>
<feGaussianBlur stdDeviation="0.5"/>
<feComposite in2="hardAlpha" operator="out"/>
<feColorMatrix type="matrix" values="0 0 0 0 0 0 0 0 0 0 0 0 0 0 0 0 0 0 0.05 0"/>
<feBlend mode="normal" in2="BackgroundImageFix" result="effect1_dropShadow_10284_162"/>
<feBlend mode="normal" in="SourceGraphic" in2="effect1_dropShadow_10284_162" result="shape"/>
</filter>
</defs>
</svg>
