<svg width="12" height="22" viewBox="0 0 12 22" fill="none" xmlns="http://www.w3.org/2000/svg">
<path d="M3.5 8.56055V13.063M6.42898 15.063H5.11052C3.1728 15.063 2.20394 15.063 1.60197 14.4406C1 13.8182 1 12.8165 1 10.813C1 8.80952 1 7.80778 1.60197 7.18539C2.20394 6.56299 3.1728 6.56299 5.11052 6.56299H6.42898C7.54271 6.56299 8.09958 6.56299 8.56443 6.82937C9.02928 7.09576 9.32442 7.584 9.91469 8.56049L10.2551 9.12362C10.7517 9.94514 11 10.3559 11 10.813C11 11.2701 10.7517 11.6808 10.2551 12.5024L9.91469 13.0655C9.32442 14.042 9.02928 14.5302 8.56443 14.7966C8.09958 15.063 7.54271 15.063 6.42898 15.063Z" stroke="#3C3E5F" stroke-width="0.75" stroke-linecap="round"/>
</svg>
