<svg width="16" height="16" viewBox="0 0 16 16" fill="none" xmlns="http://www.w3.org/2000/svg">
<path d="M1.59902 4.68649L2.11057 4.80454L1.59902 4.68649ZM4.7734 1.5121L4.89145 2.02366L4.7734 1.5121ZM4.19068 12.0897L4.56192 11.7184L4.19068 12.0897ZM8.18362 14.9131V15.4381V14.9131ZM12.1766 4.10377L12.5478 3.73254L12.1766 4.10377ZM15 8.09671H15.525H15ZM10.8958 2.82302L10.5246 3.19426H10.5246L10.8958 2.82302ZM5.63313 1.3137L5.51508 0.80215L5.63313 1.3137ZM2.90994 10.8089L2.53871 11.1801L2.90994 10.8089ZM1.40062 5.54621L0.889064 5.42816H0.889064L1.40062 5.54621ZM7.30799 12.0917C7.10296 12.2967 7.10297 12.6291 7.308 12.8342C7.51303 13.0392 7.84544 13.0392 8.05046 12.8341L7.30799 12.0917ZM12.9358 7.94867C13.1408 7.74364 13.1408 7.41122 12.9358 7.2062C12.7307 7.00118 12.3983 7.00119 12.1933 7.20622L12.9358 7.94867ZM10.5246 3.19426L11.8053 4.475L12.5478 3.73254L11.267 2.45179L10.5246 3.19426ZM4.56192 11.7184L3.28117 10.4377L2.53871 11.1801L3.81945 12.4609L4.56192 11.7184ZM1.91217 5.66426L2.11057 4.80454L1.08746 4.56843L0.889064 5.42816L1.91217 5.66426ZM4.89145 2.02366L5.75118 1.82526L5.51508 0.80215L4.65535 1.00055L4.89145 2.02366ZM2.11057 4.80454C2.25774 4.16683 2.35976 3.72766 2.47488 3.39222C2.58603 3.06838 2.6956 2.88517 2.83384 2.74693L2.09138 2.00447C1.80019 2.29566 1.62268 2.64073 1.48175 3.05136C1.34479 3.4504 1.22974 3.95191 1.08746 4.56843L2.11057 4.80454ZM4.65535 1.00055C4.03882 1.14282 3.53732 1.25788 3.13828 1.39483C2.72764 1.53577 2.38257 1.71328 2.09138 2.00447L2.83384 2.74693C2.97209 2.60868 3.15529 2.49911 3.47913 2.38797C3.81457 2.27284 4.25374 2.17082 4.89145 2.02366L4.65535 1.00055ZM11.8053 11.7184C10.8537 12.6701 10.1765 13.3457 9.59435 13.7898C9.02428 14.2248 8.60743 14.3881 8.18362 14.3881V15.4381C8.92932 15.4381 9.56779 15.1308 10.2313 14.6246C10.8826 14.1277 11.6171 13.3915 12.5478 12.4609L11.8053 11.7184ZM3.81945 12.4609C4.7501 13.3915 5.48465 14.1277 6.13599 14.6246C6.79945 15.1308 7.43793 15.4381 8.18362 15.4381V14.3881C7.75981 14.3881 7.34296 14.2248 6.7729 13.7898C6.19073 13.3457 5.51356 12.6701 4.56192 11.7184L3.81945 12.4609ZM11.8053 4.475C12.757 5.42664 13.4326 6.10381 13.8768 6.68599C14.3117 7.25605 14.475 7.6729 14.475 8.09671H15.525C15.525 7.35101 15.2177 6.71254 14.7115 6.04908C14.2146 5.39773 13.4784 4.66319 12.5478 3.73254L11.8053 4.475ZM12.5478 12.4609C13.4784 11.5302 14.2146 10.7957 14.7115 10.1443C15.2177 9.48088 15.525 8.84241 15.525 8.09671H14.475C14.475 8.52052 14.3117 8.93737 13.8768 9.50743C13.4326 10.0896 12.757 10.7668 11.8053 11.7184L12.5478 12.4609ZM11.267 2.45179C10.7331 1.91784 10.3072 1.49113 9.92516 1.17585C9.53453 0.853456 9.16018 0.621689 8.71592 0.494278L8.42645 1.50359C8.68402 1.57746 8.93104 1.7168 9.2568 1.98566C9.59119 2.26164 9.97667 2.64633 10.5246 3.19426L11.267 2.45179ZM5.75118 1.82526C6.50621 1.65102 7.03698 1.5291 7.46681 1.4723C7.88556 1.41696 8.16888 1.42972 8.42645 1.50359L8.71592 0.494278C8.27166 0.366866 7.83136 0.364993 7.32924 0.431351C6.83821 0.496244 6.25086 0.632353 5.51508 0.80215L5.75118 1.82526ZM3.28117 10.4377C2.73325 9.88975 2.34856 9.50428 2.07258 9.16989C1.80371 8.84412 1.66437 8.5971 1.5905 8.33954L0.581192 8.629C0.708604 9.07326 0.94037 9.44762 1.26276 9.83825C1.57804 10.2203 2.00476 10.6462 2.53871 11.1801L3.28117 10.4377ZM0.889064 5.42816C0.719267 6.16395 0.583158 6.7513 0.518265 7.24233C0.451907 7.74445 0.45378 8.18474 0.581192 8.629L1.5905 8.33954C1.51663 8.08197 1.50387 7.79864 1.55921 7.3799C1.61602 6.95006 1.73794 6.4193 1.91217 5.66426L0.889064 5.42816ZM6.24366 5.10968C6.58536 5.45139 6.58536 6.00541 6.24366 6.34712L6.98612 7.08958C7.73788 6.33783 7.73788 5.11898 6.98612 4.36722L6.24366 5.10968ZM6.24366 6.34712C5.90195 6.68883 5.34793 6.68883 5.00622 6.34712L4.26376 7.08958C5.01552 7.84134 6.23436 7.84134 6.98612 7.08958L6.24366 6.34712ZM5.00622 6.34712C4.66451 6.00541 4.66451 5.45139 5.00622 5.10968L4.26376 4.36722C3.512 5.11898 3.512 6.33783 4.26376 7.08958L5.00622 6.34712ZM5.00622 5.10968C5.34793 4.76798 5.90195 4.76798 6.24366 5.10968L6.98612 4.36722C6.23436 3.61546 5.01552 3.61546 4.26376 4.36722L5.00622 5.10968ZM8.05046 12.8341L12.9358 7.94867L12.1933 7.20622L7.30799 12.0917L8.05046 12.8341Z" fill="#3C3E5F"/>
</svg>
