<svg width="8" height="7" viewBox="0 0 8 7" fill="none" xmlns="http://www.w3.org/2000/svg">
<path d="M4.60149 1.31299H3.3985C2.26432 1.31299 1.69722 1.31299 1.34487 1.6791C1.10227 1.93119 1.02671 2.28905 1.00317 2.8722C0.998506 2.98784 0.996172 3.04567 1.0169 3.08425C1.03763 3.12282 1.1204 3.17097 1.28592 3.26726C1.46976 3.37419 1.59402 3.57851 1.59402 3.81299C1.59402 4.04746 1.46976 4.25178 1.28592 4.35872C1.1204 4.45501 1.03763 4.50315 1.0169 4.54173C0.996172 4.58031 0.998506 4.63813 1.00317 4.75378C1.02671 5.33693 1.10227 5.69479 1.34487 5.94687C1.69722 6.31299 2.26432 6.31299 3.3985 6.31299H4.60149C5.73568 6.31299 6.30278 6.31299 6.65513 5.94687C6.89773 5.69479 6.97329 5.33693 6.99683 4.75378C7.00149 4.63813 7.00383 4.58031 6.9831 4.54173C6.96237 4.50315 6.8796 4.45501 6.71408 4.35872C6.53024 4.25178 6.40598 4.04746 6.40598 3.81299C6.40598 3.57851 6.53024 3.37419 6.71408 3.26726C6.8796 3.17097 6.96237 3.12282 6.9831 3.08425C7.00383 3.04567 7.00149 2.98784 6.99683 2.8722C6.97329 2.28905 6.89773 1.93119 6.65513 1.6791C6.30278 1.31299 5.73568 1.31299 4.60149 1.31299Z" stroke="#3C3E5F" stroke-width="0.375"/>
</svg>
