<svg width="14" height="17" viewBox="0 0 14 17" fill="none" xmlns="http://www.w3.org/2000/svg">
<path d="M8.02395 15.2848L7.80165 14.8092L8.02395 15.2848ZM5.97585 15.2848L6.19815 14.8092L5.97585 15.2848ZM7.80165 14.8092C7.29247 15.0472 6.70734 15.0472 6.19815 14.8092L5.75354 15.7604C6.54451 16.1301 7.4553 16.1301 8.24626 15.7604L7.80165 14.8092ZM0.874902 7.213C0.874902 8.86857 1.34672 10.6462 2.18079 12.182C3.01384 13.7159 4.23096 15.0487 5.75354 15.7604L6.19815 14.8092C4.93212 14.2174 3.86127 13.0762 3.1035 11.6809C2.34675 10.2875 1.9249 8.68095 1.9249 7.213H0.874902ZM12.0749 7.213C12.0749 8.68095 11.6531 10.2875 10.8963 11.6809C10.1385 13.0762 9.06769 14.2174 7.80165 14.8092L8.24626 15.7604C9.76884 15.0487 10.986 13.7159 11.819 12.182C12.6531 10.6462 13.1249 8.86857 13.1249 7.213H12.0749ZM6.9999 2.0377C9.794 2.0377 12.0749 4.34593 12.0749 7.213H13.1249C13.1249 3.78369 10.3914 0.987695 6.9999 0.987695V2.0377ZM6.9999 0.987695C3.60841 0.987695 0.874902 3.78369 0.874902 7.213H1.9249C1.9249 4.34593 4.20581 2.0377 6.9999 2.0377V0.987695ZM8.5749 7.1127C8.5749 7.98254 7.86975 8.6877 6.9999 8.6877V9.73769C8.44965 9.73769 9.6249 8.56244 9.6249 7.1127H8.5749ZM6.9999 8.6877C6.13005 8.6877 5.4249 7.98254 5.4249 7.1127H4.3749C4.3749 8.56244 5.55015 9.73769 6.9999 9.73769V8.6877ZM5.4249 7.1127C5.4249 6.24285 6.13005 5.5377 6.9999 5.5377V4.4877C5.55015 4.4877 4.3749 5.66295 4.3749 7.1127H5.4249ZM6.9999 5.5377C7.86975 5.5377 8.5749 6.24285 8.5749 7.1127H9.6249C9.6249 5.66295 8.44965 4.4877 6.9999 4.4877V5.5377Z" fill="#CCCCCC"/>
</svg>
