<svg xmlns="http://www.w3.org/2000/svg" width="22" height="20" fill="none"><path fill="#08050A" d="m7.962 17.018-.465.59.465-.59ZM11 3.608l-.54.52a.75.75 0 0 0 1.08 0l-.54-.52Zm3.038 13.41-.464-.589.464.59Zm-5.612-.589c-1.516-1.194-3.173-2.361-4.488-3.842C2.65 11.136 1.75 9.442 1.75 7.245H.25c0 2.665 1.11 4.699 2.567 6.338 1.43 1.611 3.254 2.9 4.68 4.024l.93-1.178ZM1.75 7.245c0-2.151 1.215-3.955 2.874-4.713 1.612-.737 3.778-.542 5.836 1.596l1.08-1.04C9.1.551 6.264.133 4 1.168 1.786 2.18.25 4.533.25 7.245h1.5Zm5.747 10.362c.513.404 1.063.835 1.62 1.16.557.326 1.193.59 1.883.59v-1.5c-.31 0-.674-.12-1.126-.385-.453-.264-.922-.628-1.448-1.043l-.929 1.178Zm7.006 0c1.426-1.124 3.25-2.413 4.68-4.024 1.457-1.64 2.567-3.673 2.567-6.338h-1.5c0 2.197-.9 3.89-2.188 5.342-1.315 1.48-2.972 2.648-4.488 3.842l.929 1.178ZM21.75 7.245c0-2.712-1.535-5.065-3.75-6.077-2.264-1.035-5.098-.617-7.54 1.92l1.08 1.04c2.058-2.138 4.224-2.333 5.836-1.596 1.659.758 2.874 2.562 2.874 4.713h1.5Zm-8.176 9.184c-.526.415-.995.78-1.448 1.043-.452.265-.816.386-1.126.386v1.5c.69 0 1.326-.265 1.883-.59.558-.326 1.107-.757 1.62-1.16l-.929-1.179Z"/></svg>