<svg xmlns="http://www.w3.org/2000/svg" width="100" height="100" fill="none"><rect width="100" height="100" fill="#E2E6EC" rx="5"/><path fill="#CCC" fill-rule="evenodd" d="M28.667 37A4.333 4.333 0 0 1 33 32.667h34A4.333 4.333 0 0 1 71.333 37v26.667A4.333 4.333 0 0 1 67 68H33a4.333 4.333 0 0 1-4.333-4.333V37ZM33 34.667A2.333 2.333 0 0 0 30.667 37v26.667A2.333 2.333 0 0 0 33 66h34a2.333 2.333 0 0 0 2.333-2.333V37A2.333 2.333 0 0 0 67 34.667H33Z" clip-rule="evenodd"/><circle cx="38.667" cy="42" r="4.333" fill="#CCC"/><path fill="#CCC" d="M34.333 60.333v-1.976c0-.442.176-.866.489-1.178l5.388-5.389a1.667 1.667 0 0 1 2.3-.054l1.33 1.21a1.667 1.667 0 0 0 2.283-.038l9.699-9.43a1.667 1.667 0 0 1 2.34.017l7.683 7.684c.313.312.488.736.488 1.178v7.976c0 .92-.746 1.667-1.666 1.667H36c-.92 0-1.667-.746-1.667-1.667Z"/></svg>