<svg width="58" height="40" viewBox="0 0 58 40" fill="none" xmlns="http://www.w3.org/2000/svg">
<rect x="0.5" y="0.5" width="57" height="39" rx="5.5" fill="white"/>
<rect x="0.5" y="0.5" width="57" height="39" rx="5.5" stroke="#F2F4F7"/>
<path fill-rule="evenodd" clip-rule="evenodd" d="M26.7631 25.88V20.9889H29.2875C30.3219 20.9889 31.195 20.6423 31.9067 19.9587L32.0776 19.7854C33.3777 18.3701 33.2923 16.1653 31.9067 14.8558C31.214 14.1626 30.2649 13.7871 29.2875 13.8064H25.2352V25.88H26.7631ZM26.7633 19.5061V15.289H29.326C29.8765 15.289 30.3986 15.5008 30.7877 15.8859C31.6135 16.6947 31.6325 18.0426 30.8352 18.8803C30.446 19.2943 29.8955 19.5254 29.326 19.5061H26.7633ZM39.2047 18.2641C38.5499 17.6576 37.6578 17.3495 36.5285 17.3495C35.0765 17.3495 33.9851 17.8887 33.2639 18.9574L34.6115 19.8143C35.105 19.0825 35.7788 18.7167 36.6329 18.7167C37.1738 18.7167 37.6958 18.9189 38.1038 19.2847C38.5024 19.6313 38.7302 20.132 38.7302 20.6615V21.0178C38.1418 20.6904 37.4016 20.5171 36.4905 20.5171C35.4276 20.5171 34.5735 20.7675 33.9377 21.2777C33.3018 21.788 32.9792 22.462 32.9792 23.3189C32.9602 24.0988 33.2923 24.8402 33.8807 25.3408C34.4786 25.88 35.2378 26.1496 36.1299 26.1496C37.1833 26.1496 38.0184 25.6778 38.6543 24.7342H38.7207V25.88H40.1822V20.7867C40.1822 19.718 39.8595 18.8707 39.2047 18.2641ZM35.0578 24.3588C34.7445 24.1277 34.5547 23.7522 34.5547 23.3478C34.5547 22.8953 34.7635 22.5198 35.1717 22.2213C35.5893 21.9229 36.1113 21.7688 36.7283 21.7688C37.5825 21.7592 38.247 21.9517 38.7215 22.3369C38.7215 22.9916 38.4653 23.5596 37.9622 24.041C37.5066 24.5032 36.8897 24.7632 36.2442 24.7632C35.8171 24.7728 35.3995 24.6284 35.0578 24.3588ZM43.4658 29.5098L48.5715 17.6191H46.9107L44.5477 23.55H44.5192L42.0992 17.6191H40.4385L43.7885 25.3504L41.8904 29.5098H43.4658Z" fill="#3C4043"/>
<path d="M21.4882 19.9298C21.4882 19.458 21.4502 18.9863 21.3743 18.5241H14.9305V21.1911H18.6221C18.4703 22.048 17.9768 22.8183 17.2556 23.2997V25.0327H19.4573C20.7479 23.8292 21.4882 22.048 21.4882 19.9298Z" fill="#4285F4"/>
<path d="M14.9308 26.7081C16.7719 26.7081 18.3282 26.0919 19.4576 25.0328L17.2559 23.2997C16.639 23.7233 15.8513 23.964 14.9308 23.964C13.1466 23.964 11.6377 22.7413 11.0968 21.1045H8.82861V22.8953C9.98641 25.235 12.3495 26.7081 14.9308 26.7081Z" fill="#34A853"/>
<path d="M11.097 21.1045C10.8123 20.2476 10.8123 19.3137 11.097 18.4472V16.666H8.82851C7.85087 18.6205 7.85087 20.9312 8.82851 22.8857L11.097 21.1045Z" fill="#FBBC04"/>
<path d="M14.9308 15.5876C15.9083 15.5683 16.8478 15.9438 17.5501 16.6274L19.505 14.644C18.2618 13.4694 16.6295 12.8243 14.9308 12.8436C12.3495 12.8436 9.98641 14.3263 8.82861 16.6659L11.0968 18.4568C11.6377 16.8103 13.1466 15.5876 14.9308 15.5876Z" fill="#EA4335"/>
</svg>
