<svg xmlns="http://www.w3.org/2000/svg" width="27" height="13" fill="none"><path fill="#CCC" d="M4.498 12.216c-1.128 0-2.016-.516-2.664-1.548C1.198 9.624.88 8.142.88 6.222c0-1.932.318-3.402.954-4.41C2.482.804 3.37.3 4.498.3c1.14 0 2.028.51 2.664 1.53.636 1.008.954 2.472.954 4.392 0 1.92-.318 3.402-.954 4.446-.636 1.032-1.524 1.548-2.664 1.548Zm0-1.062c.468 0 .876-.174 1.224-.522.36-.348.636-.888.828-1.62.192-.732.288-1.662.288-2.79 0-1.14-.096-2.064-.288-2.772-.192-.72-.468-1.248-.828-1.584a1.706 1.706 0 0 0-1.224-.504c-.468 0-.876.168-1.224.504-.348.336-.624.864-.828 1.584-.192.708-.288 1.632-.288 2.772 0 1.128.096 2.058.288 2.79.204.732.48 1.272.828 1.62.348.348.756.522 1.224.522Zm8.608 1.062c-.612 0-1.152-.072-1.62-.216a4.912 4.912 0 0 1-1.206-.594 7.126 7.126 0 0 1-.9-.756l.666-.864c.348.336.75.642 1.206.918.468.276 1.05.414 1.746.414.48 0 .918-.114 1.314-.342.396-.228.708-.546.936-.954.228-.408.342-.888.342-1.44 0-.828-.228-1.47-.684-1.926-.456-.468-1.068-.702-1.836-.702-.408 0-.762.06-1.062.18a5.96 5.96 0 0 0-.954.522l-.72-.45.378-5.49h5.634V1.65h-4.482l-.324 3.582c.288-.156.576-.276.864-.36.288-.096.612-.144.972-.144.66 0 1.254.132 1.782.396.54.252.966.642 1.278 1.17.324.528.486 1.206.486 2.034 0 .828-.18 1.536-.54 2.124a3.563 3.563 0 0 1-1.422 1.314c-.576.3-1.194.45-1.854.45Zm9.025-4.212V6.978h4.086v1.026H22.13Z"/></svg>