<svg xmlns="http://www.w3.org/2000/svg" width="12" height="11" fill="none"><path fill="#CCC" d="M.633 10.5V.51h4.392c.636 0 1.158.132 1.566.396.42.252.726.648.918 1.188.192.528.288 1.2.288 2.016v2.772H6.68V4.056c0-.804-.12-1.41-.36-1.818-.24-.42-.684-.63-1.332-.63h-2.97V10.5H.633Zm3.078 0V3.948h1.116v5.346c1.092-.048 1.992-.198 2.7-.45.708-.264 1.254-.648 1.638-1.152.384-.516.648-1.146.792-1.89.156-.756.234-1.644.234-2.664L10.155.51h1.386l.018 2.628c.012 1.74-.234 3.15-.738 4.23-.504 1.08-1.332 1.872-2.484 2.376-1.14.492-2.682.744-4.626.756Z"/></svg>