<?xml version="1.0" encoding="UTF-8"?>
<svg id="Layer_1" data-name="Layer 1" xmlns="http://www.w3.org/2000/svg" viewBox="0 0 792 612">
  <defs>
    <style>
      .cls-1 {
        fill: none;
      }

      .cls-2 {
        fill: #b54653;
      }
    </style>
  </defs>
  <path class="cls-2" d="M1168.3,757.55c0,137.68-182.28,249.3-407.14,249.3s-530.32-117.5-490.48-249.3c43.35-143.45,265.63-249.3,490.48-249.3s407.14,111.61,407.14,249.3Z"/>
  <path class="cls-2" d="M284.73,519.71c7.75-4.85,14.18-11.6,18.62-19.6l-2.03-.27c2.32,7.76,5.77,15.18,10.3,21.9,.32,.47,1.39,1.62,1.2,2.02-.12,.26-.84,.61-1.07,.77-.37,.26-.73,.52-1.09,.78-1.44,1.03-2.86,2.08-4.25,3.17-2.75,2.16-5.38,4.51-7.6,7.23-2.4,2.95-4.26,6.27-5.2,9.97l2.18,.3c.11-10.12-2.7-20.13-8.05-28.71-.76-1.21-2.68-.1-1.92,1.12,5.16,8.27,7.85,17.85,7.75,27.59-.01,1.24,1.87,1.52,2.18,.3,1.8-7.07,7.16-12.32,12.77-16.64,1.42-1.1,2.88-2.15,4.35-3.18,1.21-.85,2.75-1.76,2.15-3.49-.29-.84-.99-1.6-1.48-2.33-.58-.86-1.14-1.73-1.69-2.62-1.09-1.77-2.11-3.58-3.06-5.42-2.19-4.27-3.96-8.74-5.33-13.34-.27-.89-1.56-1.12-2.03-.27-4.25,7.67-10.38,14.15-17.82,18.81-1.21,.76-.1,2.68,1.12,1.92h0Z"/>
  <path class="cls-2" d="M607.91,310.68c6.47-4.05,11.83-9.68,15.54-16.36l-1.69-.22c1.24,4.14,2.86,8.17,4.86,12.01,.95,1.82,1.98,3.59,3.1,5.31,.32,.49,.64,.98,.97,1.46,.28,.41,.82,.83,.55,1.28-.12,.2-.75,.53-.94,.66-.42,.3-.84,.6-1.26,.9-5.89,4.25-11.85,9.31-13.72,16.64l1.82,.25c.08-8.45-2.25-16.79-6.72-23.96-.63-1.01-2.23-.08-1.6,.94,4.3,6.91,6.55,14.89,6.47,23.03-.01,1.04,1.56,1.27,1.82,.25,2.01-7.86,8.9-12.57,15.07-17.09,1.82-1.33,.92-2.62-.13-4.18-1.23-1.82-2.37-3.7-3.41-5.63-2.12-3.93-3.81-8.07-5.09-12.34-.22-.74-1.3-.94-1.69-.22-3.56,6.41-8.66,11.8-14.87,15.69-1.01,.63-.08,2.24,.94,1.6h0Z"/>
  <path d="M477.82,461.34c11.27-7.03,20.65-16.89,27.08-28.51l-2.95-.39c3.35,11.26,8.37,22.03,14.93,31.78,.4,.59,2.04,2.42,1.86,2.98-.11,.34-1.19,.85-1.51,1.08-.58,.41-1.15,.81-1.73,1.22-2.06,1.47-4.09,2.98-6.09,4.54-3.97,3.12-7.78,6.5-10.99,10.41-3.55,4.32-6.33,9.21-7.7,14.66l3.17,.43c.17-14.69-3.92-29.31-11.72-41.77-1.1-1.76-3.9-.14-2.79,1.63,7.51,12,11.44,25.98,11.28,40.14-.02,1.81,2.73,2.21,3.17,.43,2.52-10.06,10.09-17.57,18.01-23.76,2.03-1.59,4.12-3.1,6.22-4.59s5.04-2.99,3.63-5.94c-.59-1.23-1.54-2.33-2.29-3.46-.87-1.3-1.71-2.62-2.52-3.95-1.59-2.61-3.07-5.28-4.44-8-3.02-6-5.48-12.25-7.4-18.69-.39-1.3-2.26-1.63-2.95-.39-6.16,11.15-15.11,20.61-25.92,27.36-1.76,1.1-.14,3.89,1.63,2.79h0Z"/>
  <rect class="cls-1" y="88.26" width="792" height="612"/>
</svg>