<?xml version="1.0" encoding="UTF-8"?>
<svg id="Layer_1" data-name="Layer 1" xmlns="http://www.w3.org/2000/svg" viewBox="0 0 792 612">
  <defs>
    <style>
      .cls-1 {
        fill: #673438;
      }

      .cls-2 {
        fill: #3b1907;
      }

      .cls-3 {
        fill: #f5a462;
      }

      .cls-4 {
        fill: #472813;
      }

      .cls-5 {
        fill: #fac26a;
      }

      .cls-6 {
        fill: #f5ad95;
      }

      .cls-7 {
        fill: #f1927c;
      }

      .cls-8 {
        fill: #f6b5a0;
      }

      .cls-9 {
        fill: #eac4c7;
      }

      .cls-10 {
        fill: #a9a2d0;
      }

      .cls-11 {
        fill: #a66440;
      }

      .cls-12 {
        fill: #6c4622;
      }

      .cls-13 {
        fill: #e68c91;
      }

      .cls-14 {
        fill: #ee955e;
      }

      .cls-15 {
        fill: #68b3e3;
      }

      .cls-16 {
        fill: #55311b;
      }

      .cls-17 {
        fill: #553617;
      }

      .cls-18 {
        fill: #976c5f;
      }

      .cls-19 {
        fill: #21263d;
      }

      .cls-20 {
        fill: #6783aa;
      }

      .cls-21 {
        fill: #855032;
      }

      .cls-22 {
        fill: #824e31;
      }
    </style>
  </defs>
  <path class="cls-9" d="M718.97,581.37c0,240.68-174.3,435.79-389.31,435.79S-59.65,822.05-59.65,581.37,110.01,152.17,325.02,152.17s393.95,188.52,393.95,429.2Z"/>
  <g>
    <path class="cls-18" d="M370.97,328.32c7.25,11.56,19.8,20.07,31.15,25.86,12.98,6.66,24.39,9.75,24.39,9.75l3.47-6.52,2.22-4.21,5.99-11.24,1-1.84,1.18-2.24,.3-.56,.73-1.41,.92-1.73,9.39-17.57,1.5-2.84,4.46-8.39,3.33-6.26,.62-1.17v-.03s9.17-17.21,9.17-17.21l2.61-4.88,1.09-2.07,2.06-3.87,2.5-4.68c3.12-7.62,5.02-14.31,5.98-20.24,.31-2.05,.55-3.97,.65-5.83,.42-6.38-.41-11.69-1.89-16.1-.19-.54-.38-1.08-.58-1.59-.53-1.29-1.08-2.5-1.69-3.6-.47-.86-.97-1.7-1.49-2.46-6.99-10.3-17.81-12.89-17.81-12.89-10.07,.27-18.23,3.36-24.5,7.16-4.02,2.38-7.26,5.06-9.75,7.55-1.65,1.59-2.97,3.1-3.97,4.37l-.24,.28c-1.55,1.9-2.32,3.18-2.32,3.18l-1.2,1.99-2.6,4.31-3.21,5.36-4.74,7.82-.49,.81-1.89,3.17-2.31,3.79-4.6,7.61-3.48,5.72-6.42,10.65-2.46,4.05-1.58,2.63-2.24,3.71-7.09,11.74-.53,.87-1.54,2.57-2.05,3.36-3.28,5.43-2.22,3.7-.67,1.09-.9,1.5c.5,1.95,1.16,3.82,1.94,5.63,.88,2,1.9,3.92,3.06,5.77Z"/>
    <path class="cls-8" d="M620.82,408.13c-21.86-53.04-45.79-125.81-38.64-145.09-.07-4.31,28.13-39.45,53.91,6.11,0,0,20.89,46.62,26.68,124.19,0,0-22.72,61.46-41.95,14.79Z"/>
    <polygon class="cls-8" points="528.68 184.79 610.07 214.75 565.26 415.41 457.99 415.41 451.66 203.01 490.59 184.79 528.68 184.79"/>
    <path class="cls-18" d="M451.17,203.24l.03,2.43,.32,16.66,.09,4.67,.35,18.83,.13,6.97,.44,23.22,.07,3.54,.03,1.89,.06,3.91,.35,18.46,.1,5.42,.57,30.75,.13,6.03,.53,29.59,.13,7.32,.47,25.49,.03,1.08c20.41,10.38,32.05,8.74,61.32,8.45,1.8,0,3.69-.03,5.65-.03,5.14,0,20.03,.95,33.85,.57,9.65-.25,18.8-1.14,23.72-3.44h.03c2.68-1.23,4.1-2.9,3.72-5.08-1.61-8.96-1.07-18.01,.09-27,.29-2.27,.6-4.51,.98-6.78,.66-4.29,1.38-8.58,2.05-12.84,.06-.35,.09-.73,.15-1.07,.95-6.31,1.96-12.65,3.09-18.93,.25-1.54,.54-3.06,.82-4.57,1.77-9.65,3.72-19.24,5.81-28.83,.06-.22,.09-.44,.16-.66,.19-.98,.41-1.96,.63-2.9,.03-.25,.09-.5,.15-.73,1.71-7.7,3.57-15.39,5.46-23.03,.41-1.64,.82-3.28,1.23-4.89,2.3-9.05,4.67-18.07,7-27.13,.38-1.45,.76-2.93,1.14-4.42,1.01-3.85,1.99-7.73,2.97-11.61,1.54-6.06,1.22-13.09-2.59-17.57l-.03-.03c-.76-.92-1.67-1.7-2.75-2.37-.44-.32-.94-.57-1.48-.82-.19-.1-.35-.16-.53-.25-6.75-2.97-14.32-4.89-21.23-7.48-11.58-4.26-30.66-12.71-42.24-16.97-41.32,35.55-66.75,1.86-66.75,1.86l-26.24,12.3Z"/>
    <path class="cls-18" d="M445.39,205.94c-1.78,38.03-9.98,61.43-11.1,86.8-.41,9.31,1.68,17.13,5.01,25.73,8.42,21.82,12.03,48.64,13.54,59.26,7.01,48.94,14.76,47.93,40.39,42.43,15.18-3.26,18.36-60.9,21.08-74.95,4.18-21.66,.75-47.71-15.58-63.8-11.66-11.5-26.79-14.72-32.85-31.27-4.43-12.11,15.83-29.16,2.57-34.25-.24,.52-8.22-17.52-8.07-16.96"/>
    <path class="cls-20" d="M454.99,409.48s55.82,2.34,128.28,.46c28.47,43.53,45.68,80.97,40.32,125.24,0,0-11.31,35.83-66.59,39.19l-111.43-17.34-98.46,3.64s-95.87-104.99-34.36-123.38l118.83,15.39,23.4-43.19Z"/>
    <path class="cls-1" d="M547.74,204.33c-8.5,8.52-23.19,13.73-35.2,14.58l.06,.83v-.83c-2.26,0-4.64,.07-7.05,.07-6.03,0-12.19-.46-16.92-3.43l-.18-.08c-2.47-.81-6.8-3.19-10.42-6.07-1.81-1.44-3.46-3.01-4.62-4.55-1.17-1.54-1.83-3.04-1.82-4.27,0-.46-.37-.83-.83-.83s-.83,.37-.83,.83c0,1.81,.88,3.58,2.16,5.28,1.93,2.55,4.87,4.98,7.83,6.97,2.97,1.99,5.94,3.52,8.02,4.22l.26-.79-.44,.7c5.23,3.26,11.7,3.68,17.8,3.68,2.44,0,4.82-.07,7.05-.07h.06c12.38-.9,27.32-6.14,36.26-15.06,.32-.32,.32-.85,0-1.17-.33-.32-.85-.32-1.17,0Z"/>
    <path class="cls-18" d="M566.12,246.36l1.86,10.79,.72,4.13,3.97,22.87,.85,4.92,.66,3.82,3.03,17.6,.5,2.9,4.67,26.81,.72,4.29,3.28,18.83v.03l1.1,6.37c3.75,1.51,8.58,1.86,14,1.36,26.44-2.24,67.16-23.85,67.16-23.85l-5.93-23.41-.98-3.78-6.69-26.31-.54-2.15-5.71-22.49c-.44-1.04-.88-2.08-1.29-3.09-.47-1.04-.91-2.02-1.36-3-4.03-8.99-8.1-16.4-12.08-22.52-.41-.63-.82-1.26-1.2-1.83-7.48-11.13-14.58-17.76-20.47-21.67l-.13-.09c-1.07-.73-2.14-1.35-3.15-1.92-.73-.38-1.42-.76-2.11-1.07-6.46-3-10.54-2.59-10.54-2.59-16.31,.6-23.94,8.8-27.47,17.13-.53,1.23-.98,2.43-1.32,3.63-2.24,7.57-1.58,14.29-1.58,14.29Z"/>
    <polygon class="cls-6" points="434.24 539.15 472.34 554.67 462.55 584.3 423.73 571.19 434.24 539.15"/>
    <path class="cls-10" d="M451.25,580.91c15.46,9.86,64.89,20.8,84.48,19.54,23.73-1.52,35.36-44.5,6.73-46.65-25.94-1.94-54.47,.12-79.81-5.49,0,0-18.24,6.89-11.4,32.59Z"/>
    <path class="cls-15" d="M293.22,470.54c1.27,0,1.27-1.04,0-1.04s-1.28,1.04,0,1.04Z"/>
    <path class="cls-20" d="M258.64,422.58c-41.14,5.36-30.5,43.55-16.07,56.78,38.83,35.62,94.85,62.44,143.72,81.31,1.66,.64,47.96,17.92,55.71,21.01-9.62-23.24,11.86-39.44,11.86-39.44,0,0-54.7-26.48-91.39-65.05,0,0-54.82-64.98-103.83-54.61Z"/>
    <path class="cls-1" d="M457.22,541.46c-39.95-16.81-70.2-45.62-103.81-75.38-17.18-15.22-35.59-28.69-55.94-39.31-.41-.21-.91-.05-1.12,.35-.21,.41-.05,.91,.35,1.12,20.2,10.54,38.5,23.93,55.6,39.08,33.58,29.73,63.95,58.7,104.26,75.67,.42,.18,.91-.02,1.09-.44,.18-.42-.02-.91-.44-1.09Z"/>
    <path class="cls-1" d="M395.66,563.99c-9.14-4.81-19.56-7.92-28.8-12.24-8.23-3.84-16.78-6.73-24.77-10.54-12.18-5.79-24.58-11.43-36.41-17.92-6.89-3.78-10.18-5.23-21.15-12.5-.38-.25-.9-.15-1.15,.23-.25,.38-.15,.9,.23,1.15,11,7.29,14.44,8.82,21.27,12.57,11.9,6.53,24.34,12.18,36.5,17.96,8.11,3.86,16.66,6.75,24.78,10.54,9.39,4.38,19.79,7.48,28.73,12.2,.41,.21,.91,.06,1.12-.35,.21-.41,.06-.91-.35-1.12Z"/>
    <path class="cls-12" d="M469.98,84.74c-5.1,18.35-1.27,43.72,7.08,61.09,1.74,3.63,2.65,5.1,5.58,7.8,1.97,1.82,8.94,2.94,10.08,5.23,1.68,3.4,.71,10.6,0,13.94-1.06,4.92-.4,8.83-2.52,13.12-1.65,3.34-11.14,4.3-14.32,5.72-4.33,1.95-5.36,1.99-8.59-1.95-5.24-6.41-7.35-14.13-9.36-21.91-4.4-17.04-8.1-34.64-7.25-52.95,.93-20.06,1.9-44.86,13.68-62,5.46-7.94,11.76-15.02,21.47-17.88,4.31-1.27,16.74-2.5,19.78,2.59,3.01,5.05-12.15,11.53-15.19,14.26-11.43,10.28-16.38,18.3-20.44,32.93Z"/>
    <path class="cls-12" d="M466.81,52.73s14.99-44.64,75.93-23.36c0,0,36.02,12,32.83,63.86,0,0-7.11,53.65-56.39,60.41,0,0-78.74-2.03-52.37-100.91Z"/>
    <polygon class="cls-8" points="490.21 188.45 536.09 188.45 542.29 120.42 496.41 116.23 490.21 188.45"/>
    <path class="cls-7" d="M526.39,156.37c7.18-10.7,10.15-22.83,12.14-36.29l-42.12-3.84-5.4,59.14c12.28-1.11,28.12-8.19,35.38-19.01Z"/>
    <path class="cls-8" d="M564.11,106.39c-.67,8.45-6.26,17.55-14.18,20.33-10.74,3.78-13.8-6.05-12.93-15.27,.71-7.44,5.19-19.94,13.87-21.79,8.19-1.74,13.79,9.81,13.24,16.73Z"/>
    <path class="cls-8" d="M540.84,127.3c-5.98,11.69-13.52,21.03-25.62,26.98-11.84,5.81-23.73,8.24-33.69-1.7-7.93-7.91-12.52-18.79-14.65-29.52-4.92-24.68,3.71-57.39,20.8-75.3,18.77-19.66,50.7-11.87,60.98,13.02,8.37,20.27,1.86,47.65-7.8,66.52Z"/>
    <path class="cls-7" d="M550.4,119.38c.13,.01,.27,0,.43-.02,.85-.15,1.42-.97,1.27-1.83-1.41-7.83,.73-15.3,4.86-17,.81-.33,1.2-1.26,.86-2.06-.33-.81-1.26-1.19-2.06-.86-5.65,2.32-8.49,10.94-6.77,20.49,.13,.72,.72,1.23,1.41,1.29Z"/>
    <path class="cls-7" d="M559.21,108.34c.61,.05,1.22-.24,1.53-.81,.42-.77,.13-1.73-.63-2.15-1.33-.72-5.92-2.95-9.39-1.22-.78,.4-1.1,1.35-.7,2.12,.38,.79,1.34,1.1,2.12,.71,1.55-.78,4.44,.05,6.46,1.16,.19,.11,.41,.17,.61,.18Z"/>
    <path class="cls-12" d="M538.11,105.7c1.53,1.98,7.78-2.26,9.34-5.81,.16-.36,0,0,0,0,.85-4.27,4.07-7.7,9.2-7.42,3.67,.2,6.67,6.07,7.38,9.86,.61-3.86,1.03-9.45,1.47-13.59,.41-3.93,.58-8.17,.45-12.26-.25-9.5-.52-14.73-4.18-23.96-3.95-9.94-10.79-17.99-21.23-21.66-12.59-4.43-33.4-9.02-45.09-2.13-5.98,3.54-1.41,5-2.21,22.77,0,0,51.64-7.5,44.86,54.18Z"/>
    <path class="cls-19" d="M484.15,97.12c-.37,2.65-1.96,4.63-3.56,4.4-1.6-.23-2.59-2.56-2.22-5.22,.38-2.66,1.97-4.64,3.57-4.41,1.6,.22,2.58,2.56,2.2,5.23Z"/>
    <path class="cls-19" d="M518.74,102c-.37,2.66-1.97,4.64-3.57,4.41-1.6-.23-2.58-2.56-2.21-5.22,.37-2.66,1.96-4.64,3.56-4.41,1.6,.23,2.59,2.56,2.21,5.22Z"/>
    <path class="cls-1" d="M493,118.72c-2.56-.57-4.43-1.57-5.62-2.64-1.2-1.08-1.71-2.22-1.7-3.03,0-.25,.04-.47,.12-.66l-.17-.07,.15,.1,.02-.03-.17-.07,.15,.1s.14-.16,.37-.33c.81-.63,2.61-1.65,4.54-3.14,1.93-1.5,4.03-3.5,5.52-6.22l.08-.22,2.33-10.54c.1-.45-.19-.89-.63-.99-.45-.1-.89,.18-.99,.63l-2.33,10.54,.81,.18-.73-.4c-1.58,2.88-3.96,4.94-6.05,6.43-1.04,.74-2.01,1.35-2.77,1.85-.38,.25-.71,.48-.99,.71-.27,.24-.51,.44-.69,.84-.17,.41-.24,.85-.24,1.29,0,1.46,.81,2.96,2.25,4.27,1.45,1.3,3.58,2.41,6.37,3.03,.45,.1,.89-.18,.99-.63,.1-.45-.18-.89-.63-.99Z"/>
    <path class="cls-7" d="M522.73,114.13c-.26,1.89-3.95,2.94-8.23,2.32-4.28-.6-7.53-2.62-7.26-4.51,.26-1.89,3.95-2.93,8.23-2.33,4.28,.61,7.53,2.63,7.26,4.52Z"/>
    <path class="cls-7" d="M484.54,108.74c-.26,1.89-3.94,2.93-8.22,2.34-4.28-.61-7.53-2.63-7.27-4.52,.26-1.89,3.95-2.93,8.23-2.32,4.28,.6,7.53,2.62,7.26,4.51Z"/>
    <path class="cls-12" d="M524.41,91.72c1.67,.25,4.86,2.84,5.98,4.83,.49-6.13-2.28-9.56-9.04-9.6-2.52-.01-5.18-.64-7.65-.74-1.42-.06-3.13-.47-4.25,.62-1.54,1.49-1.29,3.95,.29,4.16,7.37,.97,11.34,.23,14.67,.73Z"/>
    <path class="cls-12" d="M479.24,85.07c-1.68-.16-5.4,1.59-6.97,3.25,1-6.07,4.51-8.73,11.09-7.14,2.45,.59,5.18,.63,7.6,1.12,1.4,.28,3.15,.3,3.98,1.63,1.13,1.82,.3,4.15-1.29,3.97-7.38-.83-11.06-2.51-14.42-2.82Z"/>
    <path class="cls-13" d="M485.83,126.64c1.62,2.23,4.37,3.18,7.02,3.18,2.52,0,5.05-.83,6.69-2.49,.32-.33,.32-.85-.01-1.17-.33-.32-.85-.32-1.17,.01-1.2,1.24-3.35,2-5.51,1.99-2.29,0-4.5-.83-5.68-2.49-.27-.37-.79-.46-1.16-.19-.37,.27-.46,.79-.19,1.16Z"/>
    <path class="cls-12" d="M468.95,77.92c-4.61-16.71-3.37-43.79,27.28-50.33,7.52-1.6,25.24-.86,30.18,6.31,10.92,15.9-18.74,17.55-26.58,17.27-12.49-.44-21.35,1.79-30.87,26.75Z"/>
    <path class="cls-18" d="M618.39,480.65c-.28-1.17-.57-2.34-.88-3.5-2.24-8.96-5.14-17.82-8.01-26.72v-.03c-.5-1.67-1.04-3.31-1.58-4.98-2.47-7.79-4.8-15.58-6.56-23.56-.41-1.86-.76-3.72-1.01-5.58v-.03c-.22-1.58-.38-3.19-.5-4.76-.85-10.76,.31-21.54,1.13-32.49,.13-1.83,.29-3.66,.38-5.49,.03-.34,.03-.69,.06-1.07,.03-.44,.06-.89,.09-1.32,.51-9.21,.92-19.75,.63-30.25-.03-1.45-.07-2.9-.16-4.35-.41-9.78-1.52-19.37-3.75-27.63-.16-.63-.35-1.26-.53-1.89-.07-.22-.16-.47-.25-.69-.03-.22-.09-.41-.22-.63v-.03c-3.78-10.5-13.02-12.71-23.03-12.71-5.36-.03-10.91,.6-15.99,.91-13.69,.85-26.91-.03-41.01,.82-17.23,1.04-33.63-3.85-50.47-7.13-4.83-.95-9.43-1.36-14.04-2.15-1.99-.31-3.94-.72-5.96-1.26-.25-.06-.47-.12-.72-.22-5.02-1.54-10.73-4.99-15.93-4.86-.13,5.08-.22,10.25-.41,15.52v.03c0,.38,0,.76-.03,1.13-.06,2.02-.12,4.04-.19,6.06-.38,9.4-.92,18.99-1.83,28.48-.22,2.43-.47,4.89-.79,7.32-1.07,9.56-2.65,18.99-4.86,28.01-.79,3.28-1.64,6.5-2.62,9.65-.06,.19-.12,.41-.19,.6-2.14,6.84-4.41,13.75-6.78,20.63-.95,2.68-1.89,5.4-2.87,8.08-2.43,6.85-5.02,13.66-7.7,20.35-.5,1.39-1.07,2.74-1.6,4.1-.44,1.08-.89,2.18-1.33,3.25-2.05,5.03-4.13,10.03-6.2,15.03,6.22,12.12,19.77,22.1,33.15,20.61,4.92-.55,9.58-1.9,14.14-3.58,6.75-5.19,12.29-11.79,19.25-16.77,.32-.22,.63-.44,.95-.63,2.97-1.96,6.12-3.25,9.31-4.42,3.5-1.32,7.07-2.49,10.54-4.35,10-5.27,18.96-11.26,27.76-16.02,2.87-1.51,5.71-2.94,8.54-4.17h.03c.44-.19,.92-.38,1.39-.57,11.13-4.48,22.55-5.77,35.9,.13,.7,.28,1.42,.63,2.14,.97h.04c1.7,.85,3.44,1.8,5.2,2.9l.38,.22c9.43,5.8,18.64,14.07,27.1,23.47,1.58,1.74,3.12,3.53,4.64,5.36,7.38,8.86,14.03,18.45,19.56,27.82,.69,1.14,1.33,2.27,1.98,3.37,2.28,4.04,4.33,8.05,6.16,11.89-.6-4.32-1.45-8.61-2.43-12.87Z"/>
    <path class="cls-1" d="M455.24,216.97c-3.89,12.96-9.18,23.65-14,33.06-4.81,9.41-9.16,17.51-11.14,25.35-.72,2.85-1.05,5.61-1.05,8.28,0,8.8,3.64,16.56,9.06,23.14,5.42,6.58,12.61,12.03,19.83,16.28,.4,.23,.9,.1,1.14-.3,.23-.39,.1-.9-.29-1.14-7.1-4.19-14.15-9.53-19.39-15.91-5.24-6.38-8.68-13.75-8.68-22.09,0-2.53,.32-5.15,1-7.87,1.89-7.54,6.18-15.58,11.01-25,4.82-9.42,10.17-20.22,14.11-33.34,.13-.44-.12-.9-.56-1.03-.44-.13-.9,.12-1.03,.56Z"/>
    <path class="cls-1" d="M430.37,294.74v.31c0,8.7-2.06,24.65-2.44,33.32-.21,4.91-1.84,16.56-4.87,29.97-3.03,13.41-7.45,28.61-13.24,40.69-.2,.41-.02,.91,.39,1.11,.41,.2,.91,.02,1.11-.39,5.88-12.27,10.32-27.55,13.37-41.04,3.04-13.5,4.68-25.16,4.91-30.26,.37-8.54,2.44-24.49,2.44-33.39v-.31c0-.46-.38-.83-.84-.83-.46,0-.83,.38-.83,.83Z"/>
    <path class="cls-1" d="M573.68,218.75c-3.27,2.64-4.91,6.75-5.91,11.04-1,4.31-1.35,8.87-1.88,12.51v.06c-.17,2.09-.23,4.2-.23,6.32,0,7.19,.73,14.46,.83,21.27v.02c.84,20.3,.89,41.9,2.67,71.55,.03,.46,.42,.81,.88,.78,.46-.03,.81-.42,.78-.88-1.77-29.61-1.82-51.17-2.67-71.52l-.83,.04h.83c-.11-6.93-.84-14.19-.83-21.26,0-2.08,.06-4.15,.22-6.19l-.83-.07,.82,.12c.54-3.72,.89-8.23,1.85-12.38,.96-4.15,2.52-7.88,5.33-10.12,.35-.29,.41-.81,.13-1.17-.29-.36-.81-.41-1.17-.13Z"/>
    <path class="cls-17" d="M485.78,53.49c1.47-5.29,3.51-12.07,8.75-16.23,5.45-4.32,11.92-4.79,18.48-3.98,6.45,.79,13.96,3.79,18.34,9.06,10.67,12.83,8.37,31.75,7.15,47.14,0,0-7.7-42.78-52.72-35.99Z"/>
    <path class="cls-12" d="M487.32,50.82c5.13-6.82,9.2-14.15,15.8-15.74,8.05-1.95,15.32-.99,22.07,3.91,14.06,10.21,13.64,26.48,13.64,42.32,0,32.93-17.15,66.1-24.81,97.79-6.13,25.36-9.94,51.81-6.59,77.87,2.74,21.23,10.21,48.71,31.38,58.82,14.25,6.8,30.57,3.27,45.51,1.43,14.13-1.73,40.3-5.22,53.18,2.87,10.84,6.81,20.25,15.52,33.67,16.57,3-15.07-8.42-35.15-11.18-50.07-3.27-17.65-8.47-35.18-15.98-51.76-7.06-15.59-20.32-28.63-29.75-42.88-11-16.6-10.23-30.05-10.23-49.65,0-35.09-5.9-81.02-33.68-105.62-19.74-17.48-72.53-28.64-80.69,5.73,0,0-2.25,6.42-2.34,8.41Z"/>
    <path class="cls-8" d="M330.85,405.75c47.49-32.18,127.55-102.71,132.22-122.74,2.44-3.55-1.7-48.43-48.33-24.65,0,0-63.08,50.4-110.7,111.91,0,0-14.97,63.79,26.82,35.48Z"/>
    <polygon class="cls-6" points="382.47 537.23 341.49 540.85 342.14 572.04 383.09 570.94 382.47 537.23"/>
    <path class="cls-10" d="M353.93,572.13c-17.68,4.87-68.13,.78-86.49-6.18-22.23-8.44-20.69-52.94,7.3-46.56,25.37,5.77,52.02,16.14,77.89,18.23,0,0,15.41,11.95,1.31,34.51Z"/>
    <path class="cls-3" d="M578.82,322.49c-15.93-10.31-34.62-13.71-52.2-19.95-13.6-4.82-24.82-10.13-32.73-23.19-7.03-11.62-11.63-24.61-19.54-35.88-19.53-27.84-66.77-64.35-126.71-15.15l-.06-.07c-.66,.58-1.3,1.16-1.94,1.74-.66,.56-1.32,1.11-1.98,1.69l.06,.07c-56.63,52.98-26.63,104.59-1.59,127.6,10.14,9.32,22.42,15.58,33.01,24.08,11.91,9.55,15.71,21.38,18.71,35.49,3.88,18.25,4.8,37.23,12.94,54.37,7.29,15.36,19.64,29.95,33.81,38.89,37.26,23.52,88.49-1.64,123.44-33.03,35.69-30.53,67.36-78.03,48.92-118.05-7-15.21-19.85-29.37-34.12-38.61Z"/>
    <path class="cls-5" d="M519.81,384.29c-2.84,9.96-8.57,22.87-2.97,32.63,14.91,26.01,42-2.04,50.68-18.76,10.38-20-1.97-36.4-18.75-47.69-6.6-4.45-14.52-9.52-22.82-10.95-7.2-1.24-24.88,1.4-17.6,12.33,3.54,5.31,8.57,7.63,10.86,14.35,1.97,5.77,2.28,12.22,.6,18.09Z"/>
    <path class="cls-5" d="M364.59,265.15c14.93,7.94,30.76-10.34,46.63-5.78,10.04,2.88,23.18,34.03,35.57,14.41,8.2-12.99-5.94-34.57-14.1-43.89-13.5-15.41-39.1-19.08-57.42-10.5-14.8,6.93-30.45,35.23-10.69,45.75Z"/>
    <path class="cls-14" d="M578.82,322.49c-15.93-10.31-34.62-13.71-52.2-19.95-13.6-4.82-24.82-10.13-32.73-23.19-7.03-11.62-11.63-24.61-19.54-35.88-13.46-19.19-40.08-42.49-74.95-39.02,7.47,1.98,14.92,4.05,21.94,7.19,11.11,4.95,20.13,12.72,26.77,22.92,14.27,21.94,16.03,50.23,34.59,69.62,8.91,9.32,20.41,15.13,32.01,20.41,11.78,5.37,23.84,10.15,35.38,16.04,17.92,9.15,35.37,22.23,35.04,44.29-.38,25.93-21.81,46.77-39.38,63.39-15.56,14.71-34.91,28.9-56.55,32.44-9.24,1.51-18.92,.92-27.51-3.06-9.77-4.53-17.41-12.4-23.02-21.48-3.86-6.25-7.07-12.91-8.83-20.07-1.92-7.79-2.6-15.76-3.4-23.71-.81-8.05-1.7-16.3-4.55-23.93-3.34-8.94-9.14-16.74-16.43-22.88-14.05-11.81-31.75-18.42-45.1-31.17-10.87-10.39-18.77-23.7-22.38-38.33-6.17-25.06-.42-51.61,14.91-71.89-1.74,1.3-3.48,2.66-5.24,4.1l-.06-.07c-.66,.58-1.3,1.16-1.94,1.74-.66,.56-1.32,1.11-1.98,1.69l.06,.07c-56.63,52.98-26.63,104.59-1.59,127.6,10.14,9.32,22.42,15.58,33.01,24.08,11.91,9.55,15.71,21.38,18.71,35.49,3.88,18.25,4.8,37.23,12.94,54.37,7.29,15.36,19.64,29.95,33.81,38.89,37.26,23.52,88.49-1.64,123.44-33.03,35.69-30.53,67.36-78.03,48.92-118.05-7-15.21-19.85-29.37-34.12-38.61Z"/>
    <rect class="cls-11" x="484.55" y="418.59" width="64.12" height="12.92" transform="translate(-152.06 445.91) rotate(-41.23)"/>
    <polygon class="cls-22" points="451.63 324.44 425.38 347.45 262.36 150.75 280.15 135.16 451.63 324.44"/>
    <path class="cls-16" d="M471.85,327.95c11.05,12.61,9.79,31.78-2.82,42.82-12.61,11.05-31.78,9.78-42.82-2.82-11.05-12.6-9.79-31.77,2.82-42.82,12.6-11.05,31.77-9.79,42.82,2.82Z"/>
    <path class="cls-2" d="M476.9,353.33c-12.61,11.05-31.78,9.78-42.82-2.82-5.8-6.62-8.18-15.05-7.33-23.16-10.44,11.26-10.88,28.81-.54,40.6,11.04,12.6,30.22,13.87,42.82,2.82,5.98-5.24,9.38-12.32,10.14-19.66-.71,.77-1.47,1.51-2.27,2.22Z"/>
    <path class="cls-11" d="M215.91,72.37l-9.54,8.36c-6.95,6.09-7.65,16.67-1.55,23.62l43.78,49.95c6.09,6.95,16.67,7.65,23.62,1.55l9.54-8.36c6.95-6.09,7.65-16.67,1.55-23.62l-43.78-49.95c-6.09-6.95-16.67-7.65-23.62-1.55Zm37.98,66.53c1,1.15,.89,2.89-.26,3.89-1.15,1-2.89,.89-3.89-.26l-5.43-6.2c-1-1.14-.89-2.88,.25-3.89,1.14-1,2.88-.89,3.89,.25l5.44,6.2Zm-13.84-15.78c1,1.14,.89,2.89-.26,3.89-1.14,1-2.89,.89-3.89-.25l-5.44-6.2c-1-1.14-.89-2.88,.26-3.89,1.15-1.01,2.89-.89,3.89,.25l5.43,6.2Zm-13.84-15.79c1,1.15,.89,2.89-.25,3.89-1.14,1-2.89,.89-3.89-.26l-5.44-6.2c-1-1.14-.89-2.88,.25-3.89,1.15-1.01,2.89-.89,3.89,.25l5.43,6.2Zm45.29,16.13c1,1.14,.89,2.88-.26,3.89-1.14,1-2.89,.89-3.89-.26l-5.44-6.2c-1-1.14-.89-2.88,.25-3.89,1.14-1,2.89-.89,3.89,.26l5.44,6.2Zm-13.84-15.79c1,1.14,.89,2.88-.26,3.89-1.14,1.01-2.88,.89-3.89-.25l-5.44-6.2c-1-1.15-.89-2.88,.26-3.89,1.15-1.01,2.89-.89,3.89,.26l5.43,6.2Zm-13.84-15.79c1.01,1.15,.89,2.89-.25,3.89-1.14,1-2.89,.89-3.89-.26l-5.44-6.2c-1-1.14-.89-2.88,.26-3.89,1.15-1,2.88-.89,3.89,.26l5.43,6.2Z"/>
    <rect class="cls-4" x="367.17" y="45.45" width="1.38" height="437.79" transform="translate(-83.04 307.88) rotate(-41.22)"/>
    <rect class="cls-4" x="370.14" y="42.84" width="1.38" height="437.79" transform="translate(-80.58 309.2) rotate(-41.22)"/>
    <rect class="cls-4" x="373.12" y="40.23" width="1.38" height="437.79" transform="translate(-78.09 310.78) rotate(-41.25)"/>
    <rect class="cls-4" x="376.1" y="37.63" width="1.38" height="437.79" transform="translate(-75.64 312.07) rotate(-41.25)"/>
    <polygon class="cls-21" points="206.8 114.44 204.26 111.54 197.13 117.79 206.89 128.93 214.02 122.68 211.48 119.79 227.8 105.48 223.12 100.13 206.8 114.44"/>
    <polygon class="cls-21" points="220.48 130.05 217.94 127.16 210.81 133.4 220.58 144.54 227.71 138.3 225.17 135.4 241.49 121.09 236.8 115.75 220.48 130.05"/>
    <polygon class="cls-21" points="234.16 145.67 231.63 142.77 224.5 149.02 234.26 160.16 241.39 153.91 238.85 151.01 255.17 136.71 250.49 131.36 234.16 145.67"/>
    <polygon class="cls-21" points="249.27 77.2 246.74 74.31 253.87 68.06 263.63 79.2 256.5 85.45 253.96 82.55 237.64 96.86 232.96 91.51 249.27 77.2"/>
    <polygon class="cls-21" points="262.96 92.82 260.42 89.92 267.55 83.67 277.31 94.81 270.19 101.06 267.65 98.17 251.33 112.47 246.64 107.12 262.96 92.82"/>
    <polygon class="cls-21" points="276.65 108.43 274.11 105.54 281.23 99.29 291 110.43 283.87 116.67 281.33 113.78 265.01 128.09 260.33 122.74 276.65 108.43"/>
    <path class="cls-8" d="M285.59,227.26c-26.55,65.7-21.09,101.05-.71,140.58,22.18,43.02,14.14,44.44,38.23,37.96,22.94-6.16,17.34-26.51,17.34-26.51,0,0-56.02-92.37-37.08-146.12,0,0-7.68-14.72-17.78-5.9"/>
    <path class="cls-8" d="M341.3,174.53c4.29-3.07,2.87,7.1,2.87,7.1l-16.31,34.66-26.3,26.09c-12.68-5.87-15.97-15.12-15.97-15.12,0,0,13.19-22.89,18.73-32.9,8-14.45,27.01-12.7,36.98-19.84Z"/>
    <path class="cls-8" d="M487.25,363.92c48.66,37.92,88.87,47.3,123.93,58.61,46.06,14.87,46.18,6.47,50.76-18.06,4.36-23.35-16.41-27.1-16.41-27.1,0,0-93.33-2.97-157.29-27.35,0,0-7.58,5.73-.99,13.9Z"/>
    <path class="cls-20" d="M353.93,572.13c-6.32-13.03-2.76-40.21-2.76-40.21l22.1-11.61c27.28-21.21,51.67-44.56,78.38-66.48,20.68-16.97,51.67-39.85,81.87-40.23,18.79-.24,37.71,10.21,49.37,25.54,19.42,25.56,46.18,46.79,40.7,96.03-3.27,29.4-39.24,51.78-60.41,48.44-15.64-2.47-39.15-22.19-47.85-34.07l-23.34-28.8s-9.28,30.24-99.41,49.21c0,0-26.79,5.73-38.66,2.17Z"/>
    <path class="cls-1" d="M513.47,421.94c-4.96,1.42-10.36,5.23-16.25,9.68-5.88,4.45-12.23,9.54-18.89,13.55-12.57,7.57-33.49,22.93-42.24,30.94-27.11,24.81-45.8,36.84-71.05,53.9-.38,.26-.48,.77-.22,1.15,.26,.38,.77,.48,1.15,.22,25.22-17.04,44.04-29.16,71.24-54.05,8.59-7.87,29.54-23.27,41.97-30.74,6.79-4.09,13.18-9.22,19.03-13.64,5.85-4.43,11.19-8.14,15.7-9.41,.44-.13,.7-.59,.57-1.03-.13-.44-.59-.7-1.03-.57Z"/>
    <path class="cls-1" d="M616.53,501.06c-7.54-9.76-13.99-20.34-21.14-30.5-7.07-10.05-15.12-18.55-23.73-27.15-1.5-1.5-4.83-4.18-8.9-7.25-4.07-3.06-8.85-6.47-13.19-9.35-.38-.25-.9-.15-1.15,.23-.25,.38-.15,.9,.23,1.15,4.3,2.85,9.07,6.25,13.11,9.29,4.03,3.03,7.37,5.73,8.72,7.1,8.59,8.58,16.57,17.01,23.54,26.93,7.11,10.1,13.57,20.7,21.19,30.56,.28,.36,.8,.43,1.16,.15,.36-.28,.43-.8,.15-1.16Z"/>
    <path class="cls-8" d="M487.37,351.47c-22.85-5.41-60.98,6.09-60.98,6.09-11.16,2.14-.09,8.07-.09,8.07l40.81,5.98,24.07-9.17s4.47-4.72-3.8-10.97Z"/>
    <path class="cls-8" d="M462.76,350.52s8.87-.97,.02-9.75c0,0-4.75-3.99-2.38-8.95l12.95,10.38s15.08,4.92,17.88,13.24c0,0-14.25,4.77-28.46-4.91Z"/>
    <path class="cls-1" d="M383.21,571.76c8.33-1.27,25.7-6.17,41.34-10.91,7.82-2.37,15.19-4.7,20.75-6.51,2.78-.91,5.11-1.68,6.82-2.28,.85-.3,1.55-.54,2.08-.74,.54-.2,.87-.33,1.1-.46,2.41-1.29,4.84-2.55,7.27-3.83,4.82-2.55,9.64-5.22,14.11-8.47,6.3-4.59,12.93-10.9,16.59-18.02,.21-.41,.05-.91-.36-1.12-.41-.21-.91-.05-1.12,.36-3.46,6.75-9.92,12.95-16.09,17.43-4.36,3.17-9.11,5.8-13.91,8.35-2.42,1.28-4.85,2.54-7.28,3.84-.05,.03-.4,.18-.9,.36-3.84,1.43-17.71,5.95-32.51,10.38-14.79,4.44-30.58,8.81-38.17,9.97-.45,.07-.77,.49-.7,.95,.07,.45,.49,.77,.95,.7Z"/>
    <path class="cls-1" d="M483.73,498.4c4.54,22.14,20.93,38.39,34.53,54.91,4.11,4.98,8.2,10.15,13.61,14.08,.37,.27,.89,.19,1.16-.18,.27-.37,.19-.89-.18-1.16-5.16-3.75-9.18-8.79-13.3-13.79-13.7-16.59-29.8-32.69-34.18-54.18-.09-.45-.53-.74-.98-.65-.45,.09-.74,.53-.64,.98Z"/>
  </g>
</svg>