<?xml version="1.0" encoding="UTF-8"?>
<svg id="Layer_1" data-name="Layer 1" xmlns="http://www.w3.org/2000/svg" viewBox="0 0 571.95 228.08">
  <defs>
    <style>
      .cls-1 {
        fill: #eac4c7;
      }

      .cls-2, .cls-3 {
        fill: #b54653;
      }

      .cls-3 {
        font-family: AssistantRoman-Bold, Assistant;
        font-size: 152.13px;
        font-variation-settings: 'wght' 700;
        font-weight: 700;
      }
    </style>
  </defs>
  <g>
    <rect class="cls-1" x="54.5" y="68.79" width="48.63" height="14.39" rx="7.2" ry="7.2"/>
    <rect class="cls-1" x="52.12" y="156.85" width="41.17" height="14.39" rx="7.2" ry="7.2"/>
    <rect class="cls-1" x="0" y="178.47" width="85.47" height="14.39" rx="7.2" ry="7.2"/>
    <path class="cls-1" d="M155.15,68.8c12.45,0,398.14,0,416.8,0v31.45c-16.89,0-30.58,13.69-30.58,30.58s13.69,30.59,30.58,30.59v31.45c-42.56,0-214.39,0-335.75,0-33.29,0-104.41,0-137.13,0-3.83,0-6.96-3.04-7.07-6.85-.13-4.01,3.41-7.3,7.42-7.3h52.15c1.98,0,3.58-1.6,3.58-3.58,.16-2.1-1.46-3.94-3.58-3.93,0,0-46.35,0-46.35,0-3.83,0-6.97-3.04-7.09-6.85-.12-4.01,3.41-7.3,7.42-7.3h46.02c4.76-.09,4.78-7.42,0-7.51,0,0-117.06,0-117.06,0-1.96,0-3.73-.79-5.01-2.06-1.22-1.24-2-2.93-2.06-4.79-.13-4.01,3.41-7.3,7.42-7.3h116.71c4.73-.09,4.77-7.26,0-7.36,0,0-68.15,0-68.15,0-3.83,0-6.96-3.04-7.07-6.86-.12-4.02,3.42-7.31,7.44-7.31h67.79c1.98,0,3.58-1.6,3.58-3.58v-2.43c0-1.98-1.6-3.58-3.58-3.58H74.06c-1.95,0-3.73-.79-5.01-2.08-4.58-4.49-1-12.12,5.36-12.09,0,0,77.16,0,77.16,0,1.98,0,3.58-1.6,3.58-3.58,0-1.98-1.6-3.58-3.58-3.58,0,0-35.88,0-35.88,0-1.95,0-3.73-.79-5-2.08-4.44-4.25-1.24-12.19,5-12.09,0,0,39.46,0,39.46,0"/>
  </g>
  <text class="cls-3" transform="translate(169.69 182.62)"><tspan x="0" y="0">T</tspan></text>
  <text class="cls-3" transform="translate(285.48 182.62)"><tspan x="0" y="0">KET</tspan></text>
  <g id="I">
    <path class="cls-2" d="M276.34,145.91c-12.24,47.31-39.12,82.02-62.28,82.17,21-7.2,41.83-39.28,50.3-80.63,10.3-50.21-1.56-95.06-26.47-100.16-1.48-.31-2.96-.46-4.46-.47,7.78-5.07,15.63-7.04,22.93-5.15,24.3,6.29,33.24,52.95,19.97,104.23Z"/>
    <circle class="cls-2" cx="251.29" cy="15.06" r="15.06"/>
  </g>
</svg>