<svg width="22" height="20" viewBox="0 0 22 20" fill="none" xmlns="http://www.w3.org/2000/svg">
<path d="M7.96173 17.0184L7.49742 17.6074L7.96173 17.0184ZM11 3.60818L10.4596 4.12828C10.601 4.27517 10.7961 4.35818 11 4.35818C11.2039 4.35818 11.399 4.27517 11.5404 4.12828L11 3.60818ZM14.0383 17.0184L13.574 16.4294L14.0383 17.0184ZM8.42605 16.4294C6.91039 15.2346 5.25307 14.0678 3.93829 12.5873C2.64922 11.1358 1.75 9.44204 1.75 7.24464H0.25C0.25 9.91017 1.3605 11.9436 2.81672 13.5833C4.24723 15.1941 6.07077 16.4828 7.49742 17.6074L8.42605 16.4294ZM1.75 7.24464C1.75 5.09377 2.96537 3.29007 4.62436 2.53174C6.23607 1.79502 8.40166 1.99012 10.4596 4.12828L11.5404 3.08808C9.0985 0.551065 6.26409 0.132931 4.00076 1.1675C1.78471 2.18047 0.25 4.53257 0.25 7.24464H1.75ZM7.49742 17.6074C8.00965 18.0112 8.55955 18.4418 9.11682 18.7675C9.67386 19.093 10.3096 19.3575 11 19.3575V17.8575C10.6904 17.8575 10.3261 17.7368 9.87361 17.4724C9.42132 17.2081 8.95208 16.8441 8.42605 16.4294L7.49742 17.6074ZM14.5026 17.6074C15.9292 16.4828 17.7528 15.1941 19.1833 13.5833C20.6395 11.9436 21.75 9.91017 21.75 7.24464H20.25C20.25 9.44204 19.3508 11.1358 18.0617 12.5873C16.7469 14.0678 15.0896 15.2346 13.574 16.4294L14.5026 17.6074ZM21.75 7.24464C21.75 4.53257 20.2153 2.18047 17.9992 1.1675C15.7359 0.132931 12.9015 0.551065 10.4596 3.08808L11.5404 4.12828C13.5983 1.99012 15.7639 1.79502 17.3756 2.53174C19.0346 3.29007 20.25 5.09377 20.25 7.24464H21.75ZM13.574 16.4294C13.0479 16.8441 12.5787 17.2081 12.1264 17.4724C11.6739 17.7368 11.3096 17.8575 11 17.8575V19.3575C11.6904 19.3575 12.3261 19.093 12.8832 18.7675C13.4405 18.4418 13.9903 18.0112 14.5026 17.6074L13.574 16.4294Z" fill="#08050A"/>
</svg>
