<svg width="50" height="50" viewBox="0 0 50 50" fill="none" xmlns="http://www.w3.org/2000/svg">
<rect width="50" height="50" rx="2.5" fill="#E2E6EC"/>
<path fill-rule="evenodd" clip-rule="evenodd" d="M14.333 18.4999C14.333 17.3033 15.3031 16.3333 16.4997 16.3333H33.4997C34.6963 16.3333 35.6663 17.3033 35.6663 18.4999V31.8333C35.6663 33.0299 34.6963 33.9999 33.4997 33.9999H16.4997C15.3031 33.9999 14.333 33.0299 14.333 31.8333V18.4999ZM16.4997 17.3333C15.8553 17.3333 15.333 17.8556 15.333 18.4999V31.8333C15.333 32.4776 15.8553 32.9999 16.4997 32.9999H33.4997C34.144 32.9999 34.6663 32.4776 34.6663 31.8333V18.4999C34.6663 17.8556 34.144 17.3333 33.4997 17.3333H16.4997Z" fill="#CCCCCC"/>
<ellipse cx="19.3327" cy="20.9999" rx="2.16667" ry="2.16667" fill="#CCCCCC"/>
<path d="M17.166 30.1665V29.1783C17.166 28.9573 17.2538 28.7454 17.4101 28.5891L20.1042 25.895C20.4187 25.5805 20.9248 25.5684 21.254 25.8677L21.9196 26.4728C22.2454 26.769 22.7454 26.7606 23.0611 26.4537L27.9102 21.7393C28.2369 21.4216 28.7582 21.4253 29.0804 21.7475L32.9219 25.5891C33.0782 25.7454 33.166 25.9573 33.166 26.1783V30.1665C33.166 30.6267 32.7929 30.9998 32.3327 30.9998H17.9993C17.5391 30.9998 17.166 30.6267 17.166 30.1665Z" fill="#CCCCCC"/>
</svg>
