<svg width="18" height="12" viewBox="0 0 18 12" fill="none" xmlns="http://www.w3.org/2000/svg">
<path d="M3.4 6.60312L3.81062 6.16564L3.81062 6.16564L3.4 6.60312ZM1.55149 3.0637C1.42095 2.75912 1.06823 2.61803 0.763648 2.74856C0.45907 2.8791 0.31798 3.23182 0.448513 3.5364L1.55149 3.0637ZM11.8698 8.36301L11.65 7.8047L11.65 7.8047L11.8698 8.36301ZM6.63316 8.69024C6.81389 8.41249 6.73523 8.04082 6.45748 7.8601C6.17973 7.67937 5.80806 7.75803 5.62734 8.03578L6.63316 8.69024ZM4.49709 9.77282C4.31636 10.0506 4.39502 10.4222 4.67277 10.603C4.95052 10.7837 5.32219 10.705 5.50291 10.4273L4.49709 9.77282ZM17.5515 3.5364C17.682 3.23182 17.5409 2.8791 17.2364 2.74856C16.9318 2.61803 16.579 2.75912 16.4485 3.0637L17.5515 3.5364ZM14.6 6.60312L14.1894 6.16564L14.1894 6.16564L14.6 6.60312ZM15.3757 8.22738C15.6101 8.4617 15.9899 8.4617 16.2243 8.22738C16.4586 7.99307 16.4586 7.61317 16.2243 7.37886L15.3757 8.22738ZM8.4 10.9C8.4 11.2314 8.66863 11.5 9 11.5C9.33137 11.5 9.6 11.2314 9.6 10.9H8.4ZM12.4971 10.4273C12.6778 10.705 13.0495 10.7837 13.3272 10.603C13.605 10.4222 13.6836 10.0506 13.5029 9.77282L12.4971 10.4273ZM1.77574 7.37885C1.54142 7.61317 1.54142 7.99307 1.77574 8.22738C2.01005 8.4617 2.38995 8.4617 2.62426 8.22738L1.77574 7.37885ZM9 8.30005C6.72938 8.30005 5.02531 7.30576 3.81062 6.16564L2.98938 7.0406C4.36075 8.32779 6.34463 9.50005 9 9.50005V8.30005ZM3.81062 6.16564C3.03499 5.43762 2.46649 4.65617 2.09165 4.05461C1.90477 3.75469 1.76751 3.50186 1.67791 3.32618C1.63315 3.23841 1.60039 3.1701 1.57938 3.12504C1.56888 3.10252 1.56133 3.08583 1.55668 3.07544C1.55436 3.07025 1.55277 3.06663 1.55191 3.06465C1.55148 3.06367 1.55123 3.06309 1.55116 3.06292C1.55112 3.06284 1.55113 3.06287 1.55119 3.063C1.55121 3.06306 1.55125 3.06315 1.5513 3.06327C1.55133 3.06333 1.55137 3.06343 1.55139 3.06346C1.55144 3.06358 1.55149 3.0637 1 3.30005C0.448513 3.5364 0.448571 3.53653 0.448631 3.53668C0.448655 3.53673 0.448719 3.53688 0.448767 3.53699C0.448863 3.53722 0.448971 3.53747 0.44909 3.53774C0.44933 3.5383 0.449616 3.53896 0.449949 3.53973C0.450616 3.54127 0.45147 3.54324 0.452512 3.54562C0.454598 3.55039 0.457437 3.55683 0.461035 3.56488C0.468231 3.58099 0.478465 3.60356 0.491774 3.63211C0.518387 3.68919 0.557332 3.77025 0.608906 3.87137C0.711986 4.07349 0.865928 4.35659 1.07319 4.68922C1.48663 5.35275 2.11813 6.22284 2.98938 7.0406L3.81062 6.16564ZM11.65 7.8047C10.8737 8.11026 9.99337 8.30005 9 8.30005V9.50005C10.1506 9.50005 11.1797 9.27944 12.0895 8.92132L11.65 7.8047ZM5.62734 8.03578L4.49709 9.77282L5.50291 10.4273L6.63316 8.69024L5.62734 8.03578ZM17 3.30005C16.4485 3.0637 16.4486 3.06358 16.4486 3.06346C16.4486 3.06343 16.4487 3.06333 16.4487 3.06327C16.4487 3.06315 16.4488 3.06306 16.4488 3.063C16.4489 3.06287 16.4489 3.06284 16.4488 3.06292C16.4488 3.06309 16.4485 3.06367 16.4481 3.06465C16.4472 3.06663 16.4456 3.07025 16.4433 3.07544C16.4387 3.08583 16.4311 3.10252 16.4206 3.12505C16.3996 3.1701 16.3669 3.23841 16.3221 3.32618C16.2325 3.50186 16.0952 3.75469 15.9083 4.05461C15.5335 4.65618 14.965 5.43762 14.1894 6.16564L15.0106 7.0406C15.8819 6.22284 16.5134 5.35275 16.9268 4.68922C17.1341 4.35659 17.288 4.07349 17.3911 3.87137C17.4427 3.77025 17.4816 3.68919 17.5082 3.63211C17.5215 3.60356 17.5318 3.58099 17.539 3.56488C17.5426 3.55683 17.5454 3.55039 17.5475 3.54562C17.5485 3.54324 17.5494 3.54127 17.5501 3.53973C17.5504 3.53896 17.5507 3.5383 17.5509 3.53774C17.551 3.53747 17.5511 3.53722 17.5512 3.53699C17.5513 3.53688 17.5513 3.53673 17.5514 3.53668C17.5514 3.53653 17.5515 3.5364 17 3.30005ZM14.1894 6.16564C13.5022 6.81065 12.6591 7.40751 11.65 7.8047L12.0895 8.92132C13.2684 8.4573 14.2373 7.76646 15.0106 7.0406L14.1894 6.16564ZM14.1757 7.02738L15.3757 8.22738L16.2243 7.37886L15.0243 6.17886L14.1757 7.02738ZM8.4 8.90005V10.9H9.6V8.90005H8.4ZM11.3668 8.69024L12.4971 10.4273L13.5029 9.77282L12.3727 8.03578L11.3668 8.69024ZM2.97574 6.17885L1.77574 7.37885L2.62426 8.22738L3.82426 7.02738L2.97574 6.17885Z" fill="#CCCCCC"/>
</svg>
