<svg width="18" height="16" viewBox="0 0 18 16" fill="none" xmlns="http://www.w3.org/2000/svg">
<path d="M15.9801 6.36356L15.5046 6.72954L15.5046 6.72954L15.9801 6.36356ZM15.9801 11.6366L15.5046 11.2707L15.5046 11.2707L15.9801 11.6366ZM17 9.0001L16.4 9.0001L17 9.0001ZM2.01991 6.36356L2.49537 6.72954L2.49537 6.72954L2.01991 6.36356ZM2.01991 11.6366L2.49537 11.2707L2.49537 11.2707L2.01991 11.6366ZM2.49537 6.72954C3.79891 5.03603 5.92029 3.2001 9 3.2001V2.0001C5.38869 2.0001 2.95623 4.16346 1.54445 5.99759L2.49537 6.72954ZM9 3.2001C12.0797 3.2001 14.2011 5.03603 15.5046 6.72954L16.4555 5.99759C15.0438 4.16346 12.6113 2.0001 9 2.0001V3.2001ZM15.5046 11.2707C14.2011 12.9642 12.0797 14.8001 9 14.8001V16.0001C12.6113 16.0001 15.0438 13.8367 16.4555 12.0026L15.5046 11.2707ZM9 14.8001C5.92029 14.8001 3.79891 12.9642 2.49537 11.2707L1.54445 12.0026C2.95623 13.8367 5.38869 16.0001 9 16.0001V14.8001ZM15.5046 6.72954C15.8555 7.18537 16.061 7.45774 16.1962 7.76374C16.3225 8.04971 16.4 8.39925 16.4 9.0001L17.6 9.0001C17.6 8.28945 17.5075 7.76239 17.2939 7.27882C17.0891 6.81526 16.7846 6.42511 16.4555 5.99759L15.5046 6.72954ZM16.4555 12.0026C16.7846 11.5751 17.0891 11.1849 17.2939 10.7214C17.5075 10.2378 17.6 9.71075 17.6 9.0001L16.4 9.0001C16.4 9.60095 16.3225 9.95048 16.1962 10.2365C16.061 10.5425 15.8555 10.8148 15.5046 11.2707L16.4555 12.0026ZM1.54445 5.99759C1.21538 6.42511 0.91094 6.81526 0.70615 7.27882C0.492516 7.76239 0.4 8.28945 0.4 9.0001L1.6 9.0001C1.6 8.39925 1.67747 8.04971 1.80381 7.76374C1.93899 7.45774 2.14451 7.18537 2.49537 6.72954L1.54445 5.99759ZM2.49537 11.2707C2.14451 10.8148 1.93899 10.5425 1.80381 10.2365C1.67747 9.95048 1.6 9.60095 1.6 9.0001L0.4 9.0001C0.4 9.71075 0.492516 10.2378 0.70615 10.7214C0.91094 11.1849 1.21538 11.5751 1.54445 12.0026L2.49537 11.2707ZM10.8 9.0001C10.8 9.99421 9.99411 10.8001 9 10.8001V12.0001C10.6569 12.0001 12 10.657 12 9.0001H10.8ZM9 10.8001C8.00589 10.8001 7.2 9.99421 7.2 9.0001H6C6 10.657 7.34315 12.0001 9 12.0001V10.8001ZM7.2 9.0001C7.2 8.00599 8.00589 7.2001 9 7.2001V6.0001C7.34315 6.0001 6 7.34324 6 9.0001H7.2ZM9 7.2001C9.99411 7.2001 10.8 8.00599 10.8 9.0001H12C12 7.34324 10.6569 6.0001 9 6.0001V7.2001Z" fill="#CCCCCC"/>
</svg>
