<svg width="24" height="25" viewBox="0 0 24 25" fill="none" xmlns="http://www.w3.org/2000/svg">
<path d="M18 8.72632L18.9487 9.04255C19.9387 9.37256 20.4337 9.53756 20.7169 9.93039C21 10.3232 21 10.845 21 11.8886V17.5553C21 18.8462 21 19.4917 20.6603 19.9063C20.5449 20.0471 20.4048 20.1657 20.247 20.2564C19.7821 20.5233 19.1455 20.4172 17.8721 20.205C16.6157 19.9956 15.9875 19.8909 15.3648 19.943C15.1463 19.9613 14.9292 19.9939 14.715 20.0407C14.1046 20.174 13.5299 20.4614 12.3806 21.036C10.8809 21.7859 10.131 22.1608 9.33284 22.2764C9.09242 22.3112 8.8498 22.3284 8.60688 22.328C7.80035 22.3264 7.01186 22.0636 5.43488 21.5379L5.05132 21.4101C4.06129 21.0801 3.56627 20.9151 3.28314 20.5222C3 20.1294 3 19.6076 3 18.564V13.6343C3 11.9754 3 11.146 3.48841 10.6999C3.57388 10.6218 3.66809 10.5539 3.76917 10.4975C4.34681 10.1753 5.13369 10.4375 6.70746 10.9621" stroke="#3C3E5F" stroke-width="1.5"/>
<path d="M6 8.42662C6 5.27843 8.68629 2.72632 12 2.72632C15.3137 2.72632 18 5.27843 18 8.42662C18 11.5501 16.085 15.195 13.0972 16.4984C12.4007 16.8023 11.5993 16.8023 10.9028 16.4984C7.91499 15.195 6 11.5501 6 8.42662Z" stroke="#3C3E5F" stroke-width="1.5"/>
<circle cx="12" cy="8.72632" r="2" stroke="#3C3E5F" stroke-width="1.5"/>
</svg>
