<svg width="24" height="23" viewBox="0 0 24 23" fill="none" xmlns="http://www.w3.org/2000/svg">
<path d="M6.25 3.47632C6.25 3.89053 6.58579 4.22632 7 4.22632C7.41421 4.22632 7.75 3.89053 7.75 3.47632H6.25ZM7.75 1.97632C7.75 1.5621 7.41421 1.22632 7 1.22632C6.58579 1.22632 6.25 1.5621 6.25 1.97632H7.75ZM16.25 3.47632C16.25 3.89053 16.5858 4.22632 17 4.22632C17.4142 4.22632 17.75 3.89053 17.75 3.47632H16.25ZM17.75 1.97632C17.75 1.5621 17.4142 1.22632 17 1.22632C16.5858 1.22632 16.25 1.5621 16.25 1.97632H17.75ZM2.5 7.72632C2.08579 7.72632 1.75 8.0621 1.75 8.47632C1.75 8.89053 2.08579 9.22632 2.5 9.22632V7.72632ZM21.5 9.22632C21.9142 9.22632 22.25 8.89053 22.25 8.47632C22.25 8.0621 21.9142 7.72632 21.5 7.72632V9.22632ZM10 4.22632H14V2.72632H10V4.22632ZM21.25 11.4763V13.4763H22.75V11.4763H21.25ZM14 20.7263H10V22.2263H14V20.7263ZM2.75 13.4763V11.4763H1.25V13.4763H2.75ZM10 20.7263C8.09318 20.7263 6.73851 20.7247 5.71085 20.5866C4.70476 20.4513 4.12511 20.1976 3.7019 19.7744L2.64124 20.8351C3.38961 21.5834 4.33855 21.9156 5.51098 22.0732C6.66182 22.2279 8.13558 22.2263 10 22.2263V20.7263ZM1.25 13.4763C1.25 15.3407 1.24841 16.8145 1.40313 17.9653C1.56076 19.1378 1.89288 20.0867 2.64124 20.8351L3.7019 19.7744C3.27869 19.3512 3.02502 18.7716 2.88976 17.7655C2.75159 16.7378 2.75 15.3831 2.75 13.4763H1.25ZM21.25 13.4763C21.25 15.3831 21.2484 16.7378 21.1102 17.7655C20.975 18.7716 20.7213 19.3512 20.2981 19.7744L21.3588 20.8351C22.1071 20.0867 22.4392 19.1378 22.5969 17.9653C22.7516 16.8145 22.75 15.3407 22.75 13.4763H21.25ZM14 22.2263C15.8644 22.2263 17.3382 22.2279 18.489 22.0732C19.6614 21.9156 20.6104 21.5834 21.3588 20.8351L20.2981 19.7744C19.8749 20.1976 19.2952 20.4513 18.2892 20.5866C17.2615 20.7247 15.9068 20.7263 14 20.7263V22.2263ZM14 4.22632C15.9068 4.22632 17.2615 4.22791 18.2892 4.36608C19.2952 4.50134 19.8749 4.75501 20.2981 5.17822L21.3588 4.11756C20.6104 3.3692 19.6614 3.03708 18.489 2.87945C17.3382 2.72473 15.8644 2.72632 14 2.72632V4.22632ZM22.75 11.4763C22.75 9.6119 22.7516 8.13814 22.5969 6.9873C22.4392 5.81487 22.1071 4.86592 21.3588 4.11756L20.2981 5.17822C20.7213 5.60143 20.975 6.18108 21.1102 7.18717C21.2484 8.21483 21.25 9.5695 21.25 11.4763H22.75ZM10 2.72632C8.13558 2.72632 6.66182 2.72473 5.51098 2.87945C4.33856 3.03708 3.38961 3.3692 2.64124 4.11756L3.7019 5.17822C4.12511 4.75501 4.70476 4.50134 5.71085 4.36608C6.73851 4.22791 8.09318 4.22632 10 4.22632V2.72632ZM2.75 11.4763C2.75 9.5695 2.75159 8.21483 2.88976 7.18717C3.02502 6.18108 3.27869 5.60143 3.7019 5.17822L2.64124 4.11756C1.89288 4.86592 1.56076 5.81487 1.40313 6.9873C1.24841 8.13814 1.25 9.6119 1.25 11.4763H2.75ZM7.75 3.47632V1.97632H6.25V3.47632H7.75ZM17.75 3.47632V1.97632H16.25V3.47632H17.75ZM2.5 9.22632H21.5V7.72632H2.5V9.22632Z" fill="#CCCCCC"/>
</svg>
