<svg width="60" height="57" viewBox="0 0 60 57" fill="none" xmlns="http://www.w3.org/2000/svg">
<mask id="path-1-outside-1_10283_2606" maskUnits="userSpaceOnUse" x="16" y="16.7263" width="28" height="24" fill="black">
<rect fill="white" x="16" y="16.7263" width="28" height="24"/>
<path d="M18 25.5252C18 31.1748 22.8233 34.1854 26.3541 36.8801C27.6 37.831 28.8 38.7263 30 38.7263C31.2 38.7263 32.4 37.831 33.6459 36.8801C37.1767 34.1854 42 31.1748 42 25.5252C42 19.8756 35.3998 15.869 30 21.3005C24.6002 15.869 18 19.8756 18 25.5252Z"/>
</mask>
<path d="M18 25.5252C18 31.1748 22.8233 34.1854 26.3541 36.8801C27.6 37.831 28.8 38.7263 30 38.7263C31.2 38.7263 32.4 37.831 33.6459 36.8801C37.1767 34.1854 42 31.1748 42 25.5252C42 19.8756 35.3998 15.869 30 21.3005C24.6002 15.869 18 19.8756 18 25.5252Z" fill="#08050A" fill-opacity="0.6"/>
<path d="M26.3541 36.8801L25.262 38.311H25.262L26.3541 36.8801ZM30 21.3005L28.7235 22.5695C29.0614 22.9094 29.5208 23.1005 30 23.1005C30.4792 23.1005 30.9386 22.9094 31.2765 22.5695L30 21.3005ZM33.6459 36.8801L32.5539 35.4492L33.6459 36.8801ZM27.4461 35.4492C25.5726 34.0194 23.6856 32.7359 22.1795 31.094C20.7352 29.5195 19.8 27.7688 19.8 25.5252H16.2C16.2 28.9313 17.6765 31.5106 19.5265 33.5275C21.3148 35.477 23.6048 37.0462 25.262 38.311L27.4461 35.4492ZM19.8 25.5252C19.8 23.4066 21.0356 21.6416 22.7035 20.9035C24.2725 20.2091 26.4897 20.3227 28.7235 22.5695L31.2765 20.0314C28.1105 16.8468 24.3277 16.2479 21.2466 17.6114C18.2645 18.9311 16.2 21.9943 16.2 25.5252H19.8ZM25.262 38.311C25.8687 38.7741 26.5769 39.3129 27.3079 39.7265C28.0398 40.1405 28.9575 40.5263 30 40.5263V36.9263C29.8425 36.9263 29.5602 36.8645 29.0806 36.5931C28.6002 36.3214 28.0853 35.9371 27.4461 35.4492L25.262 38.311ZM34.738 38.311C36.3952 37.0462 38.6852 35.477 40.4735 33.5275C42.3235 31.5106 43.8 28.9313 43.8 25.5252H40.2C40.2 27.7688 39.2648 29.5195 37.8205 31.094C36.3144 32.7359 34.4274 34.0194 32.5539 35.4492L34.738 38.311ZM43.8 25.5252C43.8 21.9943 41.7355 18.9311 38.7534 17.6114C35.6723 16.2479 31.8895 16.8468 28.7235 20.0314L31.2765 22.5695C33.5103 20.3227 35.7275 20.2091 37.2965 20.9035C38.9644 21.6416 40.2 23.4066 40.2 25.5252H43.8ZM32.5539 35.4492C31.9147 35.9371 31.3998 36.3214 30.9194 36.5931C30.4398 36.8645 30.1575 36.9263 30 36.9263V40.5263C31.0425 40.5263 31.9602 40.1405 32.6921 39.7265C33.4231 39.3129 34.1313 38.7741 34.738 38.311L32.5539 35.4492Z" fill="white" mask="url(#path-1-outside-1_10283_2606)"/>
</svg>
