<svg xmlns="http://www.w3.org/2000/svg" width="24" height="25" fill="none"><path fill="#8C5A5F" d="M12 3.08c3.206 0 3.586.015 4.847.071 1.172.052 1.805.249 2.226.413a3.71 3.71 0 0 1 1.379.895c.421.422.68.82.895 1.378.164.422.36 1.06.412 2.227.057 1.265.07 1.645.07 4.847 0 3.206-.013 3.586-.07 4.846-.051 1.172-.248 1.805-.412 2.227-.216.558-.478.96-.895 1.378a3.69 3.69 0 0 1-1.379.895c-.421.165-1.059.361-2.226.413-1.266.056-1.645.07-4.847.07-3.206 0-3.586-.014-4.847-.07-1.172-.052-1.805-.248-2.226-.413a3.71 3.71 0 0 1-1.379-.895 3.691 3.691 0 0 1-.895-1.378c-.164-.422-.36-1.06-.412-2.227-.057-1.265-.07-1.645-.07-4.847 0-3.206.013-3.585.07-4.846.051-1.172.248-1.805.412-2.227.216-.558.478-.96.895-1.378.422-.422.82-.68 1.379-.895.421-.164 1.059-.361 2.226-.413 1.261-.056 1.64-.07 4.847-.07Zm0-2.16c-3.258 0-3.666.014-4.945.07-1.275.056-2.152.263-2.911.558a5.857 5.857 0 0 0-2.128 1.388A5.88 5.88 0 0 0 .628 5.059C.333 5.823.127 6.695.07 7.969.014 9.255 0 9.663 0 12.92c0 3.259.014 3.666.07 4.946.057 1.275.263 2.152.558 2.911.31.792.717 1.463 1.388 2.128a5.866 5.866 0 0 0 2.123 1.383c.764.295 1.636.502 2.911.558 1.28.056 1.688.07 4.945.07 3.258 0 3.666-.014 4.946-.07 1.275-.056 2.151-.263 2.91-.558a5.866 5.866 0 0 0 2.124-1.383 5.866 5.866 0 0 0 1.383-2.123c.295-.764.501-1.636.558-2.911.056-1.28.07-1.688.07-4.945 0-3.258-.014-3.666-.07-4.946-.057-1.275-.263-2.151-.558-2.91a5.62 5.62 0 0 0-1.374-2.133 5.866 5.866 0 0 0-2.123-1.383c-.764-.296-1.636-.502-2.911-.558C15.666.934 15.258.92 12 .92Z"/><path fill="#8C5A5F" d="M12 6.756a6.166 6.166 0 0 0-6.164 6.164A6.166 6.166 0 0 0 12 19.084a6.166 6.166 0 0 0 6.164-6.164A6.166 6.166 0 0 0 12 6.756Zm0 10.162a4 4 0 1 1 .001-7.998A4 4 0 0 1 12 16.918Zm7.847-10.406a1.44 1.44 0 1 1-2.879 0 1.44 1.44 0 0 1 2.879 0Z"/></svg>