<svg width="22" height="43" viewBox="0 0 22 43" fill="none" xmlns="http://www.w3.org/2000/svg">
<path d="M6 17.2214V26.2263M11.858 30.2263H9.22104C5.3456 30.2263 3.40789 30.2263 2.20394 28.9815C1 27.7367 1 25.7333 1 21.7263C1 17.7194 1 15.7159 2.20394 14.4711C3.40789 13.2263 5.34561 13.2263 9.22104 13.2263H11.858C14.0854 13.2263 15.1992 13.2263 16.1289 13.7591C17.0586 14.2919 17.6488 15.2683 18.8294 17.2213L19.5102 18.3476C20.5034 19.9906 21 20.8122 21 21.7263C21 22.6405 20.5034 23.462 19.5102 25.1051L18.8294 26.2313C17.6488 28.1843 17.0586 29.1608 16.1289 29.6935C15.1992 30.2263 14.0854 30.2263 11.858 30.2263Z" stroke="#3C3E5F" stroke-width="1.5" stroke-linecap="round"/>
</svg>
