<svg width="22" height="23" viewBox="0 0 22 23" fill="none" xmlns="http://www.w3.org/2000/svg">
<path d="M1.85574 7.11689L2.58653 7.28553V7.28553L1.85574 7.11689ZM6.39057 2.58206L6.55921 3.31285L6.39057 2.58206ZM5.55812 17.6928L6.08845 17.1625V17.1625L5.55812 17.6928ZM11.2623 21.7263V22.4763V21.7263ZM16.9665 6.28444L17.4969 5.75411L16.9665 6.28444ZM21 11.9886H21.75H21ZM15.1369 4.4548L14.6066 4.98513L15.1369 4.4548ZM7.61875 2.29863L7.45011 1.56784V1.56784L7.61875 2.29863ZM3.72848 15.8632L3.19815 16.3935L3.19815 16.3935L3.72848 15.8632ZM1.57231 8.34507L0.841519 8.17643L0.841519 8.17643L1.57231 8.34507ZM10.0114 17.6958C9.71852 17.9887 9.71853 18.4635 10.0114 18.7564C10.3043 19.0493 10.7792 19.0493 11.0721 18.7564L10.0114 17.6958ZM18.0511 11.7771C18.344 11.4842 18.344 11.0094 18.0511 10.7165C17.7582 10.4236 17.2833 10.4236 16.9904 10.7165L18.0511 11.7771ZM14.6066 4.98513L16.4362 6.81477L17.4969 5.75411L15.6672 3.92447L14.6066 4.98513ZM6.08845 17.1625L4.25881 15.3329L3.19815 16.3935L5.02779 18.2232L6.08845 17.1625ZM2.30311 8.51372L2.58653 7.28553L1.12495 6.94824L0.841519 8.17643L2.30311 8.51372ZM6.55921 3.31285L7.7874 3.02942L7.45011 1.56784L6.22192 1.85126L6.55921 3.31285ZM2.58653 7.28553C2.79677 6.37452 2.94251 5.74713 3.10698 5.26793C3.26575 4.80531 3.42228 4.54359 3.61977 4.34609L2.55911 3.28543C2.14313 3.70142 1.88955 4.19438 1.68821 4.781C1.49256 5.35106 1.3282 6.0675 1.12495 6.94824L2.58653 7.28553ZM6.22192 1.85126C5.34118 2.05451 4.62474 2.21888 4.05468 2.41453C3.46806 2.61586 2.9751 2.86945 2.55911 3.28543L3.61977 4.34609C3.81727 4.1486 4.07899 3.99207 4.54162 3.8333C5.02081 3.66883 5.6482 3.52309 6.55921 3.31285L6.22192 1.85126ZM16.4362 17.1625C15.0767 18.522 14.1093 19.4871 13.2776 20.1217C12.4633 20.743 11.8678 20.9763 11.2623 20.9763V22.4763C12.3276 22.4763 13.2397 22.0374 14.1875 21.3142C15.118 20.6043 16.1674 19.5527 17.4969 18.2232L16.4362 17.1625ZM5.02779 18.2232C6.35729 19.5527 7.40664 20.6043 8.33713 21.3142C9.28493 22.0374 10.197 22.4763 11.2623 22.4763V20.9763C10.6569 20.9763 10.0614 20.743 9.24701 20.1217C8.41533 19.4871 7.44794 18.522 6.08845 17.1625L5.02779 18.2232ZM16.4362 6.81477C17.7957 8.17425 18.7608 9.14164 19.3954 9.97332C20.0167 10.7877 20.25 11.3832 20.25 11.9886H21.75C21.75 10.9234 21.311 10.0113 20.5879 9.06345C19.878 8.13296 18.8264 7.08361 17.4969 5.75411L16.4362 6.81477ZM17.4969 18.2232C18.8264 16.8937 19.878 15.8443 20.5879 14.9138C21.311 13.966 21.75 13.0539 21.75 11.9886H20.25C20.25 12.5941 20.0167 13.1896 19.3954 14.004C18.7608 14.8356 17.7957 15.803 16.4362 17.1625L17.4969 18.2232ZM15.6672 3.92447C14.9044 3.16168 14.296 2.55209 13.7502 2.1017C13.1922 1.64113 12.6574 1.31004 12.0227 1.12802L11.6092 2.56989C11.9772 2.67542 12.3301 2.87448 12.7954 3.25857C13.2731 3.65283 13.8238 4.20239 14.6066 4.98513L15.6672 3.92447ZM7.7874 3.02942C8.86602 2.78051 9.62426 2.60634 10.2383 2.5252C10.8365 2.44614 11.2413 2.46437 11.6092 2.56989L12.0227 1.12802C11.3881 0.946004 10.7591 0.943328 10.0418 1.03813C9.3403 1.13083 8.50123 1.32527 7.45011 1.56784L7.7874 3.02942ZM4.25881 15.3329C3.47607 14.5501 2.92651 13.9995 2.53225 13.5218C2.14816 13.0564 1.9491 12.7035 1.84358 12.3355L0.401702 12.7491C0.583719 13.3837 0.914814 13.9185 1.37538 14.4766C1.82577 15.0223 2.43537 15.6307 3.19815 16.3935L4.25881 15.3329ZM0.841519 8.17643C0.598953 9.22755 0.404511 10.0666 0.311807 10.7681C0.21701 11.4854 0.219685 12.1144 0.401702 12.7491L1.84358 12.3355C1.73805 11.9676 1.71982 11.5628 1.79888 10.9646C1.88003 10.3506 2.05419 9.59234 2.30311 8.51372L0.841519 8.17643ZM8.49094 7.72146C8.97909 8.20962 8.97909 9.00107 8.49094 9.48923L9.5516 10.5499C10.6255 9.47595 10.6255 7.73474 9.5516 6.6608L8.49094 7.72146ZM8.49094 9.48923C8.00278 9.97738 7.21132 9.97738 6.72317 9.48923L5.66251 10.5499C6.73645 11.6238 8.47765 11.6238 9.5516 10.5499L8.49094 9.48923ZM6.72317 9.48923C6.23501 9.00107 6.23501 8.20962 6.72317 7.72146L5.66251 6.6608C4.58857 7.73474 4.58857 9.47595 5.66251 10.5499L6.72317 9.48923ZM6.72317 7.72146C7.21132 7.2333 8.00278 7.2333 8.49094 7.72146L9.5516 6.6608C8.47765 5.58686 6.73645 5.58686 5.66251 6.6608L6.72317 7.72146ZM11.0721 18.7564L18.0511 11.7771L16.9904 10.7165L10.0114 17.6958L11.0721 18.7564Z" fill="#3C3E5F"/>
</svg>
