<svg width="168" height="25" viewBox="0 0 168 25" fill="none" xmlns="http://www.w3.org/2000/svg">
<g clip-path="url(#clip0_10283_2899)">
<path d="M12 2.88726C15.2063 2.88726 15.5859 2.90132 16.8469 2.95757C18.0188 3.00913 18.6516 3.20601 19.0734 3.37007C19.6313 3.58569 20.0344 3.84819 20.4516 4.26538C20.8734 4.68726 21.1313 5.08569 21.3469 5.64351C21.5109 6.06538 21.7078 6.70288 21.7594 7.87007C21.8156 9.13569 21.8297 9.51538 21.8297 12.7169C21.8297 15.9232 21.8156 16.3029 21.7594 17.5638C21.7078 18.7357 21.5109 19.3685 21.3469 19.7904C21.1313 20.3482 20.8687 20.7513 20.4516 21.1685C20.0297 21.5904 19.6313 21.8482 19.0734 22.0638C18.6516 22.2279 18.0141 22.4248 16.8469 22.4763C15.5813 22.5326 15.2016 22.5466 12 22.5466C8.79375 22.5466 8.41406 22.5326 7.15313 22.4763C5.98125 22.4248 5.34844 22.2279 4.92656 22.0638C4.36875 21.8482 3.96563 21.5857 3.54844 21.1685C3.12656 20.7466 2.86875 20.3482 2.65313 19.7904C2.48906 19.3685 2.29219 18.731 2.24063 17.5638C2.18438 16.2982 2.17031 15.9185 2.17031 12.7169C2.17031 9.51069 2.18438 9.13101 2.24063 7.87007C2.29219 6.69819 2.48906 6.06538 2.65313 5.64351C2.86875 5.08569 3.13125 4.68257 3.54844 4.26538C3.97031 3.84351 4.36875 3.58569 4.92656 3.37007C5.34844 3.20601 5.98594 3.00913 7.15313 2.95757C8.41406 2.90132 8.79375 2.88726 12 2.88726ZM12 0.726318C8.74219 0.726318 8.33438 0.740381 7.05469 0.796631C5.77969 0.852881 4.90313 1.05913 4.14375 1.35444C3.35156 1.66382 2.68125 2.07163 2.01563 2.74194C1.34531 3.40757 0.9375 4.07788 0.628125 4.86538C0.332812 5.62944 0.126563 6.50132 0.0703125 7.77632C0.0140625 9.06069 0 9.46851 0 12.7263C0 15.9841 0.0140625 16.3919 0.0703125 17.6716C0.126563 18.9466 0.332812 19.8232 0.628125 20.5826C0.9375 21.3748 1.34531 22.0451 2.01563 22.7107C2.68125 23.3763 3.35156 23.7888 4.13906 24.0935C4.90313 24.3888 5.775 24.5951 7.05 24.6513C8.32969 24.7076 8.7375 24.7216 11.9953 24.7216C15.2531 24.7216 15.6609 24.7076 16.9406 24.6513C18.2156 24.5951 19.0922 24.3888 19.8516 24.0935C20.6391 23.7888 21.3094 23.3763 21.975 22.7107C22.6406 22.0451 23.0531 21.3748 23.3578 20.5873C23.6531 19.8232 23.8594 18.9513 23.9156 17.6763C23.9719 16.3966 23.9859 15.9888 23.9859 12.731C23.9859 9.47319 23.9719 9.06538 23.9156 7.78569C23.8594 6.51069 23.6531 5.63413 23.3578 4.87476C23.0625 4.07788 22.6547 3.40757 21.9844 2.74194C21.3188 2.07632 20.6484 1.66382 19.8609 1.35913C19.0969 1.06382 18.225 0.857568 16.95 0.801318C15.6656 0.740381 15.2578 0.726318 12 0.726318Z" fill="#8C5A5F"/>
<path d="M12 6.56226C8.59688 6.56226 5.83594 9.32319 5.83594 12.7263C5.83594 16.1294 8.59688 18.8904 12 18.8904C15.4031 18.8904 18.1641 16.1294 18.1641 12.7263C18.1641 9.32319 15.4031 6.56226 12 6.56226ZM12 16.7248C9.79219 16.7248 8.00156 14.9341 8.00156 12.7263C8.00156 10.5185 9.79219 8.72788 12 8.72788C14.2078 8.72788 15.9984 10.5185 15.9984 12.7263C15.9984 14.9341 14.2078 16.7248 12 16.7248Z" fill="#8C5A5F"/>
<path d="M19.8469 6.31846C19.8469 7.11533 19.2 7.75752 18.4078 7.75752C17.6109 7.75752 16.9688 7.11065 16.9688 6.31846C16.9688 5.52158 17.6156 4.87939 18.4078 4.87939C19.2 4.87939 19.8469 5.52627 19.8469 6.31846Z" fill="#8C5A5F"/>
</g>
<path fill-rule="evenodd" clip-rule="evenodd" d="M51.9455 23.7263L46.396 15.8164L39.4489 23.7263H36.5098L45.0921 13.9574L36.5098 1.72632H44.0557L49.286 9.18134L55.8393 1.72632H58.7784L50.5943 11.0428L59.4914 23.7263H51.9455ZM55.2185 21.4963H53.2398L40.7181 3.95632H42.6971L47.7121 10.9795L48.5793 12.1982L55.2185 21.4963Z" fill="#8C5A5F"/>
<g clip-path="url(#clip1_10283_2899)">
<path d="M89.0725 0.726318H85.0278V17.0741C85.0278 19.022 83.4722 20.622 81.5363 20.622C79.6003 20.622 78.0447 19.022 78.0447 17.0741C78.0447 15.1611 79.5658 13.5959 81.4326 13.5263V9.42199C77.3187 9.49152 74 12.8655 74 17.0741C74 21.3177 77.3879 24.7263 81.5708 24.7263C85.7538 24.7263 89.1416 21.2829 89.1416 17.0741V8.69152C90.6627 9.80459 92.5295 10.4655 94.5 10.5003V6.39588C91.4579 6.29154 89.0725 3.78719 89.0725 0.726318Z" fill="#8C5A5F"/>
</g>
<g clip-path="url(#clip2_10283_2899)">
<path d="M132 12.7263C132 6.0989 126.627 0.726318 120 0.726318C113.373 0.726318 108 6.0989 108 12.7263C108 18.7158 112.388 23.6803 118.125 24.5805V16.1951H115.078V12.7263H118.125V10.0826C118.125 7.07507 119.917 5.41382 122.658 5.41382C123.97 5.41382 125.344 5.64819 125.344 5.64819V8.60132H123.831C122.34 8.60132 121.875 9.5264 121.875 10.4763V12.7263H125.203L124.671 16.1951H121.875V24.5805C127.612 23.6803 132 18.7158 132 12.7263Z" fill="#8C5A5F"/>
</g>
<path d="M167.761 7.92637C167.761 7.92637 167.527 6.27168 166.805 5.54512C165.891 4.58887 164.869 4.58418 164.4 4.52793C161.044 4.28418 156.005 4.28418 156.005 4.28418H155.995C155.995 4.28418 150.956 4.28418 147.6 4.52793C147.131 4.58418 146.109 4.58887 145.195 5.54512C144.473 6.27168 144.244 7.92637 144.244 7.92637C144.244 7.92637 144 9.87168 144 11.8123V13.6311C144 15.5717 144.239 17.517 144.239 17.517C144.239 17.517 144.473 19.1717 145.191 19.8982C146.105 20.8545 147.305 20.8217 147.839 20.9248C149.761 21.1076 156 21.1639 156 21.1639C156 21.1639 161.044 21.1545 164.4 20.9154C164.869 20.8592 165.891 20.8545 166.805 19.8982C167.527 19.1717 167.761 17.517 167.761 17.517C167.761 17.517 168 15.5764 168 13.6311V11.8123C168 9.87168 167.761 7.92637 167.761 7.92637ZM153.52 15.8389V9.09355L160.003 12.4779L153.52 15.8389Z" fill="#8C5A5F"/>
<defs>
<clipPath id="clip0_10283_2899">
<rect width="24" height="24" fill="white" transform="translate(0 0.726318)"/>
</clipPath>
<clipPath id="clip1_10283_2899">
<rect width="24" height="24" fill="white" transform="translate(72 0.726318)"/>
</clipPath>
<clipPath id="clip2_10283_2899">
<rect width="24" height="24" fill="white" transform="translate(108 0.726318)"/>
</clipPath>
</defs>
</svg>
