<svg width="14" height="14" viewBox="0 0 14 14" fill="none" xmlns="http://www.w3.org/2000/svg">
<path d="M8.20299 2.72632H5.79701C3.52863 2.72632 2.39444 2.72632 1.68975 3.45855C1.20455 3.96271 1.05342 4.67844 1.00635 5.84474C0.997011 6.07603 0.992344 6.19168 1.03381 6.26883C1.07527 6.34599 1.2408 6.44228 1.57185 6.63485C1.93951 6.84873 2.18804 7.25737 2.18804 7.72632C2.18804 8.19527 1.93951 8.60391 1.57185 8.81778C1.2408 9.01036 1.07527 9.10665 1.03381 9.1838C0.992344 9.26096 0.997011 9.37661 1.00635 9.6079C1.05342 10.7742 1.20455 11.4899 1.68975 11.9941C2.39444 12.7263 3.52863 12.7263 5.79701 12.7263H8.20299C10.4714 12.7263 11.6056 12.7263 12.3103 11.9941C12.7955 11.4899 12.9466 10.7742 12.9937 9.6079C13.003 9.37661 13.0077 9.26096 12.9662 9.1838C12.9247 9.10665 12.7592 9.01036 12.4282 8.81778C12.0605 8.60391 11.812 8.19527 11.812 7.72632C11.812 7.25737 12.0605 6.84873 12.4282 6.63485C12.7592 6.44228 12.9247 6.34599 12.9662 6.26883C13.0077 6.19168 13.003 6.07603 12.9937 5.84474C12.9466 4.67844 12.7955 3.96271 12.3103 3.45855C11.6056 2.72632 10.4714 2.72632 8.20299 2.72632Z" stroke="#3C3E5F" stroke-width="0.75"/>
</svg>
