<svg xmlns="http://www.w3.org/2000/svg" width="24" height="25" fill="none"><g clip-path="url(#a)"><path fill="#8C5A5F" d="M17.073.92h-4.045v16.348c0 1.948-1.556 3.548-3.492 3.548s-3.491-1.6-3.491-3.548c0-1.913 1.52-3.479 3.388-3.548V9.616C5.319 9.686 2 13.059 2 17.268c0 4.243 3.388 7.652 7.57 7.652 4.184 0 7.572-3.444 7.572-7.652V8.885a9.366 9.366 0 0 0 5.358 1.809V6.589c-3.042-.104-5.427-2.608-5.427-5.67Z"/></g><defs><clipPath id="a"><path fill="#fff" d="M0 .92h24v24H0z"/></clipPath></defs></svg>