<svg width="18" height="23" viewBox="0 0 18 23" fill="none" xmlns="http://www.w3.org/2000/svg">
<path d="M10.4629 21.4008L10.1454 20.7213L10.4629 21.4008ZM7.53707 21.4008L7.85465 20.7213L7.53707 21.4008ZM10.1454 20.7213C9.41795 21.0613 8.58205 21.0613 7.85465 20.7213L7.21949 22.0802C8.34943 22.6084 9.65057 22.6084 10.7805 22.0802L10.1454 20.7213ZM0.25 9.86961C0.25 12.2347 0.924029 14.7742 2.11556 16.9682C3.30562 19.1594 5.04437 21.0635 7.21949 22.0802L7.85465 20.7213C6.04602 19.876 4.51624 18.2456 3.4337 16.2523C2.35263 14.2617 1.75 11.9667 1.75 9.86961H0.25ZM16.25 9.86961C16.25 11.9667 15.6474 14.2617 14.5663 16.2523C13.4838 18.2456 11.954 19.876 10.1454 20.7213L10.7805 22.0802C12.9556 21.0635 14.6944 19.1594 15.8844 16.9682C17.076 14.7742 17.75 12.2347 17.75 9.86961H16.25ZM9 2.47632C12.9916 2.47632 16.25 5.7738 16.25 9.86961H17.75C17.75 4.97059 13.845 0.976318 9 0.976318V2.47632ZM9 0.976318C4.15501 0.976318 0.25 4.97059 0.25 9.86961H1.75C1.75 5.7738 5.00843 2.47632 9 2.47632V0.976318ZM11.25 9.72632C11.25 10.969 10.2426 11.9763 9 11.9763V13.4763C11.0711 13.4763 12.75 11.7974 12.75 9.72632H11.25ZM9 11.9763C7.75736 11.9763 6.75 10.969 6.75 9.72632H5.25C5.25 11.7974 6.92893 13.4763 9 13.4763V11.9763ZM6.75 9.72632C6.75 8.48368 7.75736 7.47632 9 7.47632V5.97632C6.92893 5.97632 5.25 7.65525 5.25 9.72632H6.75ZM9 7.47632C10.2426 7.47632 11.25 8.48368 11.25 9.72632H12.75C12.75 7.65525 11.0711 5.97632 9 5.97632V7.47632Z" fill="#CCCCCC"/>
</svg>
