<svg xmlns="http://www.w3.org/2000/svg" width="24" height="25" fill="none"><path fill="#8C5A5F" d="M23.76 8.12s-.233-1.655-.955-2.381c-.914-.957-1.936-.961-2.405-1.017-3.356-.244-8.395-.244-8.395-.244h-.01s-5.039 0-8.395.244c-.469.056-1.49.06-2.405 1.017C.473 6.465.244 8.12.244 8.12S0 10.065 0 12.006v1.819c0 1.94.24 3.886.24 3.886s.233 1.654.95 2.38c.915.957 2.115.924 2.65 1.027 1.92.183 8.16.24 8.16.24s5.044-.01 8.4-.249c.469-.056 1.49-.06 2.405-1.017.722-.727.956-2.381.956-2.381S24 15.77 24 13.825v-1.82c0-1.94-.24-3.885-.24-3.885ZM9.52 16.032V9.287l6.483 3.384-6.483 3.361Z"/></svg>