<svg width="12" height="15" viewBox="0 0 12 15" fill="none" xmlns="http://www.w3.org/2000/svg">
<path d="M3.725 7.3C3.725 7.97655 3.17655 8.525 2.5 8.525V9.575C3.75645 9.575 4.775 8.55645 4.775 7.3H3.725ZM2.5 8.525C1.82345 8.525 1.275 7.97655 1.275 7.3H0.225C0.225 8.55645 1.24355 9.575 2.5 9.575V8.525ZM1.275 7.3C1.275 6.62345 1.82345 6.075 2.5 6.075V5.025C1.24355 5.025 0.225 6.04355 0.225 7.3H1.275ZM2.5 6.075C3.17655 6.075 3.725 6.62345 3.725 7.3H4.775C4.775 6.04355 3.75645 5.025 2.5 5.025V6.075ZM4.55107 6.3301L8.05107 3.8801L7.44893 3.0199L3.94893 5.4699L4.55107 6.3301ZM3.94893 9.1301L7.44893 11.5801L8.05107 10.7199L4.55107 8.2699L3.94893 9.1301ZM10.725 11.85C10.725 12.5265 10.1765 13.075 9.5 13.075V14.125C10.7564 14.125 11.775 13.1064 11.775 11.85H10.725ZM9.5 13.075C8.82345 13.075 8.275 12.5265 8.275 11.85H7.225C7.225 13.1064 8.24355 14.125 9.5 14.125V13.075ZM8.275 11.85C8.275 11.1735 8.82345 10.625 9.5 10.625V9.575C8.24355 9.575 7.225 10.5936 7.225 11.85H8.275ZM9.5 10.625C10.1765 10.625 10.725 11.1735 10.725 11.85H11.775C11.775 10.5936 10.7564 9.575 9.5 9.575V10.625ZM10.725 2.75C10.725 3.42655 10.1765 3.975 9.5 3.975V5.025C10.7564 5.025 11.775 4.00645 11.775 2.75H10.725ZM9.5 3.975C8.82345 3.975 8.275 3.42655 8.275 2.75H7.225C7.225 4.00645 8.24355 5.025 9.5 5.025V3.975ZM8.275 2.75C8.275 2.07345 8.82345 1.525 9.5 1.525V0.475C8.24355 0.475 7.225 1.49355 7.225 2.75H8.275ZM9.5 1.525C10.1765 1.525 10.725 2.07345 10.725 2.75H11.775C11.775 1.49355 10.7564 0.475 9.5 0.475V1.525Z" fill="#B54653"/>
</svg>
