<svg width="22" height="22" viewBox="0 0 22 22" fill="none" xmlns="http://www.w3.org/2000/svg">
<path d="M11 20.25C8.62178 20.25 6.91356 20.2484 5.61358 20.0736C4.33517 19.9018 3.56445 19.5749 2.9948 19.0052L1.93414 20.0659C2.82895 20.9607 3.96897 21.366 5.41371 21.5603C6.83687 21.7516 8.66418 21.75 11 21.75V20.25ZM0.25 11C0.25 13.3358 0.248407 15.1631 0.439746 16.5863C0.633986 18.031 1.03933 19.1711 1.93414 20.0659L2.9948 19.0052C2.42514 18.4355 2.09825 17.6648 1.92637 16.3864C1.75159 15.0864 1.75 13.3782 1.75 11H0.25ZM20.25 11C20.25 13.3782 20.2484 15.0864 20.0736 16.3864C19.9018 17.6648 19.5749 18.4355 19.0052 19.0052L20.0659 20.0659C20.9607 19.1711 21.366 18.031 21.5603 16.5863C21.7516 15.1631 21.75 13.3358 21.75 11H20.25ZM11 21.75C13.3358 21.75 15.1631 21.7516 16.5863 21.5603C18.031 21.366 19.1711 20.9607 20.0659 20.0659L19.0052 19.0052C18.4355 19.5749 17.6648 19.9018 16.3864 20.0736C15.0864 20.2484 13.3782 20.25 11 20.25V21.75ZM11 1.75C13.3782 1.75 15.0864 1.75159 16.3864 1.92637C17.6648 2.09825 18.4355 2.42514 19.0052 2.9948L20.0659 1.93414C19.1711 1.03933 18.031 0.633986 16.5863 0.439746C15.1631 0.248407 13.3358 0.25 11 0.25V1.75ZM21.75 11C21.75 8.66418 21.7516 6.83687 21.5603 5.41371C21.366 3.96897 20.9607 2.82895 20.0659 1.93414L19.0052 2.9948C19.5749 3.56445 19.9018 4.33517 20.0736 5.61358C20.2484 6.91356 20.25 8.62178 20.25 11H21.75ZM11 0.25C8.66418 0.25 6.83687 0.248407 5.41371 0.439746C3.96897 0.633986 2.82895 1.03933 1.93414 1.93414L2.9948 2.9948C3.56445 2.42514 4.33517 2.09825 5.61358 1.92637C6.91356 1.75159 8.62178 1.75 11 1.75V0.25ZM1.75 11C1.75 8.62178 1.75159 6.91356 1.92637 5.61358C2.09825 4.33517 2.42514 3.56445 2.9948 2.9948L1.93414 1.93414C1.03933 2.82895 0.633986 3.96897 0.439746 5.41371C0.248407 6.83687 0.25 8.66418 0.25 11H1.75Z" fill="#CCCCCC"/>
</svg>
