<svg width="124" height="40" viewBox="0 0 124 40" fill="none" xmlns="http://www.w3.org/2000/svg">
<rect x="0.5" y="0.5" width="57" height="39" rx="5.5" fill="white"/>
<rect x="0.5" y="0.5" width="57" height="39" rx="5.5" stroke="#F2F4F7"/>
<path fill-rule="evenodd" clip-rule="evenodd" d="M17.9171 26.4304H14.4842L11.9099 16.3206C11.7877 15.8556 11.5283 15.4444 11.1467 15.2507C10.1943 14.7637 9.14486 14.3762 8 14.1807V13.7915H13.5301C14.2934 13.7915 14.8658 14.3762 14.9612 15.0552L16.2969 22.3477L19.7281 13.7915H23.0656L17.9171 26.4304ZM24.9737 26.4304H21.7316L24.4013 13.7915H27.6434L24.9737 26.4304ZM31.8378 17.2929C31.9332 16.6121 32.5057 16.2229 33.1735 16.2229C34.223 16.1252 35.3661 16.3206 36.3202 16.8059L36.8926 14.0847C35.9386 13.6955 34.8891 13.5 33.9367 13.5C30.7901 13.5 28.5003 15.2507 28.5003 17.6804C28.5003 19.5288 30.1222 20.4993 31.2671 21.084C32.5057 21.667 32.9827 22.0563 32.8873 22.6393C32.8873 23.5137 31.9332 23.903 30.9809 23.903C29.836 23.903 28.6911 23.6115 27.6434 23.1245L27.0709 25.8474C28.2158 26.3327 29.4544 26.5282 30.5992 26.5282C34.1276 26.6242 36.3202 24.8752 36.3202 22.25C36.3202 18.9441 31.8378 18.7504 31.8378 17.2929V17.2929ZM47.6667 26.4304L45.0924 13.7915H42.3273C41.7549 13.7915 41.1825 14.1807 40.9917 14.7637L36.2248 26.4304H39.5623L40.2284 24.5837H44.3292L44.7108 26.4304H47.6667ZM42.8044 17.1951L43.7567 21.9585H41.0871L42.8044 17.1951Z" fill="#172B85"/>
<rect x="66.5" y="0.5" width="57" height="39" rx="5.5" fill="white"/>
<rect x="66.5" y="0.5" width="57" height="39" rx="5.5" stroke="#F2F4F7"/>
<path fill-rule="evenodd" clip-rule="evenodd" d="M94.6316 28.049C92.6582 29.7125 90.0984 30.7166 87.3011 30.7166C81.0597 30.7166 76 25.7171 76 19.55C76 13.3828 81.0597 8.38329 87.3011 8.38329C90.0984 8.38329 92.6582 9.38745 94.6316 11.0509C96.605 9.38745 99.1649 8.38329 101.962 8.38329C108.204 8.38329 113.263 13.3828 113.263 19.55C113.263 25.7171 108.204 30.7166 101.962 30.7166C99.1649 30.7166 96.605 29.7125 94.6316 28.049Z" fill="#ED0006"/>
<path fill-rule="evenodd" clip-rule="evenodd" d="M94.6318 28.049C97.0617 26.0009 98.6025 22.9532 98.6025 19.55C98.6025 16.1467 97.0617 13.099 94.6318 11.0509C96.6053 9.38745 99.1651 8.38329 101.962 8.38329C108.204 8.38329 113.263 13.3828 113.263 19.55C113.263 25.7171 108.204 30.7166 101.962 30.7166C99.1651 30.7166 96.6053 29.7125 94.6318 28.049Z" fill="#F9A000"/>
<path fill-rule="evenodd" clip-rule="evenodd" d="M94.6318 28.049C97.0616 26.0009 98.6024 22.9532 98.6024 19.55C98.6024 16.1467 97.0616 13.0991 94.6318 11.0509C92.2019 13.0991 90.6611 16.1467 90.6611 19.55C90.6611 22.9532 92.2019 26.0009 94.6318 28.049Z" fill="#FF5E00"/>
</svg>
