<svg width="24" height="20" viewBox="0 0 24 20" fill="none" xmlns="http://www.w3.org/2000/svg">
<path d="M7 5.49512V14.5M12.858 18.5H10.221C6.3456 18.5 4.40789 18.5 3.20394 17.2552C2 16.0104 2 14.0069 2 10C2 5.99306 2 3.98959 3.20394 2.7448C4.40789 1.5 6.34561 1.5 10.221 1.5H12.858C15.0854 1.5 16.1992 1.5 17.1289 2.03277C18.0586 2.56554 18.6488 3.54203 19.8294 5.49501L20.5102 6.62126C21.5034 8.26431 22 9.08584 22 10C22 10.9142 21.5034 11.7357 20.5102 13.3787L19.8294 14.505C18.6488 16.458 18.0586 17.4345 17.1289 17.9672C16.1992 18.5 15.0854 18.5 12.858 18.5Z" stroke="#3C3E5F" stroke-width="1.5" stroke-linecap="round"/>
</svg>
