<svg width="20" height="17" viewBox="0 0 20 17" fill="none" xmlns="http://www.w3.org/2000/svg">
<path d="M11.6701 2H8.33058C5.18207 2 3.60781 2 2.6297 2.97631C1.8975 3.70715 1.71341 4.77144 1.66713 6.5787C1.66119 6.8104 1.85133 6.99556 2.07596 7.05431C2.79261 7.24172 3.32133 7.89256 3.32133 8.66667C3.32133 9.44077 2.79261 10.0916 2.07596 10.279C1.85133 10.3378 1.66119 10.5229 1.66713 10.7546C1.71341 12.5619 1.8975 13.6262 2.6297 14.357C3.60781 15.3333 5.18207 15.3333 8.33058 15.3333H11.6701C14.8186 15.3333 16.3928 15.3333 17.371 14.357C18.1031 13.6262 18.2872 12.5619 18.3335 10.7546C18.3395 10.5229 18.1493 10.3378 17.9247 10.279C17.208 10.0916 16.6793 9.44077 16.6793 8.66667C16.6793 7.89256 17.208 7.24172 17.9247 7.05431C18.1493 6.99556 18.3395 6.8104 18.3335 6.5787C18.2872 4.77144 18.1031 3.70715 17.371 2.97631C16.3928 2 14.8186 2 11.6701 2Z" stroke="#1C274C" stroke-width="1.5"/>
</svg>
