<svg width="22" height="14" viewBox="0 0 22 14" fill="none" xmlns="http://www.w3.org/2000/svg">
<path d="M4 7.37884L4.51328 6.83199L4.51328 6.83199L4 7.37884ZM1.68936 2.95456C1.52619 2.57384 1.08528 2.39747 0.70456 2.56064C0.323838 2.72381 0.147474 3.16472 0.310641 3.54544L1.68936 2.95456ZM14.5872 9.5787L14.3125 8.88082L14.3125 8.88082L14.5872 9.5787ZM8.04145 9.98774C8.26736 9.64055 8.16904 9.17597 7.82185 8.95006C7.47466 8.72416 7.01008 8.82247 6.78417 9.16966L8.04145 9.98774ZM5.37136 11.341C5.14545 11.6881 5.24377 12.1527 5.59096 12.3786C5.93815 12.6045 6.40273 12.5062 6.62864 12.159L5.37136 11.341ZM21.6894 3.54544C21.8525 3.16472 21.6762 2.72381 21.2954 2.56064C20.9147 2.39747 20.4738 2.57384 20.3106 2.95456L21.6894 3.54544ZM18 7.37884L17.4867 6.83199L17.4867 6.83199L18 7.37884ZM18.9697 9.40917C19.2626 9.70206 19.7374 9.70206 20.0303 9.40917C20.3232 9.11628 20.3232 8.6414 20.0303 8.34851L18.9697 9.40917ZM10.25 12.75C10.25 13.1642 10.5858 13.5 11 13.5C11.4142 13.5 11.75 13.1642 11.75 12.75H10.25ZM15.3714 12.159C15.5973 12.5062 16.0619 12.6045 16.409 12.3786C16.7562 12.1527 16.8545 11.6881 16.6286 11.341L15.3714 12.159ZM1.96967 8.34851C1.67678 8.6414 1.67678 9.11627 1.96967 9.40917C2.26256 9.70206 2.73744 9.70206 3.03033 9.40917L1.96967 8.34851ZM11 9.5C8.16173 9.5 6.03164 8.25714 4.51328 6.83199L3.48672 7.92569C5.20093 9.53467 7.68079 11 11 11V9.5ZM4.51328 6.83199C3.54374 5.92197 2.83311 4.94516 2.36457 4.1932C2.13097 3.81831 1.95938 3.50227 1.84739 3.28267C1.79143 3.17295 1.75048 3.08757 1.72423 3.03125C1.7111 3.00309 1.70166 2.98223 1.69586 2.96924C1.69296 2.96275 1.69097 2.95823 1.68989 2.95576C1.68935 2.95452 1.68903 2.9538 1.68894 2.95359C1.6889 2.95349 1.68891 2.95352 1.68898 2.95368C1.68902 2.95376 1.68907 2.95388 1.68913 2.95402C1.68916 2.9541 1.68922 2.95423 1.68923 2.95427C1.68929 2.95441 1.68936 2.95456 1 3.25C0.310641 3.54544 0.310713 3.54561 0.310789 3.54578C0.310819 3.54585 0.310898 3.54604 0.310958 3.54618C0.311079 3.54646 0.311214 3.54677 0.311363 3.54712C0.311662 3.54781 0.31202 3.54864 0.312436 3.5496C0.313269 3.55153 0.314337 3.55398 0.31564 3.55696C0.318247 3.56292 0.321796 3.57097 0.326294 3.58104C0.335289 3.60118 0.348081 3.62939 0.364718 3.66507C0.397984 3.73643 0.446665 3.83775 0.511133 3.96415C0.639983 4.2168 0.83241 4.57068 1.09149 4.98646C1.60829 5.81587 2.39766 6.90348 3.48672 7.92569L4.51328 6.83199ZM14.3125 8.88082C13.3421 9.26276 12.2417 9.5 11 9.5V11C12.4382 11 13.7246 10.7242 14.8619 10.2766L14.3125 8.88082ZM6.78417 9.16966L5.37136 11.341L6.62864 12.159L8.04145 9.98774L6.78417 9.16966ZM21 3.25C20.3106 2.95456 20.3107 2.95441 20.3108 2.95427C20.3108 2.95423 20.3108 2.9541 20.3109 2.95402C20.3109 2.95388 20.311 2.95376 20.311 2.95368C20.3111 2.95352 20.3111 2.95349 20.3111 2.9536C20.311 2.9538 20.3107 2.95452 20.3101 2.95576C20.309 2.95823 20.307 2.96275 20.3041 2.96924C20.2983 2.98223 20.2889 3.00309 20.2758 3.03125C20.2495 3.08757 20.2086 3.17295 20.1526 3.28267C20.0406 3.50227 19.869 3.81831 19.6354 4.1932C19.1669 4.94516 18.4563 5.92197 17.4867 6.83199L18.5133 7.92569C19.6023 6.90348 20.3917 5.81587 20.9085 4.98646C21.1676 4.57068 21.36 4.2168 21.4889 3.96415C21.5533 3.83775 21.602 3.73643 21.6353 3.66507C21.6519 3.62939 21.6647 3.60118 21.6737 3.58104C21.6782 3.57097 21.6818 3.56292 21.6844 3.55696C21.6857 3.55398 21.6867 3.55153 21.6876 3.5496C21.688 3.54864 21.6883 3.54781 21.6886 3.54712C21.6888 3.54677 21.6889 3.54646 21.689 3.54618C21.6891 3.54604 21.6892 3.54585 21.6892 3.54578C21.6893 3.54561 21.6894 3.54544 21 3.25ZM17.4867 6.83199C16.6277 7.63825 15.5739 8.38432 14.3125 8.88082L14.8619 10.2766C16.3355 9.69656 17.5466 8.83302 18.5133 7.92569L17.4867 6.83199ZM17.4697 7.90917L18.9697 9.40917L20.0303 8.34851L18.5303 6.84851L17.4697 7.90917ZM10.25 10.25V12.75H11.75V10.25H10.25ZM13.9586 9.98774L15.3714 12.159L16.6286 11.341L15.2158 9.16966L13.9586 9.98774ZM3.46967 6.84851L1.96967 8.34851L3.03033 9.40917L4.53033 7.90917L3.46967 6.84851Z" fill="#CCCCCC"/>
</svg>
