<svg width="22" height="20" viewBox="0 0 22 20" fill="none" xmlns="http://www.w3.org/2000/svg">
<path d="M19.7251 7.20433L19.1308 7.6618L19.1308 7.6618L19.7251 7.20433ZM19.7251 13.7957L19.1308 13.3382L19.1308 13.3382L19.7251 13.7957ZM21 10.5L20.25 10.5L21 10.5ZM2.27489 7.20433L2.86922 7.6618L2.86922 7.6618L2.27489 7.20433ZM2.27489 13.7957L2.86922 13.3382L2.86922 13.3382L2.27489 13.7957ZM2.86922 7.6618C4.49864 5.54492 7.15036 3.25 11 3.25V1.75C6.48587 1.75 3.44529 4.4542 1.68057 6.74686L2.86922 7.6618ZM11 3.25C14.8496 3.25 17.5014 5.54492 19.1308 7.6618L20.3194 6.74686C18.5547 4.4542 15.5141 1.75 11 1.75V3.25ZM19.1308 13.3382C17.5014 15.4551 14.8496 17.75 11 17.75V19.25C15.5141 19.25 18.5547 16.5458 20.3194 14.2531L19.1308 13.3382ZM11 17.75C7.15036 17.75 4.49864 15.4551 2.86922 13.3382L1.68057 14.2531C3.44529 16.5458 6.48587 19.25 11 19.25V17.75ZM19.1308 7.6618C19.5694 8.23159 19.8263 8.57206 19.9952 8.95455C20.1532 9.31202 20.25 9.74893 20.25 10.5L21.75 10.5C21.75 9.61169 21.6344 8.95287 21.3673 8.3484C21.1113 7.76895 20.7308 7.28127 20.3194 6.74686L19.1308 7.6618ZM20.3194 14.2531C20.7308 13.7187 21.1113 13.2311 21.3673 12.6516C21.6344 12.0471 21.75 11.3883 21.75 10.5L20.25 10.5C20.25 11.2511 20.1532 11.688 19.9952 12.0455C19.8263 12.4279 19.5694 12.7684 19.1308 13.3382L20.3194 14.2531ZM1.68057 6.74686C1.26922 7.28127 0.888676 7.76895 0.632687 8.3484C0.365645 8.95287 0.25 9.61169 0.25 10.5L1.75 10.5C1.75 9.74893 1.84684 9.31202 2.00476 8.95455C2.17374 8.57206 2.43064 8.23159 2.86922 7.6618L1.68057 6.74686ZM2.86922 13.3382C2.43064 12.7684 2.17374 12.4279 2.00476 12.0455C1.84684 11.688 1.75 11.2511 1.75 10.5L0.25 10.5C0.25 11.3883 0.365645 12.0471 0.632687 12.6516C0.888676 13.2311 1.26922 13.7187 1.68057 14.2531L2.86922 13.3382ZM13.25 10.5C13.25 11.7426 12.2426 12.75 11 12.75V14.25C13.0711 14.25 14.75 12.5711 14.75 10.5H13.25ZM11 12.75C9.75736 12.75 8.75 11.7426 8.75 10.5H7.25C7.25 12.5711 8.92893 14.25 11 14.25V12.75ZM8.75 10.5C8.75 9.25736 9.75736 8.25 11 8.25V6.75C8.92893 6.75 7.25 8.42893 7.25 10.5H8.75ZM11 8.25C12.2426 8.25 13.25 9.25736 13.25 10.5H14.75C14.75 8.42893 13.0711 6.75 11 6.75V8.25Z" fill="#CCCCCC"/>
</svg>
