<svg width="46" height="32" viewBox="0 0 46 32" fill="none" xmlns="http://www.w3.org/2000/svg">
<rect x="0.5" y="0.5" width="45" height="31" rx="5.5" fill="white"/>
<rect x="0.5" y="0.5" width="45" height="31" rx="5.5" stroke="#F2F4F7"/>
<path fill-rule="evenodd" clip-rule="evenodd" d="M12.6968 11.1241C12.31 11.5933 11.6912 11.9634 11.0723 11.9105C10.995 11.2761 11.298 10.6021 11.6525 10.1857C12.0393 9.70332 12.7161 9.35969 13.264 9.33325C13.3285 9.99409 13.0771 10.6417 12.6968 11.1241ZM13.2575 12.0361C12.7123 12.0039 12.2149 12.2042 11.8131 12.3659C11.5545 12.47 11.3356 12.5581 11.169 12.5581C10.9821 12.5581 10.7541 12.4653 10.4981 12.361C10.1626 12.2244 9.77914 12.0682 9.37699 12.0757C8.45521 12.089 7.59789 12.6242 7.12733 13.4767C6.16042 15.1817 6.87593 17.7061 7.81061 19.0939C8.26827 19.7811 8.81619 20.5345 9.53814 20.5081C9.85576 20.4958 10.0842 20.3964 10.3207 20.2935C10.5929 20.1751 10.8757 20.0521 11.3173 20.0521C11.7435 20.0521 12.0139 20.1719 12.2735 20.2869C12.5203 20.3963 12.7574 20.5013 13.1092 20.4948C13.857 20.4816 14.3275 19.8076 14.7852 19.1203C15.2791 18.3827 15.4962 17.6628 15.5291 17.5535L15.533 17.5409C15.5322 17.5401 15.5261 17.5372 15.5153 17.5322L15.5153 17.5322C15.3502 17.4547 14.0883 16.8624 14.0762 15.2742C14.064 13.9411 15.0771 13.2657 15.2366 13.1594L15.2366 13.1594C15.2463 13.1529 15.2528 13.1486 15.2558 13.1463C14.6112 12.1683 13.6056 12.0625 13.2575 12.0361ZM18.4337 20.4221V10.1196H22.2047C24.1514 10.1196 25.5115 11.4942 25.5115 13.5031C25.5115 15.5121 24.1256 16.8999 22.1531 16.8999H19.9937V20.4221H18.4337ZM19.9935 11.4678H21.792C23.1457 11.4678 23.9192 12.2079 23.9192 13.5098C23.9192 14.8116 23.1457 15.5584 21.7855 15.5584H19.9935V11.4678ZM30.6619 19.1864C30.2494 19.9926 29.3405 20.5014 28.3607 20.5014C26.9103 20.5014 25.8983 19.6159 25.8983 18.281C25.8983 16.9593 26.8781 16.1994 28.6894 16.087L30.6361 15.9681V15.3998C30.6361 14.5605 30.1011 14.1045 29.1471 14.1045C28.3607 14.1045 27.787 14.5208 27.671 15.1553H26.2657C26.3109 13.8204 27.5356 12.8489 29.1922 12.8489C30.9778 12.8489 32.1381 13.8071 32.1381 15.294V20.4221H30.6942V19.1864H30.6619ZM28.7796 19.2789C27.948 19.2789 27.4195 18.8692 27.4195 18.2414C27.4195 17.5938 27.9287 17.2171 28.9021 17.1576L30.636 17.0453V17.6268C30.636 18.5916 29.8367 19.2789 28.7796 19.2789ZM36.9274 20.8253C36.3022 22.6294 35.5866 23.2241 34.0654 23.2241C33.9493 23.2241 33.5626 23.2109 33.4723 23.1845V21.9487C33.569 21.9619 33.8075 21.9751 33.93 21.9751C34.6197 21.9751 35.0065 21.6778 35.245 20.9046L35.3868 20.4486L32.7439 12.9481H34.3748L36.2119 19.0344H36.2441L38.0813 12.9481H39.667L36.9274 20.8253Z" fill="black"/>
</svg>
