<svg width="46" height="32" viewBox="0 0 46 32" fill="none" xmlns="http://www.w3.org/2000/svg">
<rect x="0.5" y="0.5" width="45" height="31" rx="3.5" fill="white"/>
<rect x="0.5" y="0.5" width="45" height="31" rx="3.5" stroke="#F2F4F7"/>
<path fill-rule="evenodd" clip-rule="evenodd" d="M19.485 24.5979L19.7793 22.6657L19.1237 22.6499H15.9932L18.1688 8.39176C18.1756 8.34858 18.1975 8.3085 18.2295 8.27999C18.2617 8.25148 18.3026 8.23584 18.3455 8.23584H23.6242C25.3767 8.23584 26.5861 8.61269 27.2174 9.35661C27.5134 9.7056 27.7019 10.0704 27.7932 10.4717C27.8889 10.8928 27.8905 11.396 27.7972 12.0097L27.7904 12.0543V12.4476L28.0864 12.621C28.3356 12.7577 28.5338 12.9141 28.6857 13.0932C28.9389 13.3916 29.1027 13.7709 29.1719 14.2204C29.2434 14.6828 29.2198 15.2332 29.1027 15.8562C28.9676 16.5728 28.7493 17.1969 28.4543 17.7076C28.1832 18.1781 27.8377 18.5685 27.4274 18.8709C27.0356 19.1583 26.5703 19.3764 26.0441 19.516C25.5342 19.6532 24.9528 19.7225 24.3152 19.7225H23.9044C23.6108 19.7225 23.3254 19.8318 23.1014 20.0278C22.8768 20.2279 22.7283 20.5013 22.6828 20.8002L22.6517 20.9742L22.1317 24.3799L22.1082 24.5048C22.1019 24.5444 22.0912 24.5641 22.0754 24.5775C22.0614 24.5897 22.0412 24.5979 22.0215 24.5979H19.485" fill="#28356A"/>
<path fill-rule="evenodd" clip-rule="evenodd" d="M28.3668 12.0996C28.3512 12.2037 28.3331 12.3101 28.3129 12.4194C27.6168 16.1136 25.2351 17.3898 22.1934 17.3898H20.6447C20.2727 17.3898 19.9591 17.6689 19.9013 18.0482L18.8838 24.7192C18.8461 24.9683 19.0318 25.1927 19.2749 25.1927H22.0218C22.347 25.1927 22.6233 24.9485 22.6745 24.6169L22.7015 24.4727L23.2187 21.0804L23.2519 20.8944C23.3025 20.5617 23.5795 20.3173 23.9047 20.3173H24.3155C26.9768 20.3173 29.0602 19.2006 29.6692 15.9688C29.9234 14.6188 29.7918 13.4915 29.1187 12.6987C28.915 12.4597 28.6624 12.2612 28.3668 12.0996" fill="#298FC2"/>
<path fill-rule="evenodd" clip-rule="evenodd" d="M27.6388 11.7997C27.5324 11.7676 27.4226 11.7386 27.3101 11.7124C27.1969 11.6868 27.0811 11.6642 26.9617 11.6443C26.5442 11.5746 26.0866 11.5415 25.5965 11.5415H21.4591C21.3571 11.5415 21.2603 11.5653 21.1738 11.6083C20.9829 11.7031 20.8412 11.8898 20.8068 12.1184L19.9266 17.8805L19.9014 18.0484C19.9592 17.6692 20.2727 17.3901 20.6448 17.3901H22.1935C25.2352 17.3901 27.6168 16.1132 28.313 12.4197C28.3338 12.3104 28.3513 12.204 28.3669 12.0999C28.1908 12.0032 28.0001 11.9206 27.7947 11.8502C27.7439 11.8328 27.6916 11.816 27.6388 11.7997" fill="#22284F"/>
<path fill-rule="evenodd" clip-rule="evenodd" d="M20.8069 12.1183C20.8412 11.8897 20.9829 11.703 21.1738 11.6089C21.261 11.5657 21.3572 11.5419 21.4591 11.5419H25.5965C26.0866 11.5419 26.5442 11.5751 26.9618 11.6449C27.0811 11.6646 27.197 11.6874 27.3101 11.713C27.4227 11.739 27.5324 11.7682 27.6388 11.8001C27.6916 11.8164 27.7439 11.8334 27.7952 11.8501C28.0006 11.9205 28.1915 12.0038 28.3675 12.0998C28.5747 10.7346 28.3658 9.8051 27.6517 8.96342C26.8644 8.0367 25.4435 7.64014 23.6252 7.64014H18.3464C17.975 7.64014 17.6581 7.91923 17.6008 8.29917L15.4021 22.704C15.3588 22.9889 15.5714 23.246 15.8495 23.246H19.1084L20.8069 12.1183" fill="#28356A"/>
</svg>
