<svg width="16" height="14" viewBox="0 0 16 14" fill="none" xmlns="http://www.w3.org/2000/svg">
<path d="M9.40259 2H6.59741C3.95266 2 2.63029 2 1.80867 2.8201C1.19363 3.43401 1.03899 4.32801 1.00011 5.84611C0.995129 6.04074 1.15484 6.19627 1.34353 6.24562C1.94552 6.40305 2.38964 6.94975 2.38964 7.6C2.38964 8.25025 1.94552 8.79695 1.34353 8.95438C1.15484 9.00373 0.995129 9.15926 1.00011 9.35389C1.03899 10.872 1.19363 11.766 1.80867 12.3799C2.63029 13.2 3.95266 13.2 6.59741 13.2H9.40259C12.0473 13.2 13.3697 13.2 14.1913 12.3799C14.8064 11.766 14.961 10.872 14.9999 9.35389C15.0049 9.15926 14.8452 9.00373 14.6565 8.95438C14.0545 8.79695 13.6104 8.25025 13.6104 7.6C13.6104 6.94975 14.0545 6.40305 14.6565 6.24562C14.8452 6.19627 15.0049 6.04074 14.9999 5.84611C14.961 4.32801 14.8064 3.43401 14.1913 2.8201C13.3697 2 12.0473 2 9.40259 2Z" stroke="#1C274C" stroke-width="1.05"/>
</svg>
