<svg width="18" height="17" viewBox="0 0 18 17" fill="none" xmlns="http://www.w3.org/2000/svg">
<path d="M6.00001 5.49693V10.8999M9.51479 13.2999H7.93264C5.60737 13.2999 4.44474 13.2999 3.72237 12.553C3 11.8061 3 10.604 3 8.19987C3 5.7957 3 4.59361 3.72237 3.84673C4.44474 3.09985 5.60737 3.09985 7.93264 3.09985H9.51479C10.8513 3.09985 11.5195 3.09985 12.0773 3.41952C12.6352 3.73918 12.9893 4.32507 13.6977 5.49686L14.1061 6.17261C14.7021 7.15845 15 7.65137 15 8.19987C15 8.74836 14.7021 9.24128 14.1061 10.2271L13.6977 10.9029C12.9893 12.0747 12.6352 12.6606 12.0773 12.9802C11.5195 13.2999 10.8513 13.2999 9.51479 13.2999Z" stroke="#1C274C" stroke-width="1.5" stroke-linecap="round"/>
</svg>
