<svg width="80" height="80" viewBox="0 0 80 80" fill="none" xmlns="http://www.w3.org/2000/svg">
<path d="M70 33.3333C70 56.6667 40 76.6667 40 76.6667C40 76.6667 10 56.6667 10 33.3333C10 25.3768 13.1607 17.7462 18.7868 12.1201C24.4129 6.49404 32.0435 3.33333 40 3.33333C47.9565 3.33333 55.5871 6.49404 61.2132 12.1201C66.8393 17.7462 70 25.3768 70 33.3333Z" stroke="#8C5A5F" stroke-width="6" stroke-linecap="round" stroke-linejoin="round"/>
<path d="M40 43.3333C45.5228 43.3333 50 38.8562 50 33.3333C50 27.8105 45.5228 23.3333 40 23.3333C34.4772 23.3333 30 27.8105 30 33.3333C30 38.8562 34.4772 43.3333 40 43.3333Z" stroke="#8C5A5F" stroke-width="6" stroke-linecap="round" stroke-linejoin="round"/>
</svg>
