<svg width="80" height="80" viewBox="0 0 80 80" fill="none" xmlns="http://www.w3.org/2000/svg">
<path fill-rule="evenodd" clip-rule="evenodd" d="M40 75C59.33 75 75 59.33 75 40C75 20.67 59.33 5 40 5C20.67 5 5 20.67 5 40C5 46.2772 6.65249 52.1684 9.54619 57.2624L5 75L23.2872 70.7595C28.2534 73.4636 33.9473 75 40 75ZM40 69.6154C56.3561 69.6154 69.6154 56.3561 69.6154 40C69.6154 23.6439 56.3561 10.3846 40 10.3846C23.6439 10.3846 10.3846 23.6439 10.3846 40C10.3846 46.3152 12.3613 52.1687 15.7296 56.9755L13.0769 66.9231L23.1998 64.3924C27.9734 67.6864 33.7614 69.6154 40 69.6154Z" fill="#8C5A5F"/>
<path d="M31.2501 23.75C30.4179 22.0786 29.1413 22.2266 27.8517 22.2266C25.5469 22.2266 21.9531 24.9873 21.9531 30.1252C21.9531 34.336 23.8086 38.9454 30.061 45.8406C36.0951 52.495 44.0235 55.9373 50.6055 55.8202C57.1875 55.703 58.5417 50.0389 58.5417 48.1261C58.5417 47.2783 58.0156 46.8553 57.6532 46.7404C55.4102 45.6639 51.2733 43.6582 50.3321 43.2813C49.3908 42.9045 48.8993 43.4142 48.5938 43.6915C47.7402 44.5049 46.0481 46.9023 45.4688 47.4415C44.8894 47.9807 44.0257 47.7078 43.6663 47.5039C42.3436 46.9732 38.7573 45.378 35.8987 42.6069C32.3633 39.1798 32.1558 38.0007 31.4898 36.9511C30.9569 36.1114 31.3479 35.5962 31.543 35.3711C32.3047 34.4922 33.3565 33.1353 33.8282 32.461C34.2999 31.7866 33.9254 30.7629 33.7007 30.1252C32.7344 27.3828 31.9158 25.0872 31.2501 23.75Z" fill="#8C5A5F"/>
</svg>
