<svg width="23" height="15" viewBox="0 0 23 15" fill="none" xmlns="http://www.w3.org/2000/svg">
<path d="M4.5 4.87884L5.01328 4.33199V4.33199L4.5 4.87884ZM2.18936 0.45456C2.02619 0.073838 1.58528 -0.102526 1.20456 0.0606413C0.823838 0.223808 0.647474 0.664717 0.810641 1.04544L2.18936 0.45456ZM15.0872 7.0787L14.8125 6.38082L15.0872 7.0787ZM8.54145 7.48774C8.76736 7.14055 8.66904 6.67597 8.32185 6.45006C7.97466 6.22416 7.51008 6.32247 7.28417 6.66966L8.54145 7.48774ZM5.87136 8.84096C5.64545 9.18815 5.74377 9.65273 6.09096 9.87864C6.43815 10.1045 6.90273 10.0062 7.12864 9.65904L5.87136 8.84096ZM22.1894 1.04544C22.3525 0.664717 22.1762 0.223808 21.7954 0.0606412C21.4147 -0.102525 20.9738 0.0738383 20.8106 0.454561L22.1894 1.04544ZM18.5 4.87884L17.9867 4.33199V4.33199L18.5 4.87884ZM19.4697 6.90917C19.7626 7.20206 20.2374 7.20206 20.5303 6.90917C20.8232 6.61628 20.8232 6.1414 20.5303 5.84851L19.4697 6.90917ZM10.75 10.25C10.75 10.6642 11.0858 11 11.5 11C11.9142 11 12.25 10.6642 12.25 10.25H10.75ZM15.8714 9.65904C16.0973 10.0062 16.5619 10.1045 16.909 9.87864C17.2562 9.65273 17.3545 9.18815 17.1286 8.84096L15.8714 9.65904ZM2.46967 5.84851C2.17678 6.1414 2.17678 6.61627 2.46967 6.90917C2.76256 7.20206 3.23744 7.20206 3.53033 6.90917L2.46967 5.84851ZM11.5 7C8.66173 7 6.53164 5.75714 5.01328 4.33199L3.98672 5.42569C5.70093 7.03467 8.18079 8.5 11.5 8.5V7ZM5.01328 4.33199C4.04374 3.42197 3.33311 2.44516 2.86457 1.6932C2.63097 1.31831 2.45938 1.00227 2.34739 0.782668C2.29143 0.672954 2.25048 0.587568 2.22423 0.531245C2.2111 0.503092 2.20166 0.482226 2.19586 0.46924C2.19296 0.462749 2.19097 0.45823 2.18989 0.455757C2.18935 0.454521 2.18903 0.453797 2.18894 0.453595C2.1889 0.453493 2.18891 0.453522 2.18898 0.453683C2.18902 0.453763 2.18907 0.453876 2.18913 0.454022C2.18916 0.454096 2.18922 0.45423 2.18923 0.454267C2.18929 0.454409 2.18936 0.45456 1.5 0.75C0.810641 1.04544 0.810713 1.04561 0.810789 1.04578C0.810819 1.04585 0.810898 1.04604 0.810958 1.04618C0.811079 1.04646 0.811213 1.04677 0.811363 1.04712C0.811662 1.04781 0.81202 1.04864 0.812436 1.0496C0.813269 1.05153 0.814337 1.05398 0.815641 1.05696C0.818247 1.06292 0.821796 1.07097 0.826294 1.08104C0.835289 1.10118 0.848081 1.12939 0.864718 1.16507C0.897983 1.23643 0.946665 1.33775 1.01113 1.46415C1.13998 1.7168 1.33241 2.07068 1.59149 2.48646C2.10829 3.31587 2.89766 4.40348 3.98672 5.42569L5.01328 4.33199ZM14.8125 6.38082C13.8421 6.76276 12.7417 7 11.5 7V8.5C12.9382 8.5 14.2246 8.22424 15.3619 7.77658L14.8125 6.38082ZM7.28417 6.66966L5.87136 8.84096L7.12864 9.65904L8.54145 7.48774L7.28417 6.66966ZM21.5 0.75C20.8106 0.454561 20.8107 0.45441 20.8108 0.454267C20.8108 0.45423 20.8108 0.454096 20.8109 0.454023C20.8109 0.453877 20.811 0.453764 20.811 0.453683C20.8111 0.453523 20.8111 0.453494 20.8111 0.453595C20.811 0.453798 20.8107 0.454522 20.8101 0.455758C20.809 0.45823 20.807 0.462749 20.8041 0.469241C20.7983 0.482226 20.7889 0.503092 20.7758 0.531246C20.7495 0.587568 20.7086 0.672954 20.6526 0.782669C20.5406 1.00227 20.369 1.31831 20.1354 1.6932C19.6669 2.44516 18.9563 3.42197 17.9867 4.33199L19.0133 5.42569C20.1023 4.40348 20.8917 3.31587 21.4085 2.48646C21.6676 2.07068 21.86 1.7168 21.9889 1.46415C22.0533 1.33775 22.102 1.23643 22.1353 1.16507C22.1519 1.12939 22.1647 1.10118 22.1737 1.08104C22.1782 1.07097 22.1818 1.06292 22.1844 1.05696C22.1857 1.05398 22.1867 1.05153 22.1876 1.0496C22.188 1.04864 22.1883 1.04781 22.1886 1.04712C22.1888 1.04677 22.1889 1.04646 22.189 1.04618C22.1891 1.04604 22.1892 1.04585 22.1892 1.04578C22.1893 1.04561 22.1894 1.04544 21.5 0.75ZM17.9867 4.33199C17.1277 5.13825 16.0739 5.88433 14.8125 6.38082L15.3619 7.77658C16.8355 7.19656 18.0466 6.33302 19.0133 5.42569L17.9867 4.33199ZM17.9697 5.40917L19.4697 6.90917L20.5303 5.84851L19.0303 4.34851L17.9697 5.40917ZM10.75 7.75V10.25H12.25V7.75H10.75ZM14.4586 7.48774L15.8714 9.65904L17.1286 8.84096L15.7158 6.66966L14.4586 7.48774ZM3.96967 4.34851L2.46967 5.84851L3.53033 6.90917L5.03033 5.40917L3.96967 4.34851Z" fill="#3C3E5F"/>
</svg>
