<svg width="22" height="19" viewBox="0 0 22 19" fill="none" xmlns="http://www.w3.org/2000/svg">
<path d="M19.7251 6.20433L19.1308 6.6618L19.7251 6.20433ZM19.7251 12.7957L19.1308 12.3382L19.7251 12.7957ZM21 9.5H20.25H21ZM2.27489 6.20433L2.86922 6.6618L2.27489 6.20433ZM2.27489 12.7957L2.86922 12.3382H2.86922L2.27489 12.7957ZM2.86922 6.6618C4.49864 4.54492 7.15036 2.25 11 2.25V0.75C6.48587 0.75 3.44529 3.4542 1.68057 5.74686L2.86922 6.6618ZM11 2.25C14.8496 2.25 17.5014 4.54492 19.1308 6.6618L20.3194 5.74686C18.5547 3.4542 15.5141 0.75 11 0.75V2.25ZM19.1308 12.3382C17.5014 14.4551 14.8496 16.75 11 16.75V18.25C15.5141 18.25 18.5547 15.5458 20.3194 13.2531L19.1308 12.3382ZM11 16.75C7.15036 16.75 4.49864 14.4551 2.86922 12.3382L1.68057 13.2531C3.44529 15.5458 6.48587 18.25 11 18.25V16.75ZM19.1308 6.6618C19.5694 7.23159 19.8263 7.57206 19.9952 7.95455C20.1532 8.31202 20.25 8.74893 20.25 9.5H21.75C21.75 8.61169 21.6344 7.95287 21.3673 7.3484C21.1113 6.76895 20.7308 6.28127 20.3194 5.74686L19.1308 6.6618ZM20.3194 13.2531C20.7308 12.7187 21.1113 12.2311 21.3673 11.6516C21.6344 11.0471 21.75 10.3883 21.75 9.5H20.25C20.25 10.2511 20.1532 10.688 19.9952 11.0455C19.8263 11.4279 19.5694 11.7684 19.1308 12.3382L20.3194 13.2531ZM1.68057 5.74686C1.26922 6.28127 0.888676 6.76895 0.632687 7.3484C0.365645 7.95287 0.25 8.61169 0.25 9.5H1.75C1.75 8.74893 1.84684 8.31202 2.00476 7.95455C2.17374 7.57206 2.43064 7.23159 2.86922 6.6618L1.68057 5.74686ZM2.86922 12.3382C2.43064 11.7684 2.17374 11.4279 2.00476 11.0455C1.84684 10.688 1.75 10.2511 1.75 9.5H0.25C0.25 10.3883 0.365645 11.0471 0.632687 11.6516C0.888676 12.2311 1.26922 12.7187 1.68057 13.2531L2.86922 12.3382ZM13.25 9.5C13.25 10.7426 12.2426 11.75 11 11.75V13.25C13.0711 13.25 14.75 11.5711 14.75 9.5H13.25ZM11 11.75C9.75736 11.75 8.75 10.7426 8.75 9.5H7.25C7.25 11.5711 8.92893 13.25 11 13.25V11.75ZM8.75 9.5C8.75 8.25736 9.75736 7.25 11 7.25V5.75C8.92893 5.75 7.25 7.42893 7.25 9.5H8.75ZM11 7.25C12.2426 7.25 13.25 8.25736 13.25 9.5H14.75C14.75 7.42893 13.0711 5.75 11 5.75V7.25Z" fill="#3C3E5F"/>
</svg>
